<?xml version="1.0" encoding="utf-8"?>
<!-- Generator: Adobe Illustrator 23.0.0, SVG Export Plug-In . SVG Version: 6.00 Build 0)  -->
<svg version="1.1" xmlns="http://www.w3.org/2000/svg" xmlns:xlink="http://www.w3.org/1999/xlink" x="0px" y="0px" width="500px"
	 height="500px" viewBox="0 0 500 500" style="enable-background:new 0 0 500 500;" xml:space="preserve">
<style type="text/css">
	.st0{fill:#B2A396;}
	.st1{fill:#C6B9AC;}
	.st2{fill:#8E5F54;}
	.st3{fill:#6D463E;}
	.st4{fill:#7A4E46;}
	.st5{fill:#56352F;}
	.st6{opacity:0.12;fill:#6D6C6C;}
	.st7{fill:#B8C2D1;}
	.st8{opacity:0.23;fill:#A4ADBC;}
	.st9{fill:#A4ADBC;}
	.st10{fill:#626C7A;}
	.st11{opacity:0.38;fill:#6D6C6C;}
	.st12{fill:none;}
	.st13{fill:#F4ECE1;}
	.st14{font-family:'Roboto-Bold';}
	.st15{font-size:61px;}
	.st16{opacity:0.12;fill:#C6B9AC;}
</style>
<g id="BACKGROUND">
</g>
<g id="OBJECTS">
	<g>
		<g id="XMLID_94_">
			<path id="XMLID_114_" class="st0" d="M333,96.2v41.2H166V96.2c0-21.8,17.7-39.5,39.5-39.5h88c12.2,0,23.1,5.5,30.4,14.2
				C329.6,77.7,333,86.6,333,96.2z"/>
			<path id="XMLID_112_" class="st1" d="M333,96.2v41.2H171.1v-36.1c0-21.8,17.7-39.5,39.5-39.5h88c9.6,0,18.4,3.4,25.3,9.1
				C329.6,77.7,333,86.6,333,96.2z"/>
			<rect id="XMLID_75_" x="165.6" y="135.9" class="st1" width="168.2" height="247.7"/>
			<g id="XMLID_71_">
				<g id="XMLID_33_">
					<rect id="XMLID_13_" x="171.3" y="141.7" class="st2" width="158.1" height="240.2"/>
					<rect id="XMLID_12_" x="174.9" y="146" class="st3" width="150.9" height="235.9"/>
					<rect id="XMLID_11_" x="176" y="147.1" class="st2" width="148.8" height="234.8"/>
					<rect id="XMLID_10_" x="181.6" y="152.7" class="st4" width="137.4" height="229.3"/>
					<rect id="XMLID_23_" x="186.1" y="157.9" class="st3" width="128.4" height="224.5"/>
					<rect id="XMLID_8_" x="189.4" y="161.9" class="st2" width="121.9" height="220.6"/>
					<g id="XMLID_9_">
						<polygon id="XMLID_72_" class="st5" points="311.6,382.5 310.9,382.5 310.9,162.2 189.8,162.2 189.8,382.5 189.1,382.5 
							189.1,161.5 311.6,161.5 						"/>
					</g>
					<polygon id="XMLID_21_" class="st6" points="314.5,157.9 314.5,173.8 311.2,176.5 189.3,176.5 186.1,174.2 186.1,157.9 					
						"/>
					<g id="XMLID_22_">
						<g id="XMLID_7_">
							<rect id="XMLID_40_" x="219.8" y="189.9" class="st5" width="29.3" height="40.4"/>
							<rect id="XMLID_37_" x="222.5" y="191.8" class="st4" width="26.7" height="38.5"/>
						</g>
						<g id="XMLID_15_">
							<rect id="XMLID_17_" x="256.2" y="189.9" class="st5" width="29.3" height="40.4"/>
							<rect id="XMLID_16_" x="256.2" y="191.8" class="st4" width="26.7" height="38.5"/>
						</g>
						<g id="XMLID_14_">
							<g id="XMLID_24_">
								<rect id="XMLID_27_" x="219.8" y="235.1" class="st5" width="29.3" height="40.4"/>
								<rect id="XMLID_26_" x="222.5" y="235.1" class="st4" width="26.7" height="38.5"/>
							</g>
							<g id="XMLID_18_">
								<rect id="XMLID_20_" x="256.2" y="235.1" class="st5" width="29.3" height="40.4"/>
								<rect id="XMLID_19_" x="256.2" y="235.1" class="st4" width="26.7" height="38.5"/>
							</g>
						</g>
						<polygon id="XMLID_36_" class="st6" points="249.1,189.9 249.1,230.3 246.7,230.3 246.7,191.8 246.7,191.8 244.8,189.9 						
							"/>
						<polygon id="XMLID_25_" class="st6" points="256.2,189.9 256.2,230.3 258.6,230.3 258.6,191.8 258.6,191.8 260.6,189.9 						
							"/>
						<polygon id="XMLID_29_" class="st6" points="249.1,275.5 249.1,235.1 246.7,235.1 246.7,273.6 246.7,273.6 244.8,275.5 						
							"/>
						<polygon id="XMLID_28_" class="st6" points="256.2,275.5 256.2,235.1 258.6,235.1 258.6,273.6 258.6,273.6 260.6,275.5 						
							"/>
					</g>
					<path id="XMLID_30_" class="st5" d="M208.4,298.4h-4.7c-2.2,0-4-1.8-4-4v-23.2c0-2.2,1.8-4,4-4h4.7c2.2,0,4,1.8,4,4v23.2
						C212.4,296.6,210.6,298.4,208.4,298.4z"/>
					<path id="XMLID_55_" class="st7" d="M207.7,297.8H203c-2.2,0-4-1.8-4-4v-23.2c0-2.2,1.8-4,4-4h4.7c2.2,0,4,1.8,4,4v23.2
						C211.8,296,210,297.8,207.7,297.8z"/>
					<path id="XMLID_34_" class="st8" d="M226.8,286.9h-18.7c-1.9,0-3.5-1.6-3.5-3.5l0,0c0-1.9,1.6-3.5,3.5-3.5h18.7
						c1.9,0,3.5,1.6,3.5,3.5l0,0C230.3,285.3,228.7,286.9,226.8,286.9z"/>
					<g id="XMLID_32_">
						<path id="XMLID_45_" class="st9" d="M207.1,290.4l0.5,2.8h-2.7l0.5-2.8c-0.4-0.3-0.7-0.8-0.7-1.3c0-0.9,0.7-1.6,1.6-1.6
							c0.4,0,0.9,0.2,1.1,0.5c0,0,0,0,0,0c0.3,0.3,0.4,0.7,0.4,1.1C207.7,289.6,207.5,290.1,207.1,290.4z"/>
						<path id="XMLID_43_" class="st10" d="M207.1,290.4l0.5,2.8h-2l0.4-2.4c-0.4-0.3-0.7-0.8-0.7-1.3c0-0.9,0.7-1.6,1.6-1.6
							c0.2,0,0.3,0,0.5,0.1c0,0,0,0,0,0c0.3,0.3,0.4,0.7,0.4,1.1C207.7,289.6,207.5,290.1,207.1,290.4z"/>
					</g>
					<path id="XMLID_79_" class="st10" d="M228.9,280.4c0,1-0.4,1.8-1,2.5c-0.6,0.6-1.5,1-2.5,1h-18.7c-1.9,0-3.5-1.6-3.5-3.5
						c0-0.3,0-0.5,0.1-0.7c0.1-0.7,0.5-1.3,1-1.7c0.6-0.6,1.5-1,2.5-1h18.7c1.7,0,3.1,1.2,3.4,2.8
						C228.9,279.9,228.9,280.1,228.9,280.4z"/>
					<path id="XMLID_77_" class="st9" d="M228.9,279.6c-0.3,1.6-1.7,2.8-3.4,2.8h-18.7c-1.7,0-3.1-1.2-3.4-2.8
						c0.1-0.7,0.5-1.3,1-1.7c0.6-0.6,1.5-1,2.5-1h18.7C227.1,276.9,228.5,278,228.9,279.6z"/>
				</g>
				<polygon id="XMLID_54_" class="st11" points="359.3,226.5 151.7,256.4 155.8,249 154.4,246.5 148.9,240.9 154.5,237.5 
					147.7,229 353.9,199.2 355.6,206.2 354,215 				"/>
				<g id="XMLID_39_">
					<polygon id="XMLID_35_" class="st5" points="359.3,222.1 151.7,252 155.8,244.6 154.4,242.2 148.9,236.5 154.5,233.1 
						147.7,224.6 353.9,194.8 355.6,201.8 354,210.7 					"/>
					<g id="XMLID_38_">
						<path id="XMLID_51_" class="st7" d="M164.7,226.7c0,1-0.8,1.9-1.9,1.9c-0.3,0-0.6-0.1-0.8-0.2c-0.6-0.3-1.1-1-1.1-1.7
							c0-1,0.8-1.9,1.9-1.9c0.8,0,1.4,0.4,1.7,1.1C164.7,226.1,164.7,226.4,164.7,226.7z"/>
						<path id="XMLID_49_" class="st9" d="M164.7,226.7c0,1-0.8,1.9-1.9,1.9c-0.3,0-0.6-0.1-0.8-0.2c-0.1-0.2-0.2-0.5-0.2-0.8
							c0-1,0.8-1.9,1.9-1.9c0.3,0,0.6,0.1,0.8,0.2C164.7,226.1,164.7,226.4,164.7,226.7z"/>
					</g>
					<g id="XMLID_41_">
						<path id="XMLID_44_" class="st7" d="M167.3,242.7c0,1-0.8,1.9-1.9,1.9c-0.3,0-0.6-0.1-0.8-0.2c-0.6-0.3-1.1-1-1.1-1.7
							c0-1,0.8-1.9,1.9-1.9c0.8,0,1.4,0.4,1.7,1.1C167.2,242.1,167.3,242.4,167.3,242.7z"/>
						<path id="XMLID_42_" class="st9" d="M167.3,242.7c0,1-0.8,1.9-1.9,1.9c-0.3,0-0.6-0.1-0.8-0.2c-0.1-0.2-0.2-0.5-0.2-0.8
							c0-1,0.8-1.9,1.9-1.9c0.3,0,0.6,0.1,0.8,0.2C167.2,242.1,167.3,242.4,167.3,242.7z"/>
					</g>
					<g id="XMLID_50_">
						<path id="XMLID_53_" class="st7" d="M342.6,201.5c0,1-0.8,1.9-1.9,1.9c-0.3,0-0.6-0.1-0.8-0.2c-0.6-0.3-1.1-1-1.1-1.7
							c0-1,0.8-1.9,1.9-1.9c0.8,0,1.4,0.4,1.7,1.1C342.6,200.9,342.6,201.2,342.6,201.5z"/>
						<path id="XMLID_52_" class="st9" d="M342.6,201.5c0,1-0.8,1.9-1.9,1.9c-0.3,0-0.6-0.1-0.8-0.2c-0.1-0.2-0.2-0.5-0.2-0.8
							c0-1,0.8-1.9,1.9-1.9c0.3,0,0.6,0.1,0.8,0.2C342.6,200.9,342.6,201.2,342.6,201.5z"/>
					</g>
					<g id="XMLID_46_">
						<path id="XMLID_48_" class="st7" d="M345.2,217.4c0,1-0.8,1.9-1.9,1.9c-0.3,0-0.6-0.1-0.8-0.2c-0.6-0.3-1.1-1-1.1-1.7
							c0-1,0.8-1.9,1.9-1.9c0.8,0,1.4,0.4,1.7,1.1C345.1,216.9,345.2,217.2,345.2,217.4z"/>
						<path id="XMLID_47_" class="st9" d="M345.2,217.4c0,1-0.8,1.9-1.9,1.9c-0.3,0-0.6-0.1-0.8-0.2c-0.1-0.2-0.2-0.5-0.2-0.8
							c0-1,0.8-1.9,1.9-1.9c0.3,0,0.6,0.1,0.8,0.2C345.1,216.9,345.2,217.2,345.2,217.4z"/>
					</g>
				</g>
				<polygon id="XMLID_70_" class="st11" points="339.7,287.7 149.5,199.2 157.1,195.2 157.2,192.4 155.7,184.6 162.2,184.9 
					161.2,174.1 350.2,261.9 347.7,268.7 341.5,275.3 				"/>
				<g id="XMLID_56_">
					<polygon id="XMLID_69_" class="st5" points="342.1,284.1 151.9,195.5 154.7,193.2 159.6,188.7 158.1,181 162.5,179.2 
						163.6,170.4 352.6,258.3 350.1,265 348,274.3 					"/>
					<g id="XMLID_66_">
						<path id="XMLID_68_" class="st7" d="M176.7,181.4c-0.6,0.9-1.7,1.1-2.6,0.5c-0.2-0.2-0.4-0.4-0.6-0.6c-0.4-0.6-0.4-1.4,0-2
							c0.6-0.9,1.7-1.1,2.6-0.5c0.6,0.4,0.9,1.1,0.8,1.8C177,180.9,176.9,181.2,176.7,181.4z"/>
						<path id="XMLID_67_" class="st9" d="M176.7,181.4c-0.6,0.9-1.7,1.1-2.6,0.5c-0.2-0.2-0.4-0.4-0.6-0.6c0-0.3,0.1-0.5,0.3-0.8
							c0.6-0.9,1.7-1.1,2.6-0.5c0.2,0.2,0.4,0.4,0.6,0.6C177,180.9,176.9,181.2,176.7,181.4z"/>
					</g>
					<g id="XMLID_63_">
						<path id="XMLID_65_" class="st7" d="M170.1,196.2c-0.6,0.9-1.7,1.1-2.6,0.5c-0.2-0.2-0.4-0.4-0.6-0.6c-0.4-0.6-0.4-1.4,0-2
							c0.6-0.9,1.7-1.1,2.6-0.5c0.6,0.4,0.9,1.1,0.8,1.8C170.4,195.7,170.3,196,170.1,196.2z"/>
						<path id="XMLID_64_" class="st9" d="M170.1,196.2c-0.6,0.9-1.7,1.1-2.6,0.5c-0.2-0.2-0.4-0.4-0.6-0.6c0-0.3,0.1-0.5,0.3-0.8
							c0.6-0.9,1.7-1.1,2.6-0.5c0.2,0.2,0.4,0.4,0.6,0.6C170.4,195.7,170.3,196,170.1,196.2z"/>
					</g>
					<g id="XMLID_60_">
						<path id="XMLID_62_" class="st7" d="M339.4,257.7c-0.6,0.9-1.7,1.1-2.6,0.5c-0.2-0.2-0.4-0.4-0.6-0.6c-0.4-0.6-0.4-1.4,0-2
							c0.6-0.9,1.7-1.1,2.6-0.5c0.6,0.4,0.9,1.1,0.8,1.8C339.7,257.2,339.6,257.4,339.4,257.7z"/>
						<path id="XMLID_61_" class="st9" d="M339.4,257.7c-0.6,0.9-1.7,1.1-2.6,0.5c-0.2-0.2-0.4-0.4-0.6-0.6c0-0.3,0.1-0.5,0.3-0.8
							c0.6-0.9,1.7-1.1,2.6-0.5c0.2,0.2,0.4,0.4,0.6,0.6C339.7,257.2,339.6,257.4,339.4,257.7z"/>
					</g>
					<g id="XMLID_57_">
						<path id="XMLID_59_" class="st7" d="M332.8,272.4c-0.6,0.9-1.7,1.1-2.6,0.5c-0.2-0.2-0.4-0.4-0.6-0.6c-0.4-0.6-0.4-1.4,0-2
							c0.6-0.9,1.7-1.1,2.6-0.5c0.6,0.4,0.9,1.1,0.8,1.8C333.1,271.9,333,272.2,332.8,272.4z"/>
						<path id="XMLID_58_" class="st9" d="M332.8,272.4c-0.6,0.9-1.7,1.1-2.6,0.5c-0.2-0.2-0.4-0.4-0.6-0.6c0-0.3,0.1-0.5,0.3-0.8
							c0.6-0.9,1.7-1.1,2.6-0.5c0.2,0.2,0.4,0.4,0.6,0.6C333.1,271.9,333,272.2,332.8,272.4z"/>
					</g>
				</g>
				<rect id="XMLID_31_" x="171.3" y="381.8" class="st5" width="158.1" height="1.8"/>
			</g>
			<g id="XMLID_93_">
				<rect id="XMLID_73_" x="116.1" y="157.5" class="st1" width="31.7" height="11"/>
				<rect id="XMLID_76_" x="131.1" y="143.5" class="st1" width="24.3" height="11"/>
				<rect id="XMLID_78_" x="109.5" y="129.9" class="st1" width="27.5" height="11"/>
				<rect id="XMLID_80_" x="316.4" y="121.4" class="st1" width="33.8" height="11"/>
				<rect id="XMLID_81_" x="331.9" y="136.1" class="st1" width="27.5" height="11"/>
				<rect id="XMLID_83_" x="348" y="233.7" class="st1" width="23.7" height="11"/>
				<rect id="XMLID_84_" x="365.3" y="247.8" class="st1" width="23.7" height="11"/>
				<rect id="XMLID_85_" x="121.7" y="279.8" class="st1" width="23.7" height="11"/>
				<rect id="XMLID_87_" x="147.6" y="314.4" class="st1" width="23.7" height="11"/>
				<rect id="XMLID_89_" x="329.4" y="314.4" class="st1" width="23.7" height="11"/>
				<rect id="XMLID_90_" x="345.9" y="327.8" class="st1" width="23.7" height="11"/>
				<rect id="XMLID_91_" x="202.2" y="108.4" class="st1" width="16.5" height="11"/>
				<rect id="XMLID_92_" x="213.9" y="122.6" class="st1" width="22.8" height="11"/>
				<rect id="XMLID_88_" x="132.6" y="327.9" class="st1" width="23.7" height="11"/>
				<rect id="XMLID_86_" x="106.5" y="265.7" class="st1" width="23.7" height="11"/>
				<rect id="XMLID_82_" x="366.4" y="136.1" class="st1" width="27.5" height="11"/>
			</g>
		</g>
		<rect id="XMLID_130_" x="175.4" y="79.4" class="st12" width="149.3" height="49.3"/>
		<text id="XMLID_98_" transform="matrix(1 0 0 1 197.5693 125.1461)" class="st13 st14 st15">404</text>
		<g id="XMLID_97_">
			<rect id="XMLID_96_" x="65.7" y="192.5" class="st16" width="27.3" height="12"/>
			<rect id="XMLID_107_" x="61.2" y="94.8" class="st16" width="27.3" height="12"/>
			<rect id="XMLID_108_" x="379.8" y="84.2" class="st16" width="27.3" height="12"/>
			<rect id="XMLID_109_" x="399.2" y="186.2" class="st16" width="27.3" height="12"/>
			<rect id="XMLID_110_" x="72.5" y="304.8" class="st16" width="27.3" height="12"/>
			<rect id="XMLID_111_" x="397.7" y="301" class="st16" width="27.3" height="12"/>
			<rect id="XMLID_113_" x="374.3" y="285.2" class="st16" width="27.3" height="12"/>
		</g>
	</g>
</g>
</svg>
