<?xml version="1.0" encoding="utf-8"?>
<!-- Generator: Adobe Illustrator 23.0.0, SVG Export Plug-In . SVG Version: 6.00 Build 0)  -->
<svg version="1.1" xmlns="http://www.w3.org/2000/svg" xmlns:xlink="http://www.w3.org/1999/xlink" x="0px" y="0px" width="318.4px"
	 height="266.1px" viewBox="0 0 318.4 266.1" style="enable-background:new 0 0 318.4 266.1;" xml:space="preserve">
<style type="text/css">
	.st0{opacity:0.41;}
	.st1{fill:#C5D9FF;}
	.st2{opacity:0.88;}
	.st3{opacity:0.31;fill:#C5D9FF;}
	.st4{fill:#AF9CDA;}
	.st5{fill:#243762;}
	.st6{fill:#FFFFFF;}
	.st7{fill:#ECF1F7;}
	.st8{opacity:0.33;fill:#AF9CDA;}
	.st9{fill:#F7A9B4;}
	.st10{opacity:0.29;fill:#243762;}
	.st11{opacity:0.35;fill:#ECF1F7;}
</style>
<g id="BACKGROUND">
</g>
<g id="OBJECTS">
	<g>
		<g>
			<g>
				<g class="st0">
					<g>
						<path class="st1" d="M318.3,169.8c0.3-5.2,0.2-10.4-0.4-15.6c-2.8-24.3-15.2-47.2-33.6-63.4c-6.5-5.8-14-10.9-18.3-18.6
							c-7.2-12.8-6.6-27.6-15.5-40.2c-8.9-12.7-21.9-22.6-36.6-27.6c-43.7-15.1-104.9,9.5-99.4,62.2c0,0.2,0,0.5,0.1,0.8
							c0.7,10.9-7.8,20.1-18.8,20.4c-40.3,1-75,32-82.4,71.4c-4.8,25.3,3,53.1,21.6,71c13.8,13.4,32.4,20.7,50.9,25.8
							c37.2,10.1,76.4,12.2,114.7,8.4c35.9-3.6,73.8-13.9,97-41.6C310.1,208,317.2,189.1,318.3,169.8z"/>
					</g>
				</g>
				<g class="st2">
					<g>
						<path class="st1" d="M285.1,172.3c0.2-4.1,0.1-8.2-0.3-12.2c-2.2-19-11.9-37-26.3-49.7c-5.1-4.5-11-8.6-14.3-14.5
							c-5.6-10-5.2-21.6-12.2-31.5c-7-9.9-17.2-17.7-28.6-21.7c-34.2-11.9-82.1,7.5-77.8,48.7c0,0.1,0,0.4,0.1,0.6
							c0.6,8.6-6.1,15.8-14.7,16c-31.6,0.7-58.8,25.1-64.6,55.9c-3.7,19.8,2.4,41.6,16.9,55.6c10.8,10.5,25.4,16.2,39.9,20.2
							c29.1,7.9,59.8,9.6,89.9,6.6c28.1-2.8,57.8-10.9,76-32.6C278.7,202.2,284.2,187.4,285.1,172.3z"/>
					</g>
				</g>
				
					<ellipse transform="matrix(0.2307 -0.973 0.973 0.2307 192.3902 321.8794)" class="st3" cx="299.8" cy="39.3" rx="9.9" ry="9.9"/>
				
					<ellipse transform="matrix(0.7071 -0.7071 0.7071 0.7071 4.6952 67.005)" class="st3" cx="83.2" cy="27.8" rx="11.4" ry="11.4"/>
				<circle class="st3" cx="14.8" cy="247.4" r="14.8"/>
			</g>
			<g>
				<g>
					<circle class="st4" cx="131.3" cy="78.6" r="52.3"/>
					<path class="st5" d="M167.6,116.3c-0.1,0-0.3,0-0.4-0.1c-0.2-0.2-0.2-0.5,0-0.7c9.8-9.8,15.2-22.8,15.2-36.6
						c0-13.8-5.4-26.9-15.2-36.6c-9.8-9.8-22.8-15.2-36.6-15.2c-13.8,0-26.9,5.4-36.6,15.2c-0.2,0.2-0.5,0.2-0.7,0s-0.2-0.5,0-0.7
						c10-10,23.2-15.5,37.4-15.5c14.1,0,27.4,5.5,37.4,15.5c10,10,15.5,23.2,15.5,37.4s-5.5,27.4-15.5,37.4
						C167.9,116.2,167.7,116.3,167.6,116.3z"/>
					<circle class="st6" cx="131.3" cy="78.6" r="39.8"/>
					<path class="st5" d="M131.3,118.9c-22.2,0-40.3-18.1-40.3-40.3s18.1-40.3,40.3-40.3c0.3,0,0.5,0.2,0.5,0.5
						c0,0.3-0.2,0.5-0.5,0.5c-21.7,0-39.3,17.6-39.3,39.3c0,21.7,17.6,39.3,39.3,39.3c0.3,0,0.5,0.2,0.5,0.5
						C131.8,118.7,131.5,118.9,131.3,118.9z"/>
					<path class="st5" d="M141.6,86.2h-10.8c-2.2,0-4-1.8-4-4v-15c0-1.9,1.6-3.5,3.5-3.5s3.5,1.6,3.5,3.5v12h7.9
						c1.9,0,3.5,1.6,3.5,3.5S143.5,86.2,141.6,86.2z"/>
				</g>
			</g>
			<g>
				<path class="st5" d="M50,96.8l56.4,56.4c11,11,28.9,11,39.9,0l6.7-6.7c2.5-2.5,2.5-6.7,0-9.2l-23-23c-2.5-2.5-6.7-2.5-9.2,0
					l-11.5,11.5c-0.9,0.9-2.4,0.9-3.3,0L78.2,97.8c-0.9-0.9-0.9-2.3,0-3.2l11.3-11.3c2.5-2.5,2.5-6.7,0-9.2L65.9,50.4
					c-2.5-2.5-6.6-2.5-9.1-0.1l-6.4,6.2C39,67.5,38.9,85.6,50,96.8z"/>
				<g>
					<path class="st7" d="M51.8,57.6l31.7,31.7l1.1-1.1l5-5c2.5-2.5,2.5-6.7,0-9.2L65.9,50.4c-2.5-2.5-6.6-2.5-9.1-0.1l-6.4,6.2
						L51.8,57.6z"/>
					<path class="st5" d="M83.5,90l-32-32l-1.8-1.5l6.8-6.6c2.7-2.6,7.1-2.6,9.8,0.1l23.6,23.6c2.7,2.7,2.7,7.2,0,9.9L83.5,90z
						 M51.1,56.5l1,0.8l31.3,31.3l5.7-5.7c1.1-1.1,1.8-2.6,1.8-4.3c0-1.6-0.6-3.1-1.8-4.3L65.6,50.8c-2.3-2.3-6.1-2.3-8.4-0.1
						L51.1,56.5z"/>
				</g>
				<g>
					<path class="st7" d="M116.2,121l31.7,31.7l1.1-1.1l5-5c2.5-2.5,2.5-6.7,0-9.2l-23.6-23.6c-2.5-2.5-6.6-2.5-9.1-0.1l-6.4,6.2
						L116.2,121z"/>
					<path class="st5" d="M147.9,153.4l-32-32l-1.8-1.5l6.8-6.6c2.7-2.6,7.1-2.6,9.8,0.1l23.6,23.6c1.3,1.3,2.1,3.1,2.1,5
						c0,1.9-0.7,3.6-2.1,5L147.9,153.4z M115.6,119.8l1,0.8l31.3,31.3l5.7-5.7c1.1-1.1,1.8-2.6,1.8-4.3c0-1.6-0.6-3.1-1.8-4.3
						L130,114.1c-2.3-2.3-6.1-2.3-8.4-0.1L115.6,119.8z"/>
				</g>
				<g>
					<line class="st7" x1="54.2" y1="53.9" x2="73.5" y2="73.2"/>
					<path class="st5" d="M73.5,73.7c-0.1,0-0.3,0-0.4-0.1L53.9,54.3c-0.2-0.2-0.2-0.5,0-0.7c0.2-0.2,0.5-0.2,0.7,0l19.3,19.3
						c0.2,0.2,0.2,0.5,0,0.7C73.8,73.7,73.6,73.7,73.5,73.7z"/>
				</g>
				<g>
					<line class="st7" x1="131" y1="130.7" x2="150.3" y2="150"/>
					<path class="st5" d="M150.3,150.5c-0.1,0-0.3,0-0.4-0.1L130.6,131c-0.2-0.2-0.2-0.5,0-0.7c0.2-0.2,0.5-0.2,0.7,0l19.3,19.3
						c0.2,0.2,0.2,0.5,0,0.7C150.5,150.4,150.4,150.5,150.3,150.5z"/>
				</g>
			</g>
			<g>
				<path class="st5" d="M235,249.1l-73.9-10.9c-8.4-1.2-14.1-9-12.9-17.4l26.5-179.2c1.2-8.4,9-14.1,17.4-12.9L266,39.7
					c8.4,1.2,14.1,9,12.9,17.4l-26.5,179.2C251.1,244.6,243.3,250.4,235,249.1z"/>
				
					<rect x="128.3" y="90.5" transform="matrix(0.1463 -0.9892 0.9892 0.1463 47.1303 328.3767)" class="st7" width="171" height="92.7"/>
				
					<rect x="219" y="12.3" transform="matrix(0.1463 -0.9892 0.9892 0.1463 134.4247 273.0219)" class="st4" width="12.8" height="92.7"/>
				<path class="st7" d="M199.8,238c-0.3,0-0.6,0-0.9-0.1c-1.6-0.2-3-1.1-3.9-2.4c-1-1.3-1.3-2.9-1.1-4.4c0.2-1.6,1.1-3,2.4-3.9
					c1.3-1,2.9-1.4,4.4-1.1c1.6,0.2,3,1.1,3.9,2.4c1,1.3,1.3,2.9,1.1,4.4C205.2,235.8,202.7,238,199.8,238z M199.7,227
					c-1.1,0-2.1,0.3-3,1c-1.1,0.8-1.8,2-2,3.3c-0.2,1.3,0.1,2.6,0.9,3.7c0.8,1.1,2,1.8,3.3,2c2.7,0.4,5.3-1.5,5.7-4.2
					c0.2-1.3-0.1-2.6-0.9-3.7c-0.8-1.1-2-1.8-3.3-2C200.2,227,200,227,199.7,227z"/>
				<path class="st7" d="M213,43.9c-0.1,0-0.2,0-0.3,0c-0.5-0.1-1-0.3-1.3-0.8c-0.3-0.4-0.4-0.9-0.4-1.4s0.3-1,0.8-1.3
					c0.4-0.3,0.9-0.4,1.4-0.4c0.5,0.1,1,0.3,1.3,0.8c0.3,0.4,0.4,0.9,0.4,1.4v0C214.8,43.2,214,43.9,213,43.9z M213,41
					c-0.2,0-0.4,0.1-0.5,0.2c-0.2,0.1-0.3,0.4-0.4,0.6c0,0.2,0,0.5,0.2,0.7c0.1,0.2,0.4,0.3,0.6,0.4c0.2,0,0.5,0,0.7-0.2
					c0.2-0.1,0.3-0.4,0.4-0.6l0,0c0-0.2,0-0.5-0.2-0.7c-0.1-0.2-0.4-0.3-0.6-0.4C213.1,41,213.1,41,213,41z"/>
				<path class="st7" d="M242.8,48.3c-0.1,0-0.2,0-0.3,0l-23.4-3.5c-0.5-0.1-1-0.3-1.3-0.8c-0.3-0.4-0.4-0.9-0.4-1.4
					c0.1-0.5,0.3-1,0.8-1.3c0.4-0.3,0.9-0.4,1.4-0.4l23.4,3.5c0.5,0.1,1,0.3,1.3,0.8c0.3,0.4,0.4,0.9,0.4,1.4
					c-0.1,0.5-0.3,1-0.8,1.3C243.6,48.2,243.2,48.3,242.8,48.3z M219.4,42c-0.5,0-0.8,0.3-0.9,0.8c0,0.2,0,0.5,0.2,0.7
					c0.1,0.2,0.4,0.3,0.6,0.4l23.4,3.5c0.5,0.1,1-0.3,1.1-0.8c0-0.2,0-0.5-0.2-0.7c-0.1-0.2-0.4-0.3-0.6-0.4L219.5,42
					C219.5,42,219.5,42,219.4,42z"/>
				<path class="st1" d="M247.6,176.5l-64-9.5c-1-0.2-2,0.6-2.2,1.6l-2.5,16.6c-0.2,1,0.6,2,1.6,2.2l54.7,8.1l5.6,7.8l1-6.8l2.6,0.4
					c1,0.2,2-0.6,2.2-1.6l2.5-16.6C249.3,177.6,248.6,176.7,247.6,176.5z"/>
				<path class="st5" d="M235.3,196C235.2,196,235.2,196,235.3,196l-54.8-8.1c-0.6-0.1-1.2-0.4-1.6-0.9c-0.4-0.5-0.5-1.2-0.4-1.8
					l2.5-16.6c0.2-1.3,1.4-2.2,2.7-2l14.8,2.2c0.3,0,0.5,0.3,0.4,0.6c0,0.3-0.3,0.5-0.6,0.4l-14.8-2.2c-0.8-0.1-1.5,0.4-1.6,1.2
					l-2.5,16.6c-0.1,0.4,0,0.7,0.3,1c0.2,0.3,0.6,0.5,0.9,0.6l54.7,8.1c0.3,0,0.5,0.3,0.4,0.6C235.7,195.8,235.5,196,235.3,196z"/>
				<path class="st1" d="M257.7,107.7l-64-9.5c-1-0.2-2,0.6-2.2,1.6l-2.5,16.6c-0.2,1,0.6,2,1.6,2.2l54.7,8.1l5.6,7.8l1-6.8l2.6,0.4
					c1,0.2,2-0.6,2.2-1.6l2.5-16.6C259.5,108.8,258.8,107.9,257.7,107.7z"/>
				<path class="st5" d="M251.4,135.8l-6.2-8.6l-54.5-8.1c-1.3-0.2-2.2-1.4-2-2.7c0-0.3,0.3-0.5,0.6-0.4c0.3,0,0.5,0.3,0.4,0.6
					c-0.1,0.4,0,0.7,0.3,1c0.2,0.3,0.6,0.5,0.9,0.6l54.9,8.1l5,7l0.9-6.1l3.1,0.5c0.4,0.1,0.7,0,1-0.3c0.3-0.2,0.5-0.6,0.6-0.9
					l1.6-11c0-0.3,0.3-0.5,0.6-0.4c0.3,0,0.5,0.3,0.4,0.6l-1.6,11c-0.1,0.6-0.4,1.2-0.9,1.6c-0.5,0.4-1.2,0.5-1.8,0.4l-2.1-0.3
					L251.4,135.8z"/>
				<path class="st4" d="M176.7,129.1l64,9.5c1,0.2,1.8,1.1,1.6,2.2l-2.5,16.6c-0.2,1-1.1,1.8-2.2,1.6l-54.7-8.1l-7.6,5.8l1-6.8
					l-2.6-0.4c-1-0.2-1.8-1.1-1.6-2.2l2.5-16.6C174.7,129.7,175.7,128.9,176.7,129.1z"/>
				<path class="st5" d="M238,159.5c-0.1,0-0.2,0-0.4,0l-34.2-5.1c-0.3,0-0.5-0.3-0.4-0.6c0-0.3,0.3-0.5,0.6-0.4l34.2,5.1
					c0.4,0.1,0.7,0,1-0.3c0.3-0.2,0.5-0.6,0.6-0.9l2.5-16.6c0.1-0.8-0.4-1.5-1.2-1.6c-0.3,0-0.5-0.3-0.4-0.6c0-0.3,0.3-0.5,0.6-0.4
					c1.3,0.2,2.2,1.4,2,2.7l-2.5,16.6c-0.1,0.6-0.4,1.2-0.9,1.6C239,159.3,238.5,159.5,238,159.5z"/>
				
					<rect x="194.6" y="167.3" transform="matrix(0.1463 -0.9892 0.9892 0.1463 -38.5625 382.7159)" class="st6" width="15.7" height="92.7"/>
				<path class="st1" d="M171.3,208.9c-0.5,3-3.3,5.2-6.3,4.7c-3-0.5-5.2-3.3-4.7-6.3c0.5-3,3.3-5.2,6.3-4.7
					C169.6,203.1,171.7,205.9,171.3,208.9z"/>
				<path class="st8" d="M238.9,224.1c-0.2,0-0.5,0-0.7-0.1l-59.5-8.8c-1.3-0.2-2.5-0.9-3.3-2c-0.8-1.1-1.1-2.4-0.9-3.7
					c0.4-2.7,2.9-4.6,5.7-4.2l59.5,8.8c2.7,0.4,4.6,2.9,4.2,5.6C243.5,222.3,241.4,224.1,238.9,224.1z M238.4,223
					c2.2,0.3,4.2-1.2,4.5-3.4c0.2-1.1-0.1-2.1-0.7-3c-0.6-0.9-1.6-1.4-2.6-1.6l-59.5-8.8c-2.2-0.3-4.2,1.2-4.5,3.4
					c-0.2,1.1,0.1,2.1,0.7,3c0.6,0.9,1.6,1.4,2.6,1.6L238.4,223z"/>
				<path class="st6" d="M186.2,54.6c-0.1,0-0.2,0-0.3,0c-1.1-0.2-1.8-1.2-1.7-2.2c0.1-0.5,0.4-1,0.8-1.3c0.4-0.3,0.9-0.4,1.5-0.4
					c1.1,0.2,1.8,1.2,1.7,2.2l0,0C188,53.9,187.1,54.6,186.2,54.6z M186.2,51.7c-0.2,0-0.4,0.1-0.6,0.2c-0.2,0.2-0.3,0.4-0.4,0.6
					c0,0.3,0,0.5,0.2,0.7c0.2,0.2,0.4,0.3,0.6,0.4c0.5,0.1,1-0.3,1.1-0.8l0,0c0-0.3,0-0.5-0.2-0.7c-0.2-0.2-0.4-0.3-0.6-0.4
					C186.3,51.7,186.2,51.7,186.2,51.7z"/>
				<path class="st6" d="M191.6,55.4c-0.1,0-0.2,0-0.3,0c-1.1-0.2-1.8-1.2-1.7-2.2c0.2-1.1,1.2-1.8,2.2-1.7c0.5,0.1,1,0.3,1.3,0.8
					c0.3,0.4,0.4,0.9,0.4,1.5c-0.1,0.5-0.4,1-0.8,1.3C192.4,55.3,192,55.4,191.6,55.4z M191.6,52.5c-0.5,0-0.9,0.3-0.9,0.8
					c0,0.3,0,0.5,0.2,0.7c0.2,0.2,0.4,0.3,0.6,0.4c0.3,0,0.5,0,0.7-0.2c0.2-0.2,0.3-0.4,0.4-0.6l0,0c0-0.3,0-0.5-0.2-0.7
					c-0.2-0.2-0.4-0.3-0.6-0.4C191.7,52.5,191.6,52.5,191.6,52.5z"/>
				<path class="st6" d="M196.9,56.2c-0.1,0-0.2,0-0.3,0c-1.1-0.2-1.8-1.2-1.6-2.2c0.2-1.1,1.2-1.8,2.2-1.7c1.1,0.2,1.8,1.2,1.7,2.2
					C198.7,55.5,197.8,56.2,196.9,56.2z M196.9,53.3c-0.2,0-0.4,0.1-0.6,0.2c-0.2,0.2-0.3,0.4-0.4,0.6c0,0.3,0,0.5,0.2,0.7
					c0.2,0.2,0.4,0.3,0.6,0.4c0.5,0.1,1-0.3,1.1-0.8c0.1-0.5-0.3-1-0.8-1.1C197,53.3,196.9,53.3,196.9,53.3z"/>
				<path class="st5" d="M271.6,72.4C271.6,72.4,271.5,72.4,271.6,72.4l-85-12.6c-0.3,0-0.5-0.3-0.4-0.6c0-0.3,0.3-0.5,0.6-0.4
					l84.9,12.6c0.3,0,0.5,0.3,0.4,0.6C272,72.3,271.8,72.4,271.6,72.4z"/>
				<path class="st6" d="M236.2,180.3C236.1,180.3,236.1,180.3,236.2,180.3l-45.4-6.7c-0.3,0-0.5-0.3-0.4-0.6c0-0.3,0.3-0.5,0.6-0.4
					l45.3,6.7c0.3,0,0.5,0.3,0.4,0.6C236.6,180.1,236.4,180.3,236.2,180.3z"/>
				<path class="st6" d="M209.3,181.9C209.3,181.9,209.3,181.9,209.3,181.9L190,179c-0.3,0-0.5-0.3-0.4-0.6c0-0.3,0.3-0.5,0.6-0.4
					l19.3,2.9c0.3,0,0.5,0.3,0.4,0.6C209.8,181.7,209.6,181.9,209.3,181.9z"/>
				<path class="st6" d="M202.8,186.1C202.8,186.1,202.8,186.1,202.8,186.1l-13.6-2c-0.3,0-0.5-0.3-0.4-0.6c0-0.3,0.3-0.5,0.6-0.4
					l13.5,2c0.3,0,0.5,0.3,0.4,0.6C203.3,185.9,203.1,186.1,202.8,186.1z"/>
				<path class="st6" d="M235.4,185.7C235.4,185.7,235.3,185.7,235.4,185.7l-20-3c-0.3,0-0.5-0.3-0.4-0.6c0-0.3,0.3-0.5,0.6-0.4
					l19.9,2.9c0.3,0,0.5,0.3,0.4,0.6C235.8,185.6,235.6,185.7,235.4,185.7z"/>
				<g>
					<path class="st6" d="M230.6,142.7C230.6,142.7,230.6,142.7,230.6,142.7l-45.4-6.7c-0.3,0-0.5-0.3-0.4-0.6
						c0-0.3,0.3-0.5,0.6-0.4l45.3,6.7c0.3,0,0.5,0.3,0.4,0.6C231.1,142.5,230.9,142.7,230.6,142.7z"/>
					<path class="st6" d="M203.8,144.3C203.8,144.3,203.8,144.3,203.8,144.3l-19.4-2.9c-0.3,0-0.5-0.3-0.4-0.6
						c0-0.3,0.3-0.5,0.6-0.4l19.3,2.9c0.3,0,0.5,0.3,0.4,0.6C204.3,144.1,204.1,144.3,203.8,144.3z"/>
					<path class="st6" d="M223.9,152.4C223.8,152.4,223.8,152.4,223.9,152.4l-39.2-6.1c-0.3,0-0.5-0.3-0.4-0.6
						c0-0.3,0.3-0.5,0.6-0.4l39.1,6.1c0.3,0,0.5,0.3,0.4,0.6C224.3,152.2,224.1,152.4,223.9,152.4z"/>
					<path class="st6" d="M229.8,148.1C229.8,148.1,229.8,148.1,229.8,148.1l-20-3c-0.3,0-0.5-0.3-0.4-0.6c0-0.3,0.3-0.5,0.6-0.4
						l19.9,2.9c0.3,0,0.5,0.3,0.4,0.6C230.3,147.9,230.1,148.1,229.8,148.1z"/>
				</g>
				<path class="st4" d="M184.9,66.7l64,9.5c1,0.2,1.8,1.1,1.6,2.2l-2.5,16.6c-0.2,1-1.1,1.8-2.2,1.6l-54.7-8.1l-7.6,5.8l1-6.8
					l-2.6-0.4c-1-0.2-1.8-1.1-1.6-2.2l2.5-16.6C182.9,67.2,183.9,66.5,184.9,66.7z"/>
				<path class="st5" d="M248.1,95.4C248.1,95.4,248.1,95.4,248.1,95.4c-0.3,0-0.5-0.3-0.5-0.6l2.5-16.6c0.1-0.4,0-0.7-0.3-1
					c-0.2-0.3-0.6-0.5-0.9-0.6l-39.7-5.9c-0.3,0-0.5-0.3-0.4-0.6c0-0.3,0.3-0.5,0.6-0.4l39.7,5.9c0.6,0.1,1.2,0.4,1.6,0.9
					c0.4,0.5,0.5,1.2,0.4,1.8L248.6,95C248.6,95.2,248.3,95.4,248.1,95.4z"/>
				<g>
					<path class="st6" d="M238.9,80.3C238.8,80.3,238.8,80.3,238.9,80.3l-45.4-6.7c-0.3,0-0.5-0.3-0.4-0.6c0-0.3,0.3-0.5,0.6-0.4
						l45.3,6.7c0.3,0,0.5,0.3,0.4,0.6C239.3,80.1,239.1,80.3,238.9,80.3z"/>
					<path class="st6" d="M212,81.9C212,81.9,212,81.9,212,81.9L192.7,79c-0.3,0-0.5-0.3-0.4-0.6c0-0.3,0.3-0.5,0.6-0.4l19.3,2.9
						c0.3,0,0.5,0.3,0.4,0.6C212.5,81.7,212.3,81.9,212,81.9z"/>
					<path class="st6" d="M232.1,90C232,90,232,90,232.1,90l-39.2-6.1c-0.3,0-0.5-0.3-0.4-0.6c0-0.3,0.3-0.5,0.6-0.4l39.1,6.1
						c0.3,0,0.5,0.3,0.4,0.6C232.5,89.8,232.3,90,232.1,90z"/>
					<path class="st6" d="M238.1,85.7C238,85.7,238,85.7,238.1,85.7l-20-3c-0.3,0-0.5-0.3-0.4-0.6c0-0.3,0.3-0.5,0.6-0.4l19.9,2.9
						c0.3,0,0.5,0.3,0.4,0.6C238.5,85.5,238.3,85.7,238.1,85.7z"/>
				</g>
				<path class="st6" d="M246.4,112.2C246.4,112.2,246.3,112.2,246.4,112.2l-45.4-6.7c-0.3,0-0.5-0.3-0.4-0.6c0-0.3,0.3-0.5,0.6-0.4
					l45.3,6.7c0.3,0,0.5,0.3,0.4,0.6C246.8,112,246.6,112.2,246.4,112.2z"/>
				<path class="st6" d="M219.6,113.7C219.5,113.7,219.5,113.7,219.6,113.7l-19.4-2.9c-0.3,0-0.5-0.3-0.4-0.6c0-0.3,0.3-0.5,0.6-0.4
					l19.3,2.9c0.3,0,0.5,0.3,0.4,0.6C220,113.5,219.8,113.7,219.6,113.7z"/>
				<path class="st6" d="M213.1,117.9C213,117.9,213,117.9,213.1,117.9l-13.6-2c-0.3,0-0.5-0.3-0.4-0.6c0-0.3,0.3-0.5,0.6-0.4
					l13.5,2c0.3,0,0.5,0.3,0.4,0.6C213.5,117.7,213.3,117.9,213.1,117.9z"/>
				<path class="st6" d="M245.6,117.6C245.6,117.6,245.5,117.6,245.6,117.6l-20-3c-0.3,0-0.5-0.3-0.4-0.6c0-0.3,0.3-0.5,0.6-0.4
					l19.9,2.9c0.3,0,0.5,0.3,0.4,0.6C246,117.4,245.8,117.6,245.6,117.6z"/>
			</g>
			<g>
				<g>
					<path class="st9" d="M154.2,233.8L51.6,245.3c-2,0.2-3.8-1.2-4-3.2l-7.4-65.8c0-0.1,0.1-0.2,0.2-0.2l109.4-12.3
						c0.1,0,0.2,0.1,0.2,0.2l7.4,65.8C157.6,231.8,156.2,233.5,154.2,233.8z"/>
					<path class="st5" d="M51.2,245.9c-2.1,0-3.8-1.5-4.1-3.6l-7.4-65.8c0-0.4,0.2-0.7,0.6-0.8l109.4-12.3c0.4,0,0.7,0.2,0.8,0.6
						l7.4,65.8c0.1,1.1-0.2,2.1-0.9,3c-0.7,0.8-1.6,1.4-2.7,1.5L51.6,245.8C51.5,245.8,51.3,245.9,51.2,245.9z M40.7,176.7l7.4,65.5
						c0.2,1.7,1.7,2.9,3.4,2.7l102.7-11.6l0.1,0.5l-0.1-0.5c0.8-0.1,1.5-0.5,2.1-1.1c0.5-0.6,0.7-1.4,0.6-2.3l-7.4-65.5L40.7,176.7z
						"/>
				</g>
				<path class="st10" d="M149.4,233.8l-92.8,11.6c-2,0.2,28.8-39.2,28.5-41.2l-44.9-27.8c0-0.1,0.1-0.2,0.2-0.2l109.4-12.3
					c0.1,0,0.2,0.1,0.2,0.2l-37.4,37C112.8,203,151.4,233.5,149.4,233.8z"/>
				<g>
					<path class="st9" d="M40.4,176.2l45.2-44.7c2.7-2.7,6.9-3.2,10.1-1.2l53.8,33.4c0.1,0.1,0.1,0.2,0,0.2L40.2,176.2"/>
					<path class="st5" d="M40.2,176.7l-0.1-0.7l-0.1-0.1l0.1-0.1l0,0l0,0l45.1-44.6c2.9-2.8,7.3-3.4,10.7-1.2l53.8,33.4
						c0.2,0.1,0.3,0.4,0.3,0.7c-0.1,0.3-0.3,0.4-0.5,0.5L40.2,176.7z M91.4,129.6c-2,0-3.9,0.8-5.4,2.2l-44.2,43.7l106.5-12
						l-52.8-32.8C94.2,129.9,92.8,129.6,91.4,129.6z"/>
				</g>
				<path class="st10" d="M40.4,176.2l45.2-44.7c2.7-2.7,6.9-3.2,10.1-1.2l53.8,33.4c0.1,0.1,0.1,0.2,0,0.2L40.2,176.2"/>
				<g>
					<path class="st9" d="M90.6,197.3l-34,47.3l92.8-10.5l-43.7-38.6C101.2,191.5,94.2,192.3,90.6,197.3z"/>
					<path class="st5" d="M55.6,245.2L90.2,197l0.4,0.3l-0.4-0.3c1.8-2.5,4.5-4.1,7.5-4.4c3-0.3,6.1,0.6,8.3,2.6l44.5,39.3
						L55.6,245.2z M99,193.5c-0.4,0-0.7,0-1.1,0.1c-2.7,0.3-5.2,1.8-6.8,4L57.7,244l90.6-10.2l-42.8-37.8
						C103.6,194.4,101.3,193.5,99,193.5z"/>
				</g>
				<g>
					<path class="st6" d="M45.9,143.8l71.5-8.1c4.7-0.5,8.9,2.3,9.3,6.4l4.6,40.8l-19.9,18.3l-26.3,3l-26-16.2l-4.5-39.5L45.9,143.8
						z"/>
					<path class="st5" d="M85,204.7l-26.3-16.5l-4.4-39.5l-6.8-5.6l69.9-7.9c2.4-0.3,4.7,0.3,6.6,1.6c1.9,1.3,3,3.2,3.3,5.3l4.6,41
						l-20.2,18.6L85,204.7z M59.7,187.6l25.6,16l25.9-2.9l19.6-18l-4.6-40.5c-0.2-1.8-1.2-3.4-2.9-4.6c-1.7-1.1-3.8-1.6-5.9-1.4
						l-69.9,7.9l7.6,4L59.7,187.6z"/>
				</g>
				<path class="st10" d="M90.6,193.2l-34,51.4l92.8-10.5l-43.7-42.6C101.2,187.5,94.2,188.2,90.6,193.2z"/>
				<g>
					<path class="st9" d="M90.6,197.3l-34,47.3l92.8-10.5l-43.7-38.6C101.2,191.5,94.2,192.3,90.6,197.3z"/>
					<path class="st5" d="M55.6,245.2L90.2,197l0.4,0.3l-0.4-0.3c1.8-2.5,4.5-4.1,7.5-4.4c3-0.3,6.1,0.6,8.3,2.6l44.5,39.3
						L55.6,245.2z M99,193.5c-0.4,0-0.7,0-1.1,0.1c-2.7,0.3-5.2,1.8-6.8,4L57.7,244l90.6-10.2l-42.8-37.8
						C103.6,194.4,101.3,193.5,99,193.5z"/>
				</g>
				<path class="st11" d="M93.9,207.7l-25,34.7l68.2-7.7L105,206.5C101.7,203.5,96.5,204.1,93.9,207.7z"/>
				<g>
					<line class="st9" x1="40.4" y1="176.3" x2="85.2" y2="204.2"/>
					
						<rect x="62.3" y="163.9" transform="matrix(0.5289 -0.8487 0.8487 0.5289 -131.8607 142.9089)" class="st5" width="1" height="52.7"/>
				</g>
				<g>
					<line class="st9" x1="150" y1="163.9" x2="112.6" y2="201.1"/>
					
						<rect x="104.9" y="182" transform="matrix(0.7096 -0.7047 0.7047 0.7096 -90.4768 145.5042)" class="st5" width="52.7" height="1"/>
				</g>
				<g>
					<path class="st7" d="M56.7,166.6L44.3,168l-2-17.8c-0.4-3.3,2-6.3,5.3-6.6l0.6-0.1c3.3-0.4,6.3,2,6.6,5.3L56.7,166.6z"/>
					<path class="st5" d="M43.8,168.6l-2.1-18.3c-0.2-1.7,0.3-3.4,1.4-4.8c1.1-1.4,2.6-2.2,4.3-2.4L48,143c1.7-0.2,3.4,0.3,4.8,1.4
						c1.4,1.1,2.2,2.6,2.4,4.3l2.1,18.3L43.8,168.6z M48.8,144c-0.2,0-0.4,0-0.6,0l-0.6,0.1c-1.5,0.2-2.8,0.9-3.7,2
						c-0.9,1.1-1.3,2.6-1.2,4l1.9,17.3l11.5-1.3l-2-17.3c-0.2-1.5-0.9-2.8-2-3.7C51.2,144.4,50,144,48.8,144z"/>
				</g>
				<path class="st5" d="M65.2,157.4c-0.3,0-0.5-0.2-0.5-0.4c0-0.3,0.2-0.5,0.4-0.6l51.8-5.8c0.3,0,0.5,0.2,0.6,0.4
					c0,0.3-0.2,0.5-0.4,0.6L65.2,157.4C65.2,157.4,65.2,157.4,65.2,157.4z"/>
				<path class="st5" d="M67.2,175c-0.3,0-0.5-0.2-0.5-0.4c0-0.3,0.2-0.5,0.4-0.6l51.8-5.8c0.3,0,0.5,0.2,0.6,0.4
					c0,0.3-0.2,0.5-0.4,0.6L67.2,175C67.2,175,67.2,175,67.2,175z"/>
				<path class="st5" d="M66.2,166.1c-0.3,0-0.5-0.2-0.5-0.4c0-0.3,0.2-0.5,0.4-0.6l22.4-2.5c0.3,0,0.5,0.2,0.6,0.4
					c0,0.3-0.2,0.5-0.4,0.6L66.2,166.1C66.2,166.1,66.2,166.1,66.2,166.1z"/>
				<path class="st5" d="M94.4,162.9c-0.3,0-0.5-0.2-0.5-0.4c0-0.3,0.2-0.5,0.4-0.6l23.6-2.7c0.3,0,0.5,0.2,0.6,0.4
					c0,0.3-0.2,0.5-0.4,0.6L94.4,162.9C94.5,162.9,94.5,162.9,94.4,162.9z"/>
				<path class="st5" d="M68.3,185c-0.3,0-0.5-0.2-0.5-0.4c0-0.3,0.2-0.5,0.4-0.6l22.4-2.5c0.3,0,0.5,0.2,0.6,0.4
					c0,0.3-0.2,0.5-0.4,0.6L68.3,185C68.4,185,68.3,185,68.3,185z"/>
			</g>
		</g>
	</g>
</g>
</svg>
