<?xml version="1.0" encoding="utf-8"?>
<!-- Generator: Adobe Illustrator 23.0.0, SVG Export Plug-In . SVG Version: 6.00 Build 0)  -->
<svg version="1.1" id="Capa_1" xmlns="http://www.w3.org/2000/svg" xmlns:xlink="http://www.w3.org/1999/xlink" x="0px" y="0px"
	 viewBox="0 0 950 100" style="enable-background:new 0 0 950 100;" xml:space="preserve">
<style type="text/css">
	.st0{stroke:#000000;stroke-miterlimit:10;}
</style>
<g>
	<circle cx="62" cy="50" r="15.5"/>
	<path d="M62,35c8.3,0,15,6.7,15,15s-6.7,15-15,15s-15-6.7-15-15S53.7,35,62,35 M62,34c-8.8,0-16,7.2-16,16c0,8.8,7.2,16,16,16
		s16-7.2,16-16C78,41.2,70.8,34,62,34L62,34z"/>
</g>
<rect x="61.5" y="34.5" class="st0" width="748" height="31"/>
<g>
	<circle cx="810" cy="50" r="15.5"/>
	<path d="M810,35c8.3,0,15,6.7,15,15s-6.7,15-15,15s-15-6.7-15-15S801.7,35,810,35 M810,34c-8.8,0-16,7.2-16,16c0,8.8,7.2,16,16,16
		s16-7.2,16-16C826,41.2,818.8,34,810,34L810,34z"/>
</g>
<g>
	<circle cx="887" cy="50" r="15.5"/>
	<path d="M887,35c8.3,0,15,6.7,15,15s-6.7,15-15,15s-15-6.7-15-15S878.7,35,887,35 M887,34c-8.8,0-16,7.2-16,16c0,8.8,7.2,16,16,16
		s16-7.2,16-16C903,41.2,895.8,34,887,34L887,34z"/>
</g>
</svg>
