<?xml version="1.0" encoding="utf-8"?>
<!-- Generator: Adobe Illustrator 23.0.0, SVG Export Plug-In . SVG Version: 6.00 Build 0)  -->
<svg version="1.1" xmlns="http://www.w3.org/2000/svg" xmlns:xlink="http://www.w3.org/1999/xlink" x="0px" y="0px"
	 viewBox="0 0 599.7 411.6" style="enable-background:new 0 0 599.7 411.6;" xml:space="preserve">
<style type="text/css">
	.st0{opacity:0.47;fill:#A5DEF6;}
	.st1{opacity:0.3;}
	.st2{fill:#4385F4;}
	.st3{fill:none;stroke:#0254A9;stroke-width:0.7739;stroke-linecap:round;stroke-linejoin:round;stroke-miterlimit:10;}
	.st4{fill:none;stroke:#0254A9;stroke-width:1.8958;stroke-linecap:round;stroke-linejoin:round;stroke-miterlimit:10;}
	.st5{fill:none;stroke:#0254A9;stroke-width:1.7211;stroke-linecap:round;stroke-linejoin:round;stroke-miterlimit:10;}
	.st6{fill:none;stroke:#0254A9;stroke-width:2.7259;stroke-linecap:round;stroke-linejoin:round;stroke-miterlimit:10;}
	.st7{fill:none;stroke:#0254A9;stroke-width:3.2169;stroke-linecap:round;stroke-linejoin:round;stroke-miterlimit:10;}
	.st8{fill:none;stroke:#0254A9;stroke-width:1.9925;stroke-linecap:round;stroke-linejoin:round;stroke-miterlimit:10;}
	.st9{fill:none;stroke:#0254A9;stroke-width:2.4028;stroke-linecap:round;stroke-linejoin:round;stroke-miterlimit:10;}
	.st10{fill:#EE5F43;}
	.st11{fill:none;stroke:#363A69;stroke-width:1.2212;stroke-linecap:round;stroke-miterlimit:10;}
	.st12{fill:#3CA3A4;}
	.st13{fill:#F8AD26;}
	.st14{fill:none;stroke:#363A69;stroke-width:1.5407;stroke-linecap:round;stroke-miterlimit:10;}
	.st15{fill:none;stroke:#148B7A;stroke-width:0.4108;stroke-linecap:round;stroke-linejoin:round;stroke-miterlimit:10;}
	.st16{fill:none;stroke:#148B7A;stroke-width:0.5901;stroke-linecap:round;stroke-linejoin:round;stroke-miterlimit:10;}
	.st17{fill:none;stroke:#148B7A;stroke-width:0.423;stroke-linecap:round;stroke-linejoin:round;stroke-miterlimit:10;}
	.st18{fill:none;stroke:#148B7A;stroke-width:0.4344;stroke-linecap:round;stroke-linejoin:round;stroke-miterlimit:10;}
	.st19{fill:none;stroke:#148B7A;stroke-width:0.4427;stroke-linecap:round;stroke-linejoin:round;stroke-miterlimit:10;}
	.st20{fill:#EE5E43;}
	.st21{fill:#C4422B;}
	.st22{fill:#BEC6C4;}
	.st23{fill:#FEFEFE;}
	.st24{fill:none;stroke:#BACCC6;stroke-width:1.4277;stroke-linecap:round;stroke-linejoin:round;stroke-miterlimit:10;}
	.st25{fill:none;stroke:#BACCC6;stroke-width:2.0383;stroke-linecap:round;stroke-linejoin:round;stroke-miterlimit:10;}
	.st26{fill:#38AAE3;}
	.st27{fill:#0254A9;}
	.st28{fill:#FABB49;}
	.st29{fill:#D38309;}
	.st30{fill:#13B5A0;}
	.st31{fill:#148A77;}
	.st32{fill:#FAAE26;}
	.st33{fill:#BC6C56;}
	.st34{fill:#034C8A;}
	.st35{clip-path:url(#XMLID_59_);fill:#BC6C56;}
	.st36{clip-path:url(#XMLID_68_);fill:#C4422B;}
	.st37{fill:#282E5B;}
	.st38{fill:#D08B73;}
	.st39{clip-path:url(#XMLID_73_);fill:#282E5B;}
	.st40{clip-path:url(#XMLID_78_);fill:#282E5B;}
	.st41{opacity:0.5;clip-path:url(#XMLID_79_);fill:#BC6C56;}
	.st42{opacity:0.5;fill:#BC6C56;}
	.st43{opacity:0.5;clip-path:url(#XMLID_80_);fill:#BC6C56;}
	.st44{fill:#363A68;}
	.st45{fill:#346EC1;}
	.st46{fill:none;stroke:#034C8A;stroke-width:3.4431;stroke-linecap:round;stroke-linejoin:round;stroke-miterlimit:10;}
	.st47{fill:#034C8A;stroke:#034C8A;stroke-width:0.9735;stroke-linecap:round;stroke-linejoin:round;stroke-miterlimit:10;}
	.st48{clip-path:url(#XMLID_81_);fill:#034C8A;}
	.st49{clip-path:url(#XMLID_82_);fill:#BC6C56;}
	.st50{clip-path:url(#XMLID_83_);fill:#D38309;}
	.st51{fill:#FF6B6B;}
	.st52{clip-path:url(#XMLID_84_);fill:#D38309;}
	.st53{clip-path:url(#XMLID_85_);fill:#BC6C56;}
	
		.st54{clip-path:url(#XMLID_86_);fill:none;stroke:#282E5B;stroke-width:0.9297;stroke-linecap:round;stroke-linejoin:round;stroke-miterlimit:10;}
	.st55{clip-path:url(#XMLID_87_);fill:#BC6C56;}
	.st56{clip-path:url(#XMLID_88_);fill:#BC6C56;}
	.st57{opacity:0.5;}
	.st58{clip-path:url(#XMLID_89_);fill:#148A77;}
	.st59{clip-path:url(#XMLID_90_);fill:#BC6C56;}
	.st60{clip-path:url(#XMLID_91_);fill:#BC6C56;}
	.st61{fill:#12A189;}
	.st62{fill:none;stroke:#034C8A;stroke-width:3.0534;stroke-linecap:round;stroke-linejoin:round;stroke-miterlimit:10;}
	.st63{fill:#034C8A;stroke:#034C8A;stroke-width:1.0331;stroke-linecap:round;stroke-linejoin:round;stroke-miterlimit:10;}
	.st64{clip-path:url(#XMLID_92_);fill:#282E5B;}
	.st65{clip-path:url(#XMLID_93_);fill:#034C8A;}
	.st66{clip-path:url(#XMLID_93_);fill:none;stroke:#034C8A;stroke-width:0.9034;stroke-miterlimit:10;}
	.st67{clip-path:url(#XMLID_94_);fill:#BC6C56;}
	.st68{clip-path:url(#XMLID_95_);fill:#BC6C56;}
	.st69{opacity:0.5;clip-path:url(#XMLID_96_);fill:#BC6C56;}
	.st70{opacity:0.5;fill:#C4422B;}
	.st71{fill:#434E84;}
	.st72{fill:none;stroke:#434E84;stroke-width:4.287;stroke-linecap:round;stroke-linejoin:round;stroke-miterlimit:10;}
	.st73{display:none;}
	.st74{display:inline;}
	.st75{fill:#9EB7C7;}
</style>
<g id="BACKGROUND">
	<g>
		<path class="st0" d="M499.2,371.3c13.2-14.6,27.4-35.4,25.2-59c-2.2-23.6-20.9-29.8-26.5-54.9c-8.7-38.9,15.4-55.7,17.3-91.1
			c3.4-63.4-67.4-138.1-135.4-146c-41.1-4.8-46.8,18.8-98.2,15.9C218.2,32.7,207-4.2,162.1,0.4C110.8,5.6,57.3,60.6,57.2,110.6
			c-0.1,51.5,56.7,74.6,45.1,114.1c-7.6,26.1-37,24.7-53.1,55.7c-15.3,29.4,9.1,74.7,21.9,90.9C220,371.3,350.4,371.3,499.2,371.3z"
			/>
		<circle class="st0" cx="63.5" cy="26.1" r="19.7"/>
		<circle class="st0" cx="71.2" cy="212.2" r="19.7"/>
		
			<ellipse transform="matrix(0.7071 -0.7071 0.7071 0.7071 -9.1695 94.8816)" class="st0" cx="109.9" cy="58.5" rx="10.8" ry="10.8"/>
		<path class="st0" d="M508.9,239.8c0-6.3,5.1-11.5,11.5-11.5c6.3,0,11.5,5.1,11.5,11.5c0,6.3-5.1,11.5-11.5,11.5
			C514,251.2,508.9,246.1,508.9,239.8z"/>
		
			<ellipse transform="matrix(0.7071 -0.7071 0.7071 0.7071 3.618964e-02 428.2318)" class="st0" cx="516.9" cy="214.1" rx="8.1" ry="8.1"/>
		<ellipse transform="matrix(0.7071 -0.7071 0.7071 0.7071 -33.7301 57.1222)" class="st0" cx="52.1" cy="69.3" rx="8.3" ry="8.3"/>
		
			<ellipse transform="matrix(0.7071 -0.7071 0.7071 0.7071 66.0215 199.5408)" class="st0" cx="273.9" cy="20.1" rx="8.3" ry="8.3"/>
		
			<ellipse transform="matrix(0.1602 -0.9871 0.9871 0.1602 347.0822 464.6002)" class="st0" cx="446.6" cy="28.3" rx="8.3" ry="8.3"/>
		<g class="st1">
			<g>
				<path class="st2" d="M242.4,357.5c0.3-1.3,0.2-2.8,0-4.1c-0.3-1.3-0.8-2.5-1.5-3.6c-0.7-1.1-1.5-2-2.5-2.9
					c-0.5-0.4-1.1-0.8-1.6-1.1c-0.5-0.3-1.1-0.6-1.6-0.9c-2.2-1-4.3-1.4-6.1-1.7c-0.8-0.1-1.7-0.3-2.5-0.4c-0.8-0.1-1.7-0.2-2.5-0.3
					c-6.9-0.9-14.7-1.4-23.2-1.1c-14.4,0.5-33.4,3.2-33.4,6.4c0,3.2,18.6,6.4,33.4,7.1c8.5,0.4,16.2,0,23-0.9
					c1.7-0.2,3.4-0.4,4.8-0.7c1.4-0.2,2.7-0.4,3.8-0.3c0.6,0,1.1,0.1,1.6,0.3c0.5,0.2,1.1,0.4,1.5,0.7c0.9,0.6,1.7,1.6,1.9,2.8
					L242.4,357.5z"/>
				<path class="st3" d="M239.9,356.8c0-1.1-0.3-2.2-0.7-3.1c-0.4-0.9-1-1.7-1.7-2.3c-0.7-0.7-1.4-1.2-2.2-1.6
					c-0.8-0.4-1.6-0.7-2.4-0.9c-1.6-0.4-3.1-0.5-4.6-0.5l-4.3,0l-17-0.1l-34-0.2"/>
				<line class="st3" x1="188" y1="348.1" x2="184.5" y2="351.3"/>
				<line class="st3" x1="192" y1="348.1" x2="189.3" y2="343.9"/>
				<line class="st3" x1="200.7" y1="348.1" x2="198.2" y2="351.9"/>
				<line class="st3" x1="207" y1="348.2" x2="203.3" y2="343.7"/>
				<line class="st3" x1="214.1" y1="348.2" x2="210.3" y2="352.8"/>
				<line class="st3" x1="225.5" y1="348.3" x2="222.3" y2="345.2"/>
			</g>
			<g>
				<path class="st2" d="M276.4,372.2c-0.6-2.5-5.8-9-7.3-11.4c-1.6-2.6-3.5-4.7-5.4-6.5c-3.8-3.6-7.8-6.1-11.3-8.2
					c-3.2-1.9-6.6-3.9-10.2-5.8c-3.6-1.9-7.4-3.8-11.3-5.6c-2-0.9-4-1.8-6.1-2.7c-2.1-0.9-4.2-1.7-6.3-2.6c-2.2-0.9-4.3-1.7-6.6-2.5
					c-2.2-0.8-4.5-1.6-6.9-2.4c-9.3-3-19.3-5.6-29.9-7.6c-17.8-3.3-38.7-4.9-55.2-4c-16.5,0.8-28.3,3.7-28.6,7.5
					c-0.3,3.9,10.6,8.5,25.6,13.5c15,5,34.2,10.6,51.1,15.2c19.5,5.2,37.5,9.2,53.7,12.3c4.1,0.8,8,1.5,11.8,2.2
					c3.8,0.7,7.5,1.3,11,1.9c3.4,0.5,6.5,1.1,9.3,2.1c1.4,0.5,2.7,1.2,3.9,2c1.2,0.9,2.3,1.9,3.1,3.2L276.4,372.2z"/>
				<path class="st4" d="M266,369.6c-0.5-1.1-1-2.1-1.7-3.1c-0.3-0.5-0.7-0.9-1-1.4c-0.4-0.5-0.8-0.9-1.2-1.3
					c-1.6-1.7-3.4-3-5.1-4.1c-3.5-2.1-7-3.5-10.3-4.7c-6.6-2.4-13.1-4.7-19.8-6.9c-13.2-4.4-26.6-8.3-40.1-11.7
					c-26.9-6.8-54.2-11.6-81.5-14.5"/>
				<path class="st4" d="M141.3,326.9c-3.2,2.1-6.4,4.3-9.6,6.4"/>
				<path class="st4" d="M150.9,328.6c-1.5-3.8-3.1-7.6-4.7-11.3"/>
				<path class="st4" d="M171.8,332.9c-2.7,2.5-5.4,5.2-8,7.7"/>
				<path class="st4" d="M186.8,336.5c-2.1-4.2-4.2-8.5-6.4-12.8"/>
				<path class="st4" d="M203.5,341c-3.9,2.8-7.8,5.7-11.7,8.6"/>
				<path class="st4" d="M230.3,349.3c-1.6-3.2-3.3-6.4-5-9.6"/>
			</g>
			<g>
				<path class="st2" d="M357.8,368.9c9.9-4,21.8-8.9,35.4-14.6c13.6-5.7,28.8-12.1,45.5-19.5c14-6.2,30.6-13.2,44-19.1
					c13.3-5.8,23.4-10.7,22.8-14.2c-0.5-3.4-11.7-5.4-27-4.6c-1.9,0.1-3.9,0.2-5.9,0.4c-2,0.2-4.1,0.4-6.2,0.7
					c-4.2,0.5-8.6,1.3-13,2.1c-2.2,0.4-4.4,0.9-6.6,1.4c-2.2,0.5-4.4,1-6.6,1.6c-2.2,0.6-4.3,1.2-6.4,1.9c-1.1,0.3-2.1,0.6-3.1,1
					c-1,0.4-2.1,0.7-3.1,1.1c-2.3,0.8-4.6,1.7-6.9,2.5c-2.2,0.9-4.4,1.9-6.6,2.8c-1.1,0.5-2.1,1-3.2,1.4c-1,0.5-2.1,1-3.1,1.5
					c-2,1-4.1,2.1-6,3.1c-2,1.1-3.8,2.2-5.7,3.3c-1.9,1.1-3.7,2.2-5.4,3.3c-1.8,1.2-3.5,2.3-5.1,3.5c-0.8,0.6-1.7,1.2-2.5,1.7
					c-0.8,0.6-1.6,1.2-2.4,1.8c-12.5,9.4-22,19.2-28.9,27.6L357.8,368.9z"/>
				<path class="st5" d="M355.2,363.8c20-14.7,41.8-27.2,64.8-37.4c23-10.2,47.4-17.9,72.4-22.9"/>
				<path class="st5" d="M459.9,311.7c1.8-3,3.6-6.1,5.5-9.1"/>
				<polyline class="st5" points="451.3,314.4 455.7,317.9 459.9,321.5 				"/>
				<polyline class="st5" points="433,321 434.1,316 435.3,311.1 				"/>
				<path class="st5" d="M420,326.4c3.9,1.9,7.7,3.8,11.4,5.8"/>
				<path class="st5" d="M405.9,333c0.9-4.3,1.9-8.6,3-12.9"/>
				<path class="st5" d="M383.8,345c3.1,0.8,6.2,1.6,9.3,2.5"/>
			</g>
			<g>
				<path class="st2" d="M279.6,277.6c-8.6-15.1-23.8-41.6-38.9-61.2c-15-19.6-34.1-40.7-58.1-60.3c-2.5-2.1-5.2-4.1-7.8-6.1
					c-2.7-2-5.4-4.1-8.2-6.1c-2.8-2-5.7-4-8.6-5.9l-4.3-2.9c-1.5-0.9-3-1.8-4.4-2.8c-2.9-1.8-5.9-3.6-8.8-5.3
					c-2.9-1.7-5.9-3.3-8.8-4.9c-2.9-1.5-5.8-3.1-8.6-4.4c-2.9-1.3-5.7-2.6-8.4-3.8c-1.4-0.6-2.7-1.2-4-1.7c-0.7-0.3-1.3-0.6-2-0.8
					c-0.7-0.2-1.3-0.5-2-0.7c-2.6-1-5.1-1.8-7.5-2.6c-2.4-0.8-4.6-1.5-6.7-2c-2.2-0.5-4.2-0.9-6-1.3c-7.4-1.3-12.3-0.9-13.6,1.6
					c-1.3,2.4,0.8,6.9,5.3,12.4c1.1,1.4,2.4,2.8,3.8,4.4c1.4,1.6,2.9,3.3,4.5,5s3.4,3.5,5.2,5.3c1.8,1.9,3.7,3.8,5.7,5.8
					c2,2,4,4,6.2,6c2.1,2.1,4.2,4.2,6.4,6.4c4.5,4.2,8.9,8.9,13.7,13.3l1.8,1.7l1.7,1.7l3.5,3.4c2.3,2.3,4.7,4.5,7.1,6.8
					c2.3,2.3,4.7,4.6,7,6.8c1.2,1.1,2.3,2.2,3.5,3.3c1.1,1.1,2.3,2.2,3.4,3.3c2.6,2.5,5.2,4.9,7.8,7.3c2.6,2.4,5.1,4.8,7.7,7.2
					c1.3,1.2,2.6,2.3,3.8,3.5c1.3,1.2,2.5,2.3,3.8,3.5c2.5,2.3,5,4.5,7.6,6.7c5,4.4,9.9,8.6,14.8,12.7c4.8,4.1,9.7,7.9,14.4,11.7
					c18.8,14.9,36.2,26.9,50.8,36.2L279.6,277.6z"/>
				<path class="st6" d="M273.7,276.5c-27.3-29.1-60.5-60.3-89.8-87.5c-14.6-13.6-29.7-26.6-45.3-38.8
					c-15.6-12.2-31.8-23.5-48.6-33.6"/>
				<path class="st6" d="M132.8,145.8c-5.5,0.6-10.9,1.1-16.4,1.9"/>
				<path class="st6" d="M143.9,154.4l0.9-8.8c0.3-2.9,0.5-5.9,0.7-8.8"/>
				<polyline class="st6" points="167.4,174.1 159.7,176.2 152,178.4 				"/>
				<path class="st6" d="M183.9,189c0.3-6.8,0.6-13.7,0.7-20.5"/>
				<path class="st6" d="M201.9,206.1c-6.9,0.9-13.8,1.9-20.7,2.9"/>
				<path class="st6" d="M230.3,234.6c0-5.2,0.1-10.4,0-15.5"/>
			</g>
			<g>
				<path class="st2" d="M331.6,273.3c-2-20.7-5.8-46.1-13.3-74.5c-3.7-14.2-8.4-29.1-14.3-44.5c-2.9-7.7-6.1-15.5-9.7-23.5
					c-1.7-4-3.7-8-5.6-12c-2-4-4.1-8.1-6.2-12.2c-7.4-13.7-16.4-28.2-26.7-41.4C245.6,52,234,40,222.7,31c-2.7-2.3-5.6-4.3-8.3-6.2
					c-1.4-0.9-2.7-1.9-4-2.7c-1.4-0.8-2.7-1.6-4-2.4c-1.3-0.7-2.6-1.5-3.8-2.1c-0.6-0.3-1.2-0.7-1.8-1c-0.6-0.3-1.2-0.6-1.8-0.8
					c-2.4-1.1-4.7-2-6.7-2.8c-2-0.8-4-1.3-5.8-1.6c-1.8-0.3-3.3-0.5-4.7-0.5c-2.7,0-4.6,0.6-5.6,2c-0.9,1.3-1,3.4-0.3,5.9
					c0.3,1.3,0.9,2.6,1.6,4.1c0.3,0.7,0.7,1.5,1.1,2.3c0.4,0.8,0.8,1.7,1.3,2.6c0.9,1.8,2,3.6,3.2,5.6c1.1,2,2.3,4.2,3.7,6.4
					c1.4,2.2,2.7,4.6,4.1,7c0.7,1.2,1.5,2.4,2.2,3.7c0.7,1.3,1.5,2.6,2.2,4c6.1,10.7,12.5,23.1,18.8,36.4
					c6.3,13.2,12.4,27.3,18.3,40.8c1.7,3.9,3.4,7.7,5.1,11.5c1.7,3.8,3.4,7.6,5.1,11.3c3.4,7.5,6.9,14.8,10.3,21.8
					c6.9,14.1,13.9,27.4,20.7,39.7c13.7,24.7,26.8,45.7,38,62.7L331.6,273.3z"/>
				<path class="st7" d="M321,275c-15.4-44.8-32.8-88.8-52.1-131.8c-9.6-21.5-20.1-42.6-32.3-62.4c-6.1-9.9-12.7-19.4-19.9-28.3
					l-2.7-3.3l-1.3-1.7c-0.5-0.5-0.9-1.1-1.4-1.6l-5.7-6.4l-5.9-6.1c-1-1-2-2-3-2.9l-3.1-2.9"/>
				<path class="st7" d="M232.1,73.7c-3.1-0.8-6.3-1.5-9.5-2.1c-3.2-0.6-6.2-1.3-9.4-1.8"/>
				<path class="st7" d="M240.8,87.7c3.1-6.2,6.2-12.5,9-18.9"/>
				<path class="st7" d="M257.8,119.5c-6.2-0.8-12.5-1.5-18.7-2.2"/>
				<path class="st7" d="M268.9,143.2c3.5-7.3,6.8-14.6,10.1-22.1"/>
				<path class="st7" d="M280.7,170c-7.9-2.2-15.9-4.3-23.8-6.3"/>
				<path class="st7" d="M298.7,214c2.4-5.6,4.8-11.2,7.1-16.9"/>
			</g>
			<g>
				<path class="st2" d="M306.4,370.7c-7.8-10-28.1-33.5-40.3-46.3c-12.2-12.8-26.7-26.6-43.9-40.2c-28.9-22.9-70.5-49.7-75.9-43.5
					c-5.3,6.1,25.4,43.9,53.5,70c16.1,14.9,32.2,26.9,47.3,36.3c15,9.5,28.6,19.5,40.1,24.6L306.4,370.7z"/>
				<path class="st8" d="M297.6,368.9c-45.7-36-96.3-79.7-140.3-118.1"/>
				<line class="st8" x1="186.4" y1="276.1" x2="174.2" y2="276.5"/>
				<line class="st8" x1="194.2" y1="282.8" x2="196" y2="270"/>
				<line class="st8" x1="211.2" y1="297.5" x2="200" y2="300.7"/>
				<line class="st8" x1="223.6" y1="308" x2="223.7" y2="293.1"/>
				<line class="st8" x1="237.4" y1="319.7" x2="222.5" y2="322.7"/>
				<line class="st8" x1="260" y1="338.4" x2="258.9" y2="327.2"/>
			</g>
			<g>
				<path class="st2" d="M322.4,373c9.6-11.5,21.1-25.6,33.8-42.1c12.7-16.4,26.7-35,41.4-56.1c12.3-17.7,26.8-38.6,38-55.7
					c11.2-17.1,18.9-30.6,15.5-34.2c-3.3-3.5-17.6,2.9-34.8,15.4c-2.1,1.6-4.4,3.2-6.6,4.9c-2.2,1.7-4.4,3.6-6.7,5.4
					c-4.6,3.7-9.1,7.8-13.6,12.1c-2.3,2.1-4.5,4.3-6.7,6.5c-2.2,2.2-4.4,4.4-6.5,6.7c-2.1,2.3-4.2,4.6-6.2,6.9c-1,1.1-2,2.3-3,3.4
					c-1,1.2-1.9,2.3-2.9,3.5c-2.2,2.6-4.3,5.3-6.3,7.9c-2,2.7-3.9,5.3-5.8,8c-0.9,1.3-1.9,2.6-2.8,4c-0.9,1.3-1.8,2.7-2.6,4
					c-1.7,2.7-3.4,5.3-5,7.9c-1.6,2.6-3.1,5.3-4.5,7.9c-1.4,2.6-2.9,5.2-4.2,7.8c-1.3,2.6-2.6,5.2-3.8,7.7c-0.6,1.3-1.2,2.5-1.8,3.8
					c-0.6,1.3-1.1,2.5-1.7,3.8c-8.7,20-15.1,44.5-18.1,59.4L322.4,373z"/>
				<path class="st9" d="M313.7,371.7c15.1-31.3,35.2-64.7,55.6-93.4c20.4-28.7,43.2-55.8,68.4-80.9"/>
				<path class="st9" d="M405.9,231.6c-0.2-4.9-0.3-9.9-0.3-14.8"/>
				<polyline class="st9" points="397.8,241.1 405.5,242.1 413.2,243.2 				"/>
				<polyline class="st9" points="380.9,262.5 378.6,255.7 376.4,249 				"/>
				<path class="st9" d="M369.3,278.3c6-0.5,11.9-1,17.9-1.2"/>
				<path class="st9" d="M356.9,296.2c-1.9-5.8-3.7-11.7-5.5-17.6"/>
				<path class="st9" d="M338.4,326.1c4.4-1.1,8.7-2.3,13.1-3.3"/>
			</g>
		</g>
	</g>
</g>
<g id="OBJECTS">
	<g>
		<g>
			<path class="st10" d="M483.1,290.5c-0.1,0.1-0.2,0.1-0.3,0.2c-3.5,1.7-5.4,1.4-8.8-0.2c-3.2-1.5-6.2-3.2-8.8-5.5
				c-3.3-2.9-5.9-6.9-6.4-11.3c-0.1-1-0.1-2.1,0.5-2.9c0.8-1.1,2.4-1.3,3.7-0.8c1.3,0.5,2.3,1.5,3.3,2.4c0.4,0.4,0.9,0.8,1.4,0.9
				c0.6,0.2,1.2,0,1.5-0.5c0.5-0.8-0.3-1.7-1-2.3c-1.6-1.4-3.2-2.2-4.9-3.4c-2.2-1.5-4.2-3.4-5.4-5.7c-1.2-2.4-1.5-5.3-0.2-7.6
				c0.4-0.7,0.9-1.4,1.6-1.8c1.2-0.8,2.8-0.7,4.1-0.4c1.4,0.3,2.7,0.8,4.2,1c3.4,0.3,4.7-2,4.6-5.1c0-2.1-0.7-4.1-0.8-6.1
				c-0.2-3.6,1.6-7.5,4.9-9.1c3.3-1.6,7.9-0.1,9.1,3.4c1.3,3.7-1.6,8,0.3,11.5c0.6,1.2,2.1,2.8,3.2,3.5c1.8,1.1,4.5-0.2,6.6-0.1
				c0.5,0,1,0.1,1.3,0.4c0.2,0.3,0.3,0.6,0.4,1c0.5,2.6-0.4,5.4-2.4,7.2c-2.2,2-6.1,3-7,6.2c-0.6,2-0.3,6.9,2.8,6.4
				c1.2-0.2,2-1.3,3.1-1.7c1.4-0.5,3,0.5,3.6,1.8c0.6,1.3,0.4,2.9-0.1,4.3c-0.9,2.2-2.5,3.9-4.1,5.5
				C489.6,285.1,487.4,288.3,483.1,290.5z"/>
			<line class="st11" x1="478.4" y1="244.9" x2="478.4" y2="372.4"/>
			<polyline class="st11" points="487.3,258.1 478.4,266.9 469.6,258.1 			"/>
			<polyline class="st11" points="487.3,275.8 478.4,284.7 469.6,275.8 			"/>
		</g>
		<g>
			<path class="st12" d="M496.9,344.3c-0.1,0-0.2,0.1-0.3,0.1c-3.1,1.5-4.8,1.3-7.9-0.2c-2.8-1.3-5.6-2.9-7.9-4.9
				c-3-2.6-5.3-6.2-5.7-10.1c-0.1-0.9-0.1-1.8,0.4-2.6c0.7-1,2.2-1.1,3.3-0.7s2,1.3,2.9,2.1c0.4,0.3,0.8,0.7,1.3,0.8
				c0.5,0.1,1.1,0,1.4-0.5c0.4-0.7-0.3-1.5-0.9-2.1c-1.5-1.2-2.9-1.9-4.4-3c-1.9-1.4-3.7-3-4.8-5.2c-1.1-2.1-1.3-4.7-0.2-6.8
				c0.3-0.6,0.8-1.2,1.4-1.6c1.1-0.7,2.5-0.6,3.7-0.4c1.3,0.3,2.5,0.7,3.7,0.9c3,0.3,4.2-1.8,4.1-4.6c0-1.9-0.6-3.7-0.7-5.5
				c-0.2-3.3,1.4-6.7,4.4-8.1c3-1.4,7.1-0.1,8.1,3c1.1,3.4-1.5,7.1,0.3,10.3c0.6,1,1.8,2.5,2.8,3.1c1.6,1,4-0.2,5.9-0.1
				c0.4,0,0.9,0.1,1.2,0.4c0.2,0.2,0.3,0.5,0.4,0.9c0.5,2.3-0.4,4.9-2.2,6.5c-2,1.8-5.4,2.7-6.3,5.6c-0.5,1.8-0.3,6.1,2.5,5.7
				c1.1-0.2,1.8-1.2,2.8-1.5c1.2-0.4,2.7,0.4,3.2,1.6c0.6,1.2,0.4,2.6-0.1,3.8c-0.8,1.9-2.2,3.5-3.7,5
				C502.7,339.5,500.8,342.4,496.9,344.3z"/>
			<line class="st11" x1="492.7" y1="303.5" x2="492.7" y2="371.6"/>
			<polyline class="st11" points="500.6,315.3 492.7,323.2 484.8,315.3 			"/>
			<polyline class="st11" points="500.6,331.2 492.7,339.1 484.8,331.2 			"/>
		</g>
		<g>
			<path class="st13" d="M42,358.2c-0.1,0.1-0.3,0.1-0.4,0.2c-4.2,2-6.4,1.7-10.5-0.2c-3.8-1.7-7.4-3.8-10.5-6.5
				c-3.9-3.5-7-8.2-7.6-13.4c-0.1-1.2-0.1-2.5,0.6-3.4c1-1.3,2.9-1.5,4.4-0.9c1.5,0.6,2.7,1.8,3.9,2.8c0.5,0.5,1.1,0.9,1.7,1.1
				c0.7,0.2,1.5,0,1.8-0.6c0.5-1-0.4-2.1-1.2-2.8c-2-1.6-3.8-2.6-5.8-4c-2.6-1.8-5-4-6.4-6.8c-1.4-2.8-1.7-6.3-0.3-9.1
				c0.4-0.8,1.1-1.6,1.9-2.1c1.4-0.9,3.3-0.9,4.9-0.5c1.7,0.4,3.3,1,5,1.2c4,0.4,5.6-2.4,5.5-6.1c-0.1-2.5-0.9-4.9-1-7.3
				c-0.3-4.3,1.9-9,5.8-10.8c3.9-1.9,9.4-0.1,10.8,4c1.5,4.5-2,9.5,0.3,13.8c0.8,1.4,2.5,3.3,3.8,4.1c2.2,1.4,5.3-0.2,7.9-0.1
				c0.6,0,1.2,0.1,1.6,0.5c0.3,0.3,0.4,0.7,0.5,1.1c0.6,3.1-0.5,6.5-2.9,8.6c-2.6,2.4-7.2,3.6-8.3,7.4c-0.7,2.3-0.4,8.2,3.3,7.6
				c1.4-0.2,2.3-1.6,3.7-2.1c1.7-0.6,3.6,0.5,4.3,2.1c0.7,1.6,0.5,3.5-0.1,5.1c-1,2.6-3,4.6-4.9,6.6C49.8,351.8,47.2,355.7,42,358.2
				z"/>
			<line class="st14" x1="36.5" y1="303.9" x2="36.5" y2="372.6"/>
			<polyline class="st14" points="47,319.6 36.5,330.1 25.9,319.6 			"/>
			<polyline class="st14" points="47,340.8 36.5,351.3 25.9,340.8 			"/>
		</g>
		<g>
			<g>
				<path class="st12" d="M553.5,326.9c-2.3-1.6-5.2-3.2-8.9-4.5c-3.6-1.4-7.9-2.5-12.9-3.4c-8.3-1.6-20.3-2.4-20.3-4.2
					c0-0.8,2.9-1.8,7-2.5c4.1-0.7,9.6-1,14.5-0.4c5.6,0.7,10.6,2.6,14.4,5c3.8,2.5,6.4,5.5,7.9,8.1L553.5,326.9z"/>
				<path class="st15" d="M554.3,325.9c-4.6-5-11.2-8.1-18-9.6c-6.9-1.6-14.1-1.7-21.2-1.5"/>
				<line class="st15" x1="524.5" y1="314.8" x2="522.4" y2="313"/>
				<path class="st15" d="M527,314.9c-0.6,0.7-1.3,1.4-1.9,2.1"/>
				<path class="st15" d="M532.5,315.5c-0.4-0.7-0.8-1.5-1.3-2.2"/>
				<path class="st15" d="M536.3,316.2c-1,0.6-1.9,1.2-2.8,1.8"/>
				<path class="st15" d="M540.5,317.4c-0.4-1-0.9-2-1.5-3"/>
				<path class="st15" d="M547,320.2c-0.8,0.2-1.6,0.4-2.4,0.6"/>
			</g>
			<g>
				<path class="st12" d="M558.2,327.8c-2.1-1.4-4.1-3.3-6.1-5.4c-1.9-2.1-3.8-4.4-5.6-6.7c-1.9-2.3-3.7-4.4-5.9-6.5
					c-2.2-2.1-4.8-4.2-7.6-6.2c-4.8-3.5-11-7-16.2-9.7c-5.1-2.7-9-4.9-8.6-6.1c0.3-1.1,4.8-1.3,10.9-0.2c3,0.6,6.5,1.4,9.9,2.7
					c3.5,1.3,6.9,2.9,10,4.9c3.5,2.2,6.6,4.8,9.1,7.7c2.5,2.8,4.5,5.9,5.9,8.7c1.4,2.8,2.5,5.4,3.5,7.7c1.1,2.3,2.1,4.4,3.3,6.3
					L558.2,327.8z"/>
				<path class="st16" d="M559.3,326.2c-3.8-3.9-6.3-8.4-9-12.6c-0.7-1.1-1.4-2.1-2.1-3.1c-0.7-1-1.5-2-2.3-2.9
					c-1.7-1.9-3.4-3.7-5.4-5.3c-3.9-3.2-8.3-5.9-12.9-8.2c-4.6-2.2-9.4-4-14.4-5.5"/>
				<path class="st16" d="M525.9,293.3c-0.6-1.2-1.2-2.3-1.9-3.5"/>
				<path class="st16" d="M529.1,294.9c-1.2,0.6-2.4,1.2-3.6,1.8"/>
				<path class="st16" d="M535.9,298.9c-0.1-1.2-0.2-2.4-0.3-3.6"/>
				<path class="st16" d="M540.5,302.3c-1.6,0.1-3.2,0.4-4.7,0.6"/>
				<path class="st16" d="M545,306.6c0.2-1.6,0.2-3.2,0.2-4.8"/>
				<path class="st16" d="M551,314.7c-1.2-0.4-2.3-0.7-3.5-1.1"/>
			</g>
			<g>
				<path class="st12" d="M555.8,324.5c-1-6.2-2.3-15-3.1-25.7c-0.3-4.5-0.7-9.8-0.9-14c-0.2-4.2-0.1-7.3,0.8-7.5
					c0.8-0.2,2.4,2.6,3.9,6.7c1.5,4.1,2.8,9.4,3.5,14.2c1.6,11.1,0.1,20.3-1.5,26.2L555.8,324.5z"/>
				<path class="st17" d="M557.2,324.4c0.6-14.4-0.6-29-3.7-43.3"/>
				<line class="st17" x1="555.3" y1="290.5" x2="556.6" y2="288"/>
				<path class="st17" d="M555.6,293.1c-0.8-0.5-1.7-1-2.5-1.4"/>
				<line class="st17" x1="556.3" y1="298.6" x2="558.2" y2="296.8"/>
				<path class="st17" d="M556.7,302.7c-0.9-0.7-1.7-1.5-2.6-2.2"/>
				<line class="st17" x1="557" y1="307.2" x2="559.4" y2="304.7"/>
				<line class="st17" x1="557.3" y1="314.4" x2="555.6" y2="312.5"/>
			</g>
			<g>
				<path class="st12" d="M559,326.4c0.3-6.5,1.4-15.9,4.9-26.7c2.9-9,8.1-20.5,9.8-19.9c1.7,0.6-0.3,12.8-2.6,22.2
					c-2.7,10.8-6.5,19.3-9.4,24.9L559,326.4z"/>
				<path class="st18" d="M560.4,326.5c3.8-14.5,7.9-28.8,12.3-43.1"/>
				<line class="st18" x1="569.8" y1="292.8" x2="572.2" y2="291.2"/>
				<line class="st18" x1="569.1" y1="295.4" x2="567.3" y2="292.9"/>
				<line class="st18" x1="567.5" y1="300.9" x2="569.9" y2="299.9"/>
				<line class="st18" x1="566.3" y1="304.9" x2="564.6" y2="301.8"/>
				<line class="st18" x1="565.1" y1="309.3" x2="568.2" y2="307.8"/>
				<line class="st18" x1="563.1" y1="316.6" x2="561.9" y2="314.1"/>
			</g>
			<g>
				<path class="st12" d="M553.2,331c1.7-3.3,4.9-6.8,8.9-9.7c3.9-2.9,8.9-5.6,14.6-7.4c2.4-0.8,5.1-1.4,7.7-1.8s5.2-0.5,7.4-0.6
					c2.2-0.1,4-0.2,5.4-0.4c1.4-0.2,2.3-0.4,2.6,0c0.2,0.4-0.3,1.3-1.5,2.4c-1.3,1.1-3.3,2.1-5.5,2.9c-2.2,0.8-4.5,1.5-6.8,2.3
					c-2.3,0.8-4.7,1.7-6.9,2.5c-5,2-9.6,3.9-13.6,5.7c-4,1.8-7.4,3.6-9.9,5.7L553.2,331z"/>
				<path class="st19" d="M554.5,331.7c2.5-3.2,5.8-5.5,9.1-7.5c3.3-2,6.7-3.7,10.2-5.1c3.5-1.5,7.1-2.6,10.8-3.5
					c1.8-0.5,3.7-0.8,5.5-1.1c1.9-0.3,3.8-0.6,5.7-1.3"/>
				<path class="st19" d="M585.9,315.2c0.9,0.4,1.7,0.9,2.6,1.3"/>
				<path class="st19" d="M583.3,315.8c0.4-0.9,0.8-1.9,1.2-2.8"/>
				<path class="st19" d="M577.8,317.5c0.8,0.5,1.5,1,2.2,1.5"/>
				<path class="st19" d="M573.8,319c0.5-1.1,1-2.2,1.5-3.3"/>
				<path class="st19" d="M569.5,321c1.1,0.4,2.2,0.9,3.3,1.4"/>
				<path class="st19" d="M562.7,324.7c0.3-0.9,0.6-1.8,1-2.6"/>
			</g>
			<path class="st20" d="M557.1,372.6h-5.1c-8.9,0-16.2-7.3-16.2-16.2v-27.3c0-3.9,3.1-7,7-7h25.9c4.1,0,7.4,3.3,7.4,7.4v24.1
				C576.1,364.1,567.5,372.6,557.1,372.6z"/>
			<path class="st21" d="M542.3,359.3v-31.5c0-3.2,2.6-5.7,5.7-5.7h-6.6c-3.2,0-5.7,2.6-5.7,5.7v31.5c0,7.3,5.9,13.3,13.3,13.3h6.6
				C548.2,372.6,542.3,366.7,542.3,359.3z"/>
			<path class="st20" d="M577.1,329.5h-43.2c-1.7,0-3-1.3-3-3v-3.2c0-1.7,1.3-3,3-3h43.2c1.7,0,3,1.3,3,3v3.2
				C580.1,328.1,578.7,329.5,577.1,329.5z"/>
		</g>
		<g>
			<path class="st22" d="M455.4,222.5H327.1c-4.6,0-8.3-3.7-8.3-8.3v-87.7c0-4.6,3.7-8.3,8.3-8.3h128.4c4.6,0,8.3,3.7,8.3,8.3v87.7
				C463.7,218.8,460,222.5,455.4,222.5z"/>
			<path class="st23" d="M452.1,220.2H330.4c-4.6,0-8.3-3.7-8.3-8.3v-83.1c0-4.6,3.7-8.3,8.3-8.3h121.7c4.6,0,8.3,3.7,8.3,8.3V212
				C460.4,216.5,456.7,220.2,452.1,220.2z"/>
			<g>
				<line class="st24" x1="382.3" y1="194.2" x2="409.7" y2="194.2"/>
				<line class="st24" x1="382.3" y1="198.2" x2="409.7" y2="198.2"/>
				<line class="st24" x1="382.3" y1="202.2" x2="409.7" y2="202.2"/>
				<line class="st24" x1="382.3" y1="206.1" x2="409.7" y2="206.1"/>
				<line class="st24" x1="382.3" y1="210.1" x2="393" y2="210.1"/>
			</g>
			<g>
				<line class="st25" x1="359.4" y1="139.8" x2="398.5" y2="139.8"/>
				<line class="st25" x1="359.4" y1="145.4" x2="398.5" y2="145.4"/>
				<line class="st25" x1="359.4" y1="151.1" x2="398.5" y2="151.1"/>
				<line class="st25" x1="359.4" y1="156.8" x2="398.5" y2="156.8"/>
				<line class="st25" x1="359.4" y1="162.5" x2="374.6" y2="162.5"/>
			</g>
			<g>
				<path class="st26" d="M416.6,152.6h3.7c0.1-0.3,0.1-0.7,0.1-1.1v-8.2h-9.6v13.2h4.5c0.4,0,0.8-0.1,1.2-0.2V152.6z"/>
				<path class="st27" d="M416.6,156.4c1.8-0.5,3.3-1.9,3.7-3.8h-3.7V156.4z"/>
			</g>
			<g>
				<path class="st28" d="M433.3,190.1h7.9c0.2-0.7,0.3-1.5,0.3-2.3v-17.5h-20.5v28.3h9.8c0.9,0,1.8-0.1,2.7-0.3V190.1z"/>
				<path class="st29" d="M433.3,198.3c3.9-1,7-4.1,7.9-8.1h-7.9V198.3z"/>
			</g>
			<g>
				<path class="st28" d="M439.4,149.1h7.9c0.2-0.7,0.3-1.5,0.3-2.3v-17.5H427v28.3h9.8c0.9,0,1.8-0.1,2.7-0.3V149.1z"/>
				<path class="st29" d="M439.4,157.2c3.9-1,7-4.1,7.9-8.1h-7.9V157.2z"/>
			</g>
		</g>
		<g>
			<g>
				<path class="st30" d="M557.5,122.5h-55.8l-15,9.7V90.8c0-8.3,7.7-15,17.3-15h53.6c9.5,0,17.3,6.7,17.3,15v16.6
					C574.8,115.7,567.1,122.5,557.5,122.5z"/>
				<path class="st31" d="M556.1,92.3h-51.9c-0.8,0-1.4-0.6-1.4-1.4v-2.3c0-0.8,0.6-1.4,1.4-1.4h51.9c0.8,0,1.4,0.6,1.4,1.4v2.3
					C557.5,91.7,556.9,92.3,556.1,92.3z"/>
				<path class="st31" d="M556.1,101.6h-51.9c-0.8,0-1.4-0.6-1.4-1.4v-2.3c0-0.8,0.6-1.4,1.4-1.4h51.9c0.8,0,1.4,0.6,1.4,1.4v2.3
					C557.5,101,556.9,101.6,556.1,101.6z"/>
				<path class="st31" d="M534.2,110.9h-30.1c-0.8,0-1.4-0.6-1.4-1.4v-2.3c0-0.8,0.6-1.4,1.4-1.4h30.1c0.8,0,1.4,0.6,1.4,1.4v2.3
					C535.7,110.3,535,110.9,534.2,110.9z"/>
			</g>
			<g>
				<path class="st30" d="M103.7,138.8h30.9l16.9,11v-46.6c0-9.4-8.7-16.9-19.4-16.9h-28.4c-10.7,0-19.4,7.6-19.4,16.9v18.7
					C84.3,131.2,93,138.8,103.7,138.8z"/>
				<path class="st23" d="M117.8,128.6c-2.5,0-4.2-1.9-4.2-4.4c0-2.6,1.8-4.4,4.3-4.4c2.5,0,4.2,1.8,4.3,4.4
					C122.2,126.7,120.5,128.6,117.8,128.6L117.8,128.6z M115.2,117.5l-1.1-21.7h7.6l-1.1,21.7H115.2z"/>
			</g>
			<g>
				<path class="st2" d="M368.2,104.5h-30.9l-16.9,11V68.9c0-9.4,8.7-16.9,19.4-16.9h28.4c10.7,0,19.4,7.6,19.4,16.9v18.7
					C387.6,96.9,378.9,104.5,368.2,104.5z"/>
				<path class="st23" d="M338.7,93.8c0-0.1,0-0.2,0-0.2c0.9-1.8-0.6-2.7-1.5-3.9c-0.1-0.2-0.4-0.2-0.6-0.2c-0.3,0-0.6,0.1-0.9,0.1
					c-1.1,0.1-1.1,0.1-1.6-0.9c-0.4-0.8-0.6-1.6-0.8-2.5c-0.1-0.4-0.1-0.7,0.3-0.9c1.4-0.5,1.6-1.6,1.6-2.9c0-0.9-0.2-1.4-0.9-1.8
					c-0.2-0.1-0.4-0.3-0.6-0.5c-0.3-0.2-0.3-0.4-0.2-0.7c0.4-1.1,0.8-2.2,1.5-3.1c0.2-0.3,0.4-0.4,0.7-0.3c1.4,0.6,2.4,0,3.4-1
					c0.5-0.5,0.7-0.9,0.6-1.6c-0.2-1.4-0.2-1.4,1.2-2c0.7-0.3,1.4-0.5,2.2-0.7c0.4-0.1,0.7,0,0.8,0.3c0.5,1.1,1.3,1.6,2.7,1.6
					c1,0,1.7-0.1,2.2-1c0.6-0.9,0.7-0.8,1.7-0.5c0.8,0.3,1.5,0.7,2.3,1.1c0.5,0.3,0.7,0.6,0.5,1c-0.4,1.1-0.1,1.9,0.7,2.8
					c0.8,0.9,1.5,1.2,2.6,0.9c0.6-0.2,0.9,0.1,1.1,0.6c0.4,0.9,0.8,1.9,1,2.9c0.1,0.4,0.1,0.6-0.3,0.8c-1.4,0.5-1.7,1.6-1.7,3
					c0,0.8,0.1,1.3,0.8,1.7c0.2,0.1,0.4,0.3,0.6,0.5c0.3,0.2,0.4,0.4,0.2,0.7c-0.4,1.1-0.8,2.1-1.4,3.1c-0.2,0.3-0.5,0.4-0.8,0.3
					c-1.3-0.5-2.2,0-3.2,0.9c-0.9,0.8-0.8,1.5-0.7,2.4c0.1,0.6-0.1,0.9-0.6,1.1c-0.9,0.4-1.9,0.8-2.9,1c-0.4,0.1-0.7,0.1-0.8-0.3
					c-0.6-1.4-1.6-1.6-3-1.7c-1.1-0.1-1.4,0.5-1.9,1.1c-0.6,0.8-0.6,0.8-1.5,0.4c-0.9-0.3-1.8-0.7-2.6-1.2
					C338.8,94.2,338.6,94.1,338.7,93.8z M346,77c-3.6,0-6.4,2.8-6.4,6.4c0,3.6,2.8,6.4,6.4,6.4c3.6,0,6.4-2.8,6.4-6.4
					C352.4,79.8,349.6,77,346,77z"/>
				<path class="st23" d="M359.6,78.5c0-0.1,0-0.1,0-0.1c0.7-1.4-0.4-2-1.1-2.9c-0.1-0.1-0.3-0.1-0.4-0.1c-0.2,0-0.4,0.1-0.6,0.1
					c-0.8,0.1-0.9,0.1-1.2-0.7c-0.3-0.6-0.5-1.2-0.6-1.8c-0.1-0.3,0-0.5,0.2-0.7c1-0.4,1.2-1.2,1.2-2.2c0-0.7-0.1-1-0.7-1.4
					c-0.2-0.1-0.3-0.2-0.4-0.3c-0.2-0.1-0.2-0.3-0.2-0.5c0.3-0.8,0.6-1.6,1.1-2.4c0.1-0.2,0.3-0.3,0.5-0.2c1.1,0.4,1.8,0,2.5-0.8
					c0.4-0.4,0.6-0.7,0.5-1.2c-0.2-1.1-0.1-1.1,0.9-1.5c0.5-0.2,1.1-0.4,1.6-0.5c0.3-0.1,0.5,0,0.6,0.2c0.4,0.9,1,1.2,2,1.2
					c0.7,0,1.2-0.1,1.7-0.7c0.4-0.7,0.5-0.6,1.3-0.3c0.6,0.2,1.2,0.5,1.7,0.8c0.3,0.2,0.5,0.4,0.4,0.8c-0.3,0.8-0.1,1.4,0.5,2.1
					c0.6,0.7,1.1,0.9,1.9,0.7c0.5-0.1,0.7,0.1,0.9,0.5c0.3,0.7,0.6,1.4,0.8,2.1c0.1,0.3,0,0.5-0.2,0.6c-1.1,0.4-1.2,1.2-1.2,2.3
					c0,0.6,0.1,1,0.6,1.3c0.2,0.1,0.3,0.2,0.4,0.3c0.2,0.1,0.3,0.3,0.2,0.6c-0.3,0.8-0.6,1.6-1.1,2.3c-0.1,0.2-0.3,0.3-0.6,0.2
					c-1-0.4-1.6,0-2.4,0.7c-0.7,0.6-0.6,1.1-0.5,1.8c0.1,0.4-0.1,0.7-0.5,0.8c-0.7,0.3-1.4,0.6-2.1,0.8c-0.3,0.1-0.5,0-0.6-0.2
					c-0.4-1-1.2-1.2-2.2-1.2c-0.8,0-1.1,0.3-1.4,0.8c-0.5,0.6-0.5,0.6-1.2,0.3c-0.7-0.2-1.3-0.6-1.9-0.9
					C359.7,78.8,359.5,78.7,359.6,78.5z M365.1,65.9c-2.7,0-4.8,2.1-4.8,4.8c0,2.7,2.1,4.8,4.8,4.8c2.7,0,4.8-2.1,4.8-4.8
					C369.9,67.9,367.8,65.9,365.1,65.9z"/>
			</g>
			<g>
				<path class="st2" d="M266,156.5H235l-16.9,11v-46.6c0-9.4,8.7-16.9,19.4-16.9H266c10.7,0,19.4,7.6,19.4,16.9v18.7
					C285.4,148.9,276.7,156.5,266,156.5z"/>
				<polygon class="st32" points="251.8,112.9 257,123.4 268.6,125.1 260.2,133.3 262.2,144.9 251.8,139.4 241.4,144.9 243.4,133.3 
					235,125.1 246.6,123.4 				"/>
			</g>
		</g>
		<g>
			<g>
				<g>
					<path class="st33" d="M170.1,206.1c0.8-0.9,1.2-1.9,1.3-3.2c0-0.9-0.1-1.9-0.6-2.7c-0.5-0.9-1.3-1.6-2.2-2.1
						c-0.9-0.5-1.9-0.6-3-0.5c-1.5,0.2-3,0.8-4.2,1.7c-0.8,0.6-1.4,1.5-1.8,2.5c-0.5,1.5-0.7,3.2-0.3,4.7c0.2,0.8,0.5,1.5,0.8,2.2
						c0.5,1,0.9,2,1.5,3c1,1.9,2.1,3.8,3.2,5.6c0.5,0.8,1,1.6,1.4,2.5c0.3,0.8,0.6,1.6,1,2.2c0.3,0.5,0.7,0.8,1.1,1.1
						c0.8,0.4,1.7,0.8,2.5,1.3c1.8,1.1,3.5,2.3,5.4,3.3c2,1,3.5,1.5,5.4,2.2c2.2,0.7,4.3,1.1,5.9,1.4c1.2,0.2,2.4,0.4,4,0.6
						c2,0.2,3.7,0.2,4.9,0.1c2.7-1.3,5.3-2.5,8-3.8c0.1-1.2,0.3-2.4,0.4-3.7c-0.9-1.2-1.7-2.4-2.6-3.6c-0.6-0.1-1.3-0.3-1.9-0.4
						c-2,1-4,2-6,2.9c-0.6,0.8-1.1,1.5-1.7,2.3c-0.9,0.1-1.9,0.1-2.8,0.2c-2.4-1.3-4.2-2.5-5.3-3.4c-1.7-1.3-2.8-2.3-4.9-3.6
						c-1.5-1-2.4-1.4-2.4-1.4c-0.8-0.4-1.7-0.8-2.5-1.4c-1-0.8-1.5-1.9-2-3.1c-0.4-1.1-0.8-2.1-1.2-3.2c-0.4-1-0.8-1.9-1.2-2.9
						c-0.6-1.5-1.5-3.4-2.6-5.6L170.1,206.1z"/>
					<path class="st34" d="M185.8,367.2c-1.2-0.5-2.7-0.3-4-0.4c-1.8-0.1-3.5-0.7-5.1-1.5c-1.7-0.8-3.3-1.9-4.8-3
						c-0.7-0.6-1.5-1.1-2.2-1.8c-0.2-0.2-0.5-0.5-0.8-0.6c-0.1,0-0.3,0-0.4-0.1c0.5-0.3,0.2-0.9,0.1-1.4c-0.3-1-0.7-2-1-3
						c-0.2-0.7-0.2-1.5-0.4-2.2c-0.2-1.1-1-2.1-0.9-3.3c0-0.3,0.1-0.6,0-0.8c-0.1-0.3-0.4-0.5-0.5-0.8c-0.1-0.5,0-1.1,0-1.6
						c0-1.2-0.1-2.3-0.1-3.5c-0.1-2.1-0.1-4.1-0.1-6.2c0.1-2,0.2-3.9,0.4-5.9c0.3-2.3,0.5-4.6,0.6-7c0-0.9,0.1-1.8,0.3-2.8
						c0.2-0.9,0.1-1.8,0.2-2.7c0-0.7,0.2-1.3,0.4-2c0.3-0.9,0.5-1.8,0.8-2.7c0.2-0.7,0.6-1.3,0.9-2c0.4-0.8,0.6-1.7,0.8-2.5
						c0.4-2.1,0.4-4.1,0.4-6.2c0.1-1.9,0.5-3.9,1-5.8c0.5-2.3,1.2-4.6,1.8-6.8c0.5-1.9,1-3.8,1.4-5.7c0.4-2,0.8-3.9,1.1-5.9
						c0.3-2.3,0.6-4.6,0.8-6.8c0.1-1,0.1-2.1,0.2-3.1c0.1-0.9,0.3-1.8,0.4-2.6c0.1-0.8-0.1-1.6-0.1-2.5c0-1,0.3-2,0.6-2.9
						c0.2-0.5,0.4-1,0.6-1.5c0.3-0.5,0.6-0.9,0.7-1.4c0.2-1,0.4-2,0.6-3c0.1-1,0.2-1.9,0.2-2.9l-24.3-7.3c-0.7,0.8-1.3,1.6-1.9,2.4
						c-1.3,1.8-2.5,3.6-3.3,5.6c-0.8,2-1.1,4.1-1,6.2c0.1,2.3,0.7,4.6,1.4,6.8c0.3,1.1,0.7,2.3,1.1,3.4c0.3,0.9,0.5,1.8,1,2.6
						c0.2,0.4,0.6,0.6,0.8,1c0.1,0.3,0.1,0.6,0.1,0.8c0,1.5,0.8,2.8,1,4.2c0.1,0.5-0.1,1-0.2,1.5c-0.1,0.5,0.1,1.1,0.2,1.6
						c0.1,0.9,0.1,1.9,0.1,2.9c0,1.3,0,2.5,0,3.8c0,2.3,0,4.7,0.1,7c0.1,1.4,0.1,2.9,0.2,4.3c0,0.9,0,1.9-0.2,2.8
						c-0.1,0.8-0.3,1.5-0.3,2.2c0,0.6,0,1.2-0.2,1.8c-0.2,0.7-0.4,1.5-0.4,2.3c0,0.6,0.2,1.1,0.3,1.6c0.1,0.7,0,1.3-0.1,2
						c0,1.1,0,2.2-0.1,3.3c-0.2,2.3-0.6,4.6-0.8,6.9c-0.2,2.4-0.4,4.7-0.4,7.1c0,2.3,0.2,4.7,0.6,7c0.3,2.3,0.8,4.6,1.1,7
						c0.3,2.6,0.4,5.2,0.6,7.8c0.1,2.2,0.5,4.4,0.7,6.6c0.1,1.2,0.1,2.4,0.2,3.6c0,0.6,0,1.2,0.3,1.8c-0.5,0.1-0.6,0.6-0.8,1
						c-0.6,1.8-0.7,3.8-0.9,5.6c-0.1,0.8-0.1,1.7,0,2.5c0,0.2,0.1,0.5,0.2,0.6c0.4,0.6,1.4,0.7,2,0.7c1.6,0.2,3.1,0.2,4.7,0.2
						c2.7,0,5.5,0,8.2,0c3.8,0,7.7,0.1,11.6-0.3c1.7-0.2,3.5-0.5,5.1-1.3c0.6-0.3,1.1-0.6,1.1-1.3
						C187.7,369.4,187.3,367.8,185.8,367.2z"/>
					<g>
						<defs>
							<path id="XMLID_63_" d="M175.7,164.5c0.1,0.5,0.2,1,0.3,1.5c0.2,1.1,0.2,2.2,0.2,3.3c0,1-0.3,2-0.2,3.1
								c0,0.6,0.4,1.1,0.7,1.7c0.4,0.8,1,1.7,1.3,2.6c0.1,0.5,0.2,1.1-0.3,1.3c-0.6,0.2-1.7-0.1-1.9,0.7c-0.1,0.4,0,0.9-0.1,1.3
								c-0.1,0.3-0.3,0.3-0.5,0.5c-0.2,0.2-0.3,0.4-0.3,0.6c0,0.5,0,1-0.2,1.4c-0.2,0.4-0.5,0.6-0.7,1c-0.2,0.3-0.2,0.7-0.2,1
								c0,1,0,2.2-1.2,2.4c-0.7,0.2-1.5,0-2.2-0.1c-0.9-0.1-1.9-0.3-2.8-0.2c-0.4,0.1-0.8,0.3-1.1,0.6c-0.5,0.6-1,1.3-1.2,2.1
								c0,0,0.6,4.1,1.4,5.8c0.8,1.7-2.5,2.4-2.5,2.4l-8.7-4l-3.1-4.8l2-5.3c0.3-0.8,0.5-1.7,0.6-2.6l0.4-17.4l11.7-4.2L175.7,164.5
								L175.7,164.5z"/>
						</defs>
						<use xlink:href="#XMLID_63_"  style="overflow:visible;fill:#D08B73;"/>
						<clipPath id="XMLID_59_">
							<use xlink:href="#XMLID_63_"  style="overflow:visible;"/>
						</clipPath>
						<path class="st35" d="M168.3,186.9c0,0-5.1-2.3-6.5-6.9c0.1,3.7,4.4,9.7,4.4,9.7L168.3,186.9z"/>
					</g>
					<path class="st26" d="M174.1,252.4c0,1-0.1,1.9-0.2,2.9c-0.1,1-0.3,2-0.6,3c-0.1,0.5-0.5,1-0.7,1.4c-0.2,0.5-0.5,1-0.6,1.5
						c-0.3,0.9-0.6,1.9-0.6,2.9c0,0.8,0.1,1.6,0.1,2.5c-0.1,0.9-0.3,1.7-0.4,2.6c-0.1,1-0.1,2.1-0.2,3.1c-0.2,2.3-0.5,4.6-0.8,6.8
						c-0.2,2-0.6,4-1.1,5.9c-0.4,1.9-0.9,3.8-1.4,5.7c-0.6,2.3-1.3,4.5-1.8,6.8c-0.4,1.9-0.9,3.9-1,5.8c-0.1,2.1,0,4.1-0.4,6.2
						c-0.2,0.9-0.4,1.7-0.8,2.5c-0.3,0.7-0.7,1.3-0.9,2c-0.3,0.9-0.5,1.8-0.8,2.7c-0.2,0.6-0.4,1.3-0.4,2c0,0.9,0,1.8-0.2,2.7
						c-0.2,0.9-0.2,1.8-0.3,2.8c-0.1,2.3-0.4,4.6-0.6,7c-0.2,1.9-0.4,3.9-0.4,5.9c-0.1,2.1,0,4.1,0.1,6.2c0,1.2,0.1,2.3,0.1,3.5
						c0,0.5-0.1,1.1,0,1.6c0.1,0.3,0.4,0.5,0.4,0.8c0.1,0.3,0,0.6,0,0.8c-0.1,1.2,0.7,2.2,0.9,3.3c0.1,0.7,0.2,1.5,0.4,2.2
						c0.3,1,0.6,2,1,3c0.1,0.5,0.4,1.1-0.1,1.4l-2.8,4.5c-1.9,0.9-9.5-1.3-9.5-1.3c-0.3-0.6-0.3-1.2-0.3-1.8
						c-0.1-1.2-0.1-2.4-0.2-3.6c-0.2-2.2-0.5-4.4-0.7-6.6c-0.2-2.6-0.3-5.2-0.6-7.8c-0.3-2.3-0.7-4.6-1.1-7c-0.3-2.3-0.6-4.6-0.6-7
						c0-2.4,0.2-4.8,0.4-7.1c0.2-2.3,0.6-4.6,0.8-6.9c0.1-1.1,0-2.2,0.1-3.3c0-0.7,0.2-1.3,0.1-2c-0.1-0.6-0.3-1.1-0.3-1.6
						c0-0.8,0.2-1.5,0.4-2.3c0.2-0.6,0.2-1.2,0.2-1.8c-0.1-0.8,0.1-1.5,0.3-2.2c0.2-0.9,0.2-1.9,0.2-2.8c0-1.4-0.1-2.9-0.2-4.3
						c-0.1-2.3-0.1-4.7-0.1-7c0-1.3,0-2.5,0-3.8c0-0.9,0-1.9-0.1-2.9c-0.1-0.5-0.2-1-0.2-1.6c0.1-0.5,0.2-0.9,0.2-1.5
						c-0.1-1.5-1-2.7-1-4.2c0-0.3,0-0.6-0.1-0.8c-0.2-0.4-0.6-0.6-0.8-1c-0.5-0.8-0.7-1.7-1-2.6c-0.4-1.1-0.7-2.3-1.1-3.4
						c-0.7-2.2-1.3-4.5-1.4-6.8c-0.1-2.1,0.3-4.3,1-6.2c0.8-2,2-3.9,3.3-5.6c0.6-0.8,1.2-1.7,1.9-2.4L174.1,252.4z"/>
					<g>
						<defs>
							<path id="XMLID_64_" d="M151,217.5c-1.4-3.2-2.4-6.7-2.7-10.2c-0.3-3.4,0-6.8,0.9-10.1c0.5-1.6,1.4-3,1.7-4.7l2.4-6.5
								c3.6,3.5,6.7,5.7,8.3,6.7c0.8,0.5,2.2,1.3,4.1,1.4c0.2,0,0.4,0,0.5,0l10.1,11.7c0.9,0.7,1.7,1.6,2.3,2.6
								c1,1.7,1.3,3.8,1.1,5.7c-0.1,1.2-0.3,2.4-0.4,3.6c-0.1,1.1,0,2.1,0.2,3.2c0.4,2.4,0.8,4.8,1.1,7.2c0.3,2.6,1.4,17.7,1.6,19.1
								c0.2,1.3,0.4,2.4,0.5,3.2c-3.2,1.9-5.8,2.5-7.6,2.6c-4,0.3-8.6-1-10.8,0c-0.2,0.1-1,0.4-1.5,0.2c-0.3-0.2-0.3-0.8-0.4-1.1
								c-0.1-0.6-0.2-1.2-0.3-1.8c0-0.2,0-0.4-0.1-0.6c-0.1-0.2-0.2-0.2-0.4-0.1c-0.3,0.1-2.1,2.1-2.4,2.3
								c-0.8,0.6-3.4-0.4-10.8-7.1c0.9-0.5,2-1.2,2.8-2.1c0.6-0.7,0.9-1,1-1.3c0.3-0.6,0.6-0.9,1.1-1.3c0.4-0.3,0.8-0.6,1.1-1
								c0.2-0.4,0.3-0.9,0.5-1.2c0.2-0.3,0.6-0.4,0.9-0.6c0.4-0.2,0.6-0.6,0.8-1L151,217.5z"/>
						</defs>
						<use xlink:href="#XMLID_64_"  style="overflow:visible;fill:#EE5F43;"/>
						<clipPath id="XMLID_68_">
							<use xlink:href="#XMLID_64_"  style="overflow:visible;"/>
						</clipPath>
						<path class="st36" d="M165.1,205.5c0,0-3.5,13.7-3.1,14.6s3.9,20.1,3.9,20.1l-11-22.7l6.3-12.3L165.1,205.5z"/>
					</g>
					<path class="st37" d="M150.5,363c-0.5,0.1-0.6,0.6-0.8,1c-0.6,1.8-0.7,3.8-0.9,5.6c-0.1,0.8-0.1,1.7,0,2.5
						c0,0.2,0.1,0.5,0.2,0.6c0.4,0.6,1.4,0.7,2,0.7c1.6,0.2,3.1,0.2,4.7,0.2c2.7,0,5.5,0,8.2,0c3.8,0,7.7,0.1,11.6-0.3
						c1.7-0.2,3.5-0.5,5.1-1.3c0.6-0.3,1.1-0.6,1.1-1.3c0.1-1.5-0.3-3-1.8-3.6c-1.2-0.5-2.7-0.3-4-0.4c-1.8-0.1-3.5-0.7-5.1-1.5
						c-1.7-0.8-3.3-1.9-4.8-3c-0.7-0.6-1.5-1.1-2.2-1.8c-0.2-0.2-0.5-0.5-0.8-0.6c-2-0.5-2.8,1.8-3.9,2.9c-0.7,0.7-1.7,1-2.7,1.1
						c-0.9,0.1-1.7,0.1-2.6-0.1c-0.9-0.2-1.7-0.5-2.6-0.7C151,363,150.7,363,150.5,363z"/>
					<path class="st38" d="M161.1,210.5c1.3-0.5,2.3-1.4,3-2.7c0.5-1,0.9-2.1,0.8-3.3c0-1.3-0.5-2.5-1.2-3.5
						c-0.7-1.1-1.7-1.8-2.8-2.3c-1.6-0.7-3.5-1-5.3-0.7c-1.2,0.2-2.3,0.8-3.2,1.7c-1.3,1.3-2.4,3.1-2.9,4.9
						c-0.2,0.9-0.3,1.9-0.3,2.8c0,1.4-0.1,2.7-0.1,4.1c0,2.7,0.2,5.4,0.4,8c0.1,1.2,0.1,2.4,0.1,3.6c-0.1,1-0.3,2-0.2,3
						c0.1,0.7,0.3,1.3,0.6,1.8c0.6,1,1.3,1.9,1.9,2.9c1.2,2.3,2.4,4.6,3.8,6.7c1.3,2,2.9,3.8,4.5,5.6c1.8,2,3.6,4,5.5,5.9
						c1.9,1.7,3.8,3.4,5.8,4.9c0.8,0.6,2.6,1.5,4.9,2c3.4,0.8,6.3,0.3,8.2-0.3c0.6-0.6,2.2-2.6,2.4-5.7c0.1-1.9-0.3-3.5-0.7-4.3
						c-1.7-0.2-3.6-0.8-5.6-1.9c-0.2-0.1-0.5-0.3-0.7-0.4c1.1-0.7,2.1-1.1,2.8-1.3c1-0.3,1.7-0.3,1.9-0.9c0.2-0.5-0.1-1.2-0.3-1.6
						c-0.6-0.9-1.9-1.1-3.2-0.7c-3.1,1.9-6.2,3.7-9.2,5.6c-0.1-0.1-0.3-0.3-0.6-0.5c-2-2-2.5-4-3.9-6.7c-1.2-2.4-2.3-4.8-3.6-7.2
						c-0.5-1-1.1-2-1.7-3c-0.6-1-1.3-1.9-1.8-3c-0.7-1.5-0.5-2.9-0.4-4.5c0.1-1.4,0.3-2.8,0.4-4.2c0.1-1.3,0.2-2.5,0.3-3.8
						c0.2-2.6,0.4-5.1,0.3-7.7L161.1,210.5z"/>
					<path class="st34" d="M175.2,166.8c-3.1,2.8-5.1,3-6.4,2.6c-1.5-0.4-2.8-2-3.8-1.4c-0.4,0.2-0.6,0.6-0.6,1
						c0.2,0.4,0.6,1.3,0.6,2.4c0,1.1-0.5,2.5-1,2.6c-1,0.1-1.6-3.7-2.4-3.6c-0.7,0.1-0.6,2.8-1.5,6.3c-0.7,2.7-1.8,6.9-5.2,9
						c-0.5,0.3-3.8,2.2-6.8,0.6c-1.7-0.9-3.1-2.7-3.3-4.9c-0.2-2.4,1.2-4.1,1.5-4.5c-0.5-0.2-2.7-1.3-3.7-3.8
						c-0.1-0.2-1.3-3.4,0.2-5.8c1.1-1.7,2.7-1.4,3.1-2.8c0.5-1.5-1.1-2.2-1.2-4.5c-0.1-3,2.6-5.1,2.7-5.2c1.4-1.1,2.8-1.3,3.4-1.4
						c2.9-0.4,5.1,1,5.8,1.4c0.2-0.7,0.8-2.3,2.5-3.4c2.1-1.5,4.5-1.2,5.4-1c0.9,0.1,2.7,0.4,4,1.8c0.7,0.8,1,1.6,1.2,2.2
						c0.5-0.5,1.8-1.8,3.9-2.3c0.7-0.1,2.7-0.6,4.7,0.5c2.8,1.5,3.2,4.9,3.3,5.3c0.3,2.4-1,2.7-0.9,5.2c0.1,3.4,2.4,4.6,1.6,6.1
						c-0.6,1.2-2.8,1.6-4.4,1C175.8,169.2,175.3,166.9,175.2,166.8z"/>
					<path class="st38" d="M163,172.1c0-0.1-0.1-0.3-0.2-0.5c0,0-0.1-0.4-0.3-0.7c-0.4-0.7-1.1-1.4-2-1.6c-0.8-0.2-1.6,0.2-2,0.9
						c-0.7,1.1-0.1,2.8,0.4,3.9c0.5,1,1.4,2.4,2.6,2.6c0.1,0,1.1,0.1,1.5-0.5c0.3-0.4,0.2-0.8,0.1-1
						C163.2,174.3,163.1,173.2,163,172.1z"/>
					<path class="st33" d="M161.1,173.5c-0.1-0.8-1-0.3-1.1-1.1s0.8-0.6,0.7-1.2c0-0.6-1.8-0.5-1.5,1.5
						C159.6,174.8,161.2,174.2,161.1,173.5z"/>
				</g>
				<g>
					<path class="st37" d="M348.3,360.2c0,1.5,2.8,10.4,2.8,10.4h13.7c0,0,1.2-3,0.8-4.1c-0.3-1.2-4.8-4.5-5-5.1
						c-0.3-0.7-3.6-9.3-3.6-9.3S348.3,358.7,348.3,360.2z"/>
					<path class="st37" d="M281.3,352c0,0-2.1,6.7-3.1,8.3c-1,1.6-6.7,5.7-7,6.2s-1,5.1-1,5.1h19c0,0,0.9-7,0.9-8.4
						s-0.6-5.6-0.6-5.6l-0.5-4.8L281.3,352z"/>
					<g>
						<defs>
							<path id="XMLID_77_" d="M296.1,247.6c0,0-5,15.9-5.3,20.2c-0.3,4.3-4.9,32.5-5.5,35.1c-2.8,12.8-5.8,40.9-5.8,40.9l2,2.6
								l-2,3.9v5c0,0,3.2-0.9,4.7-0.9s5.6,1.7,5.6,1.7s4.4-12.2,4.4-14c0-1.8,2-2.7,1.8-4c-0.2-1.3-0.6-4.8,0-6.3s3.6-14.7,3.8-18.2
								c0.2-3.5,4.2-14.4,4.2-14.4s4.7-13.9,5.5-15.9c0.7-2,1.9-12.4,6.6-12.4s12.1,14.9,13.3,20.4c1.2,5.5,9.2,32.3,10.4,34.3
								c1.2,2,6,8.7,6,8.7l-1.8,7.2l1.3,9.9c0,0,0.8,5.1,0.9,6.2c0.1,1.1,4.3,0,4.3,0s7.7-1.6,8.9-2.3c1.2-0.6,1.4-3.4,1.1-4.2
								c-0.2-0.9-1-2.6-1-3.5c0-0.9-5.3-36.2-5.8-38.9c-0.5-2.7-4.6-12.3-5.5-16.3c-0.9-4.1-1.8-13.4-1.8-16.4c0-3-0.5-6.2-0.5-7.5
								s-7-23.1-7-23.1L296.1,247.6z"/>
						</defs>
						<use xlink:href="#XMLID_77_"  style="overflow:visible;fill:#4485F4;"/>
						<clipPath id="XMLID_73_">
							<use xlink:href="#XMLID_77_"  style="overflow:visible;"/>
						</clipPath>
						<path class="st39" d="M307.9,268.2c2.7,1.7,6.2,2.4,9.7,3C312.6,278.7,311.1,271.9,307.9,268.2z"/>
						<polygon class="st39" points="298,339.9 291.3,341.2 295.5,345.3 						"/>
						<polygon class="st39" points="341.1,330.3 348.8,335.6 342.3,334.1 						"/>
					</g>
					<g>
						<defs>
							<path id="XMLID_75_" d="M300.8,175.2c-1.4,0.8-1.7,0.7-6.4,2.4c-3.1,1.1-4.6,1.7-4.8,1.9c-2.6,2.4-1,6.3-2.3,12.5
								c-0.7,3.2-3.2,6.3-3,7.6c0.2,1.3,4.4,1.2,7.6,1.2c3.6,0,4.2-0.9,5.1-0.3c3.8,2.2-3.5,16.6-3,31.6c0.1,1.4,0.3,6,0,12.2
								c-0.1,2.8-0.3,5.2-0.5,6.7c9.4,2.5,17.5,3.5,23.4,4c9.8,0.7,14.2-0.1,18.1-2.2c3.2-1.7,5.3-3.9,6.7-5.5
								c-1.2-2.6-1.5-4.7-1.5-6.2c0-2.1,0.4-2.8,0.2-5.5c0-0.9-0.2-2-0.7-4.7c-0.8-3.7-1.3-5.1-1.7-7c-0.5-2.3-2.4-10.5,1.7-16.4
								c0.5-0.7,0.9-1.2,1.2-1.5c0.7,0.4,1.3,1.8,2.2,1.3c0.8-0.5,2-9.1,3.1-11.7c0.8-1.9,1.8-3.9,2-6.8c0.1-1.3,0.2-4.1-1.5-6.6
								c-0.3-0.4-0.8-1.2-2.5-2.5c-0.7-0.5-2-1.5-7.5-4c-1.9-0.8-2.8-1.3-3.7-1.6c-2.4-0.8-4.5-1.2-6.2-1.4
								c-8.8-1.1-10.9,1.3-17.2,0c-0.9-0.2-2.5-0.6-4.4-0.1C303.4,173.1,303.1,173.9,300.8,175.2z"/>
						</defs>
						<use xlink:href="#XMLID_75_"  style="overflow:visible;fill:#034C8A;"/>
						<clipPath id="XMLID_78_">
							<use xlink:href="#XMLID_75_"  style="overflow:visible;"/>
						</clipPath>
						<path class="st40" d="M298.5,188.3c0,0,0.6,6.8,0.6,11.4c0,1.8-1.7,0.1-1.9,0.9c-0.5,2.8-1.2,4.6-2.4,5.8
							C298.8,208.7,304.5,199.5,298.5,188.3z"/>
						<path class="st40" d="M331.7,198.9c0,0,4.2-9.6,4.7-11.1c0.5-1.5-8.1,9.8-8.1,9.8L331.7,198.9z"/>
					</g>
					<g>
						<defs>
							<path id="XMLID_76_" d="M316.2,160.1c-0.7,4.6-1.4,9.3-2.2,13.9c4.1,0,8.3,0,12.4,0c-0.7-4.7-1.3-9.5-2-14.2
								C321.7,159.9,319,160,316.2,160.1z"/>
						</defs>
						<use xlink:href="#XMLID_76_"  style="overflow:visible;fill:#BC6C56;"/>
						<clipPath id="XMLID_79_">
							<use xlink:href="#XMLID_76_"  style="overflow:visible;"/>
						</clipPath>
						<path class="st41" d="M312,164.8l17.3,1.3c0,0-2,6.3-8.6,6.3s-8.6-7-8.6-7"/>
					</g>
					<path class="st33" d="M305.2,172.6c1.4,6.6,7.1,11.4,13.7,11.6c6.4,0.2,12.2-3.9,14.2-10.1c-3-1.2-7.6-2.7-13.4-3.1
						C313.4,170.6,308.4,171.7,305.2,172.6z"/>
					<path class="st37" d="M311.9,156.2c-0.2-3.6-0.4-7.3-0.6-10.9c2.1-4.2,6.4-6.7,10.9-6.3c4.1,0.3,7.7,2.9,9.4,6.7
						c-0.2,3.8-0.5,7.5-0.7,11.3C324.6,156.7,318.2,156.5,311.9,156.2z"/>
					<polygon class="st42" points="310.1,171.5 309.9,176.3 314,179.5 315.6,183.7 319.1,195.3 316.2,178.2 312.2,175 310.5,169.4 
											"/>
					<g>
						<defs>
							<path id="XMLID_74_" d="M285.5,199.6c-0.5,3.4,0.7,12.1,0.9,18.3c0,1.1,0.1,3,1.3,4.6c0.6,0.7,1.7,1.8,4.1,2.5
								c4,1.1,15.8,2.1,31.6,2.7c3.7-1.8,7.4-3.5,11.1-5.3c3.5-3.7,5.3-7.8,4-9.8c-1.7-2.6-8.2-1.4-12.3,1.1c-3.5,2.1-5.3,5.3-6.1,7
								c-3.7-0.8-7.7-1.7-11.9-3c-3.7-1.1-7.1-2.3-10.3-3.5c0.3-2,0.6-4.6,0.5-7.4c-0.1-2.9-0.3-4.3-0.7-6.3
								C293.6,199.2,287.9,198.9,285.5,199.6z"/>
						</defs>
						<use xlink:href="#XMLID_74_"  style="overflow:visible;fill:#BC6C56;"/>
						<clipPath id="XMLID_80_">
							<use xlink:href="#XMLID_74_"  style="overflow:visible;"/>
						</clipPath>
						<rect x="283.7" y="196.5" class="st43" width="16.3" height="5.7"/>
						<path class="st43" d="M321.8,215.2c0,0,4,4.3,8.4,3.8c4.4-0.5,10.8-7.3,10.8-7.3l-6.8-1.3L321.8,215.2z"/>
					</g>
					<path class="st33" d="M329.4,147.4c0.1,2.3,0.2,4.7,0.3,7c0.4-0.1,1.1-0.2,1.6,0.2c0.9,0.6,0.7,2,0.6,2.8
						c-0.1,0.7-0.2,1.3-0.7,1.8c-0.5,0.4-1.1,0.5-1.4,0.5c-0.2,1.4-0.8,4-2.7,6.5c-1.1,1.5-3.3,4.4-6.3,4.2
						c-2.7-0.1-4.5-2.7-5.8-4.6c-1.8-2.6-2.4-5.1-2.6-6.6c-0.3,0-0.8,0-1.1-0.2c-0.2-0.2-0.3-0.5-0.2-2.1c0.1-2.1,0.4-2.4,0.5-2.6
						c0.4-0.4,1-0.5,1.3-0.5c0.4-2.5,0.8-5.1,1.2-7.6c0.8-0.7,3.2-2.4,6.6-2.6C325.7,143.4,328.9,146.9,329.4,147.4z"/>
					<path class="st42" d="M317,178.7c0.4,2.8,0.8,3.4,1.2,5.9c2.2-1.1,4.7-0.5,7.1-1.8c-1.5-3.3-1.7-3.8-2.1-5
						c0.2-2.2,0.5-3.9,0.8-5.1c0.2-1.2,0.4-1.9,0.6-3.1c0.3-1.7,0.4-3.2,0.4-4.1c-0.5,0.1-1,0.2-1.5,0.3c-0.6,0.8-1.1,1.7-1.7,2.5
						c-0.8-1-1.7-2-2.7-3c-1-1-2-1.9-2.9-2.7c-1.8,1.8,0,0-1.8,1.8c0.2,1.8,3.1,4.1,3.3,5.9C319.6,172.2,315.2,176.9,317,178.7z"/>
					<path class="st33" d="M333.8,200c1.6,1.1,2.9,1.3,5.3,2.8c1.3,0.8,2.3,1.6,2.9,2.2c-1,5.8-4.6,10.4-9.4,11.7
						c-2.7,0.8-5.2,0.3-6.7-0.1c-0.5-0.2-1.1-0.5-1.8-1c-2-1.6-2.7-3.9-3.1-5.3c-0.8-3.4-2.8-14.5-5-29.6c-1.8-1.8-3.6-3.6-5.5-5.4
						c-0.2-1.8-0.4-3.6-0.6-5.3c1.8-1.8,3.5-3.5,5.3-5.3c0.9,0.8,1.9,1.7,2.9,2.7c1,1,1.9,2,2.7,3c0.6-0.8,1.1-1.7,1.7-2.5
						c0.5-0.1,1-0.2,1.5-0.3c-0.1,0.9-0.2,2.4-0.4,4.1c-0.2,1.2-0.4,1.9-0.6,3.1c-0.2,1.2-0.5,2.9-0.8,5.1
						c0.8,2.3,3.4,10.1,7.4,15.8C331,197.5,331.9,198.9,333.8,200z"/>
				</g>
				<g>
					<g>
						<path class="st44" d="M401.2,315.2c0.2,0,0.3,0,0.5,0.1l-0.5,0.2L401.2,315.2C401.1,315.3,401.1,315.2,401.2,315.2z"/>
						<path class="st44" d="M393.6,371.6c0-0.1,0.1-0.2,0.2-0.2c0.2-0.2,0.4-0.3,0.6-0.5c1.4-1,2.4-2.3,3.6-3.4
							c0.1-0.1,0.4-0.2,0.6-0.4c0.2-0.2,0.3-0.4,0.3-0.7c0.1-0.2,0.1-0.5,0.1-0.7c0.2-1.3,0-2.6-0.1-3.8c-0.2-2.2-1-8.1-1-8.9
							c0-0.2,0-0.4,0-0.7c0-0.3,0-0.5-0.1-0.8l0-0.1c0.4,0.1,0.8,0,1,0c1.9,0,3.8-0.4,5.6-0.9c0.8-0.2,1.6-0.5,2.4-0.8
							c0.2-0.1,0.6-0.3,0.7-0.5c0.1-0.3-0.1-0.7-0.3-1c0.1,0.1,0.3,0.2,0.5,0.3c0.4,0.2,0.8,0.4,1.1,0.5c0.4,0.2,0.8,0.5,1.2,0.8
							c0.5,0.4,0.8,1,1.1,1.6c0.2,0.4,0.3,0.9,0.4,1.3c0.5,2.2,0.1,4.5,0.4,6.9c0.2,1.9,0.5,3.9,0.9,5.8c0.1,0.5,0.3,1.5,0.3,1.5
							c0,0.2,0.2,0.6,0.3,1c0,0.1,0,0.2,0.1,0.2l0,0c0,0,0,0-0.1,0c-0.1,0-0.3,0.1-0.5,0.1c-0.1,0-0.2,0-0.3,0.1l0,0l0,0
							c0-0.1-0.1-0.3-0.1-0.4c0-0.1,0-0.3-0.1-0.3c-0.5-2.2-1.7-6.6-1.7-6.6c0-0.2-0.1-0.6-0.2-1.1c0-0.2-0.1-0.4-0.2-0.5
							c-0.1-0.2-0.2-0.3-0.4-0.4c-0.1-0.1-0.3-0.1-0.4-0.1c-0.4,0.1-0.8,0.4-1.1,0.8c-0.3,0.3-0.6,0.7-0.8,1
							c-0.4,0.6-0.7,1.2-0.9,1.9c-0.5,1.7-0.5,3.6-0.8,5.3c-0.1,0.7-0.2,1.4-0.6,1.8c-0.5,0.6-1.5,0.8-2.3,1.1
							c-0.6,0.2-1.2,0.3-1.8,0.5c-1.4,0.3-2.7,0.6-4.1,0.9l0,0c-0.3,0.1-0.7,0.2-1.2,0.3c-0.4,0.1-0.8,0.2-1.2,0.2
							c-0.4,0-0.7,0-1-0.2c-0.1-0.1-0.2-0.2-0.3-0.4l0,0C393.5,371.8,393.6,371.7,393.6,371.6z"/>
						<path class="st44" d="M396.4,347.9c-0.4-3.9-0.5-7.7-1.8-11.5c-1.4-4.2-2.8-8.4-3.9-12.8c-0.6-2.2-1.1-4.3-1.6-6.5
							c-0.5-1.9-1-3.8-1.2-5.8c-0.2-1.8,0.1-3.7,1.2-5.1c1.8-2.2,4.9-3,7.5-3.7c1-0.3,2-0.5,2.9-0.7l0,0.3c0,0,0,0,0,0
							c0.1,0,0.2-0.1,0.2-0.2c0-0.1,0-0.2,0-0.2c0.1,0,0.1,0,0.2,0c10.5-3.4,21-7,31.5-10.6c1.1-0.4,1.7-1.2,1.9-2.1
							c4.6,1.5,9.1,3.9,13.2,6.4c0,0.3,0,0.6,0,0.9c0,0.2-0.1,0.5-0.1,0.8c0,0.2,0,0.4,0,0.6l0.2-0.1c0.7,2.1,1.3,5.2,0,7.2
							c-1.4,2.2-4.4,2.9-6.7,3.6c-4.1,1.3-8.3,2.2-12.5,3.1c-4.4,1-8.8,1.9-13.2,2.7c-2,0.4-4.1,0.7-6.1,1c-1.9,0.2-4,0.5-5.9,0.4
							c-2.7-0.1,0.3-1.5,2.4,11.1c0.7,4.2,0.8,8.5,1,12.8c0.1,1.9,0.2,3.8,0.7,5.6c0.2,0.8,0.5,1.6,0.8,2.4c0.1,0.1,0.2,0.4,0.3,0.6
							c0.2,0.4,0.3,0.8,0.3,1c-0.1,0.3-0.4,0.4-0.7,0.5c-0.8,0.4-1.6,0.6-2.4,0.8c-1.8,0.5-3.7,0.9-5.6,0.9c-0.3,0-0.7,0-1,0
							c-0.3,0-0.6-0.2-0.8-0.4C396.4,350.3,396.5,348.8,396.4,347.9z"/>
					</g>
					<path class="st45" d="M404.3,316.6h40.2c1.1,0,2-0.9,2-2v-4.4c0-1.1-0.9-2-2-2h-40.2c-1.1,0-2,0.9-2,2v4.4
						C402.2,315.7,403.1,316.6,404.3,316.6z"/>
					<path class="st45" d="M457.1,281.4c0-7.2-0.2-14.3,0.1-21.5c0.2-4.7,0.1-9.5-0.5-14.2c-0.3-2.1-1.7-11.5-5.8-9.7
						c-0.8,0.3-1.1,1.5-1.3,2c0.2,14.5,0.4,29,0.5,43.4c0,1.9,1.3,3.4,2.8,3.4h1.3C455.9,284.8,457.1,283.3,457.1,281.4z"/>
					<path class="st46" d="M457.3,257v45.5c0,3.7-1.5,7.2-4,9.8c-2.6,2.6-6.1,4-9.8,4h-34"/>
					
						<rect x="425.4" y="316.6" transform="matrix(-1 -1.224647e-16 1.224647e-16 -1 854.3403 682.6369)" class="st47" width="3.4" height="49.4"/>
					
						<rect x="422.7" y="339.2" transform="matrix(-1 -1.224647e-16 1.224647e-16 -1 854.34 695.2709)" class="st47" width="9" height="16.9"/>
					<path class="st47" d="M397,367.7c4-2.7,15.1-9.3,30.8-9.1c14.9,0.2,25.5,6.4,29.5,9.1c0-0.9,0-1.9,0-2.8
						c-4.3-2.7-14.8-8.6-29.5-8.8c-15.5-0.2-26.6,6.1-30.8,8.8C397,365.8,397,366.7,397,367.7z"/>
					<path class="st47" d="M453.5,367.7c0-2.1,1.7-3.9,3.9-3.9c2.1,0,3.9,1.7,3.9,3.9c0,2.1-1.7,3.9-3.9,3.9
						C455.2,371.5,453.5,369.8,453.5,367.7z"/>
					<path class="st47" d="M393.1,367.7c0-2.1,1.7-3.9,3.9-3.9c2.1,0,3.9,1.7,3.9,3.9c0,2.1-1.7,3.9-3.9,3.9
						C394.9,371.5,393.1,369.8,393.1,367.7z"/>
					<path class="st47" d="M423.5,367.7c0-2,1.6-3.6,3.6-3.6c2,0,3.6,1.6,3.6,3.6s-1.6,3.6-3.6,3.6
						C425.2,371.3,423.5,369.7,423.5,367.7z"/>
					<g>
						<path class="st44" d="M414.1,371.9L414.1,371.9L414.1,371.9z"/>
						<g>
							<path class="st38" d="M366.3,369.5c0.1-0.1,0.2-0.2,0.3-0.2c0.3-0.1,0.6-0.3,0.9-0.4c1.9-0.8,3.4-1.9,5.2-2.8
								c0.2-0.1,0.5-0.2,0.8-0.3c0.3-0.2,0.4-0.4,0.6-0.7c0.1-0.3,0.3-0.5,0.4-0.7c0.6-1.4,0.8-2.9,1-4.3c0.3-2.5,1.2-9.4,1.3-10.3
								c0-0.2,0.1-0.4,0.2-0.7c0.1-0.3,0.1-0.6,0.1-0.9l0-0.2c0.4,0.2,0.9,0.2,1.2,0.3c2.2,0.5,4.5,0.6,6.8,0.5c1,0,2-0.1,3-0.3
								c0.3-0.1,0.8-0.1,0.9-0.4c0.2-0.3,0.1-0.8,0-1.2c0.1,0.2,0.3,0.3,0.5,0.4c0.4,0.3,0.8,0.6,1.1,0.9c0.4,0.4,0.8,0.8,1.2,1.2
								c0.4,0.6,0.7,1.3,0.8,2.1c0.1,0.5,0.1,1.1,0.1,1.6c0,2.6-1.1,5.1-1.5,7.9c-0.3,2.2-0.5,4.5-0.6,6.7c0,0.6-0.1,1.8-0.1,1.8
								c0,0.2,0,0.7,0,1.2c0,0.1,0,0.2,0,0.3l0,0c0,0,0,0-0.1,0c-0.2,0-0.4,0-0.6,0c-0.1,0-0.2,0-0.3,0l0,0l0-0.1c0-0.1,0-0.3,0-0.5
								c0-0.2,0-0.3,0-0.4c0-2.6-0.1-7.9-0.1-7.9c0-0.2,0.1-0.7,0.1-1.3c0-0.2,0-0.4-0.1-0.7c0-0.2-0.1-0.4-0.3-0.6
								c-0.1-0.1-0.3-0.2-0.5-0.2c-0.5,0-1,0.3-1.5,0.6c-0.5,0.3-0.9,0.6-1.2,0.9c-0.6,0.5-1.1,1.2-1.6,1.8
								c-1.1,1.8-1.6,3.9-2.4,5.7c-0.3,0.7-0.6,1.5-1.2,1.8c-0.7,0.5-1.9,0.5-2.9,0.6c-0.7,0-1.5,0-2.2,0c-1.7,0-3.3-0.1-5-0.1h-0.1
								c-0.3,0-0.9,0-1.5,0c-0.5,0-1,0-1.5-0.1c-0.5-0.1-0.8-0.2-1.1-0.4c-0.1-0.1-0.2-0.3-0.3-0.5l0,0
								C366.2,369.6,366.2,369.6,366.3,369.5z"/>
							<g>
								<defs>
									<path id="XMLID_62_" d="M376.2,343.6c0.7-4.5,1.5-8.8,1.1-13.4c-0.5-5.1-0.9-10.3-1-15.4c0-2.6-0.1-5.2-0.1-7.8
										c0-2.3-0.1-4.6,0.2-6.8c0.3-2.1,1.1-4.1,2.9-5.4c2.7-2,6.5-2,9.7-2.1c1.2,0,2.4,0,3.6,0l0,0.3c0,0,0,0,0,0
										c0.1,0,0.2-0.1,0.3-0.2c0.1-0.1,0.1-0.2,0-0.3c0.1,0,0.1,0,0.2,0c13.2-1,26.4-2.1,39.5-3.3c1.4-0.1,2.4-0.9,2.8-1.9
										c4.9,2.9,9.4,6.9,13.5,10.8c-0.1,0.4-0.2,0.7-0.3,1c-0.1,0.3-0.2,0.6-0.3,0.9c-0.1,0.2-0.2,0.5-0.2,0.7l0.3,0
										c0.2,2.5,0,6.2-2,8.1c-2.3,2-6,2.1-8.8,2.3c-5.1,0.3-10.3,0.2-15.4,0.1c-5.4-0.1-10.7-0.3-16.1-0.6
										c-2.5-0.1-4.9-0.3-7.4-0.6c-2.3-0.3-4.7-0.5-7-1.2c-0.4-0.1-1.1-0.4-1.1-0.4c0.8,4.4,1.1,9,0.7,13.5
										c-0.4,4.9-1.5,9.8-2.4,14.7c-0.4,2.2-0.8,4.3-0.8,6.5c0,1,0.1,1.9,0.2,2.9c0,0.2,0.1,0.4,0.2,0.7c0.1,0.4,0.2,0.9,0,1.2
										c-0.2,0.3-0.6,0.4-0.9,0.4c-1,0.2-2,0.2-3,0.3c-2.2,0.1-4.6,0-6.8-0.5c-0.3-0.1-0.8-0.2-1.2-0.3c-0.4-0.1-0.7-0.4-0.9-0.7
										C375.6,346.3,376.1,344.6,376.2,343.6z"/>
								</defs>
								<use xlink:href="#XMLID_62_"  style="overflow:visible;fill:#38AAE3;"/>
								<clipPath id="XMLID_81_">
									<use xlink:href="#XMLID_62_"  style="overflow:visible;"/>
								</clipPath>
								<path class="st48" d="M385.5,304.5l8.2,6v4.4C393.7,314.9,386.2,309,385.5,304.5z"/>
							</g>
						</g>
						<g>
							<defs>
								<path id="XMLID_11_" d="M435.8,237.6c-3.5,1.7-6.9,4.2-10.2,6.3l0,0c0-0.1,0-0.2,0-0.3c0-0.1-0.1-0.1-0.2-0.2
									c0,0,0-0.1,0-0.2c0-0.2,0.1-0.4,0.1-0.6c0.3-1.5,0.7-3.1,1.1-4.7c0.2-0.7,0.4-1.5,0.8-2c0.2-0.2,0.4-0.4,0.6-0.6
									c0.1-0.1,0.3-0.2,0.4-0.3c0.1-0.1,0.3-0.3,0.3-0.6l0-0.1l0,0c-0.1-0.3-0.2-1-0.8-1.6c-0.2-0.2-0.9-0.9-1.7-0.8
									c-0.4,0-0.4,0.2-1.1,0.5c-0.5,0.2-1.1,0.4-1.7,0.1c-0.4-0.2-0.6-0.4-0.8-0.7c-0.1-0.2-0.2-0.3-0.3-0.4
									c-0.3-0.6-0.4-1.2-0.4-1.3c-0.1-0.5-0.6-2-2.4-5.8c-0.4-0.4-0.7-0.5-0.9-0.5c0,0-0.4,0-0.8-0.2c-0.1-0.1-0.2-0.1-0.2-0.2
									c-0.1-0.1-0.1-0.2-0.1-0.4c0-0.2,0.1-0.5,0.2-0.7c0.3-0.6,0.9-1.1,1.3-2c0.3-0.8,0.2-1.5,0.2-2.2c0.1-1.3,0.4-2.7,0.6-4.1
									c0.2-1.5,0.4-3.1,0.8-4.6c0.2-0.6,0.4-1.1,0.6-1.7l0-0.2c0-0.3-0.1-0.6-0.1-0.8c0-0.5,0-0.8,0.3-1
									c4.9-3.5,29.9-5.7,19.7,19.6c-0.1,0.4-0.2,0.8-0.2,1.2c-0.1,0.4-0.2,0.7-0.3,0.8l-0.1,0.1c-0.1,0-0.2,0-0.3,0
									c-0.1,0.1-0.1,0.2-0.1,0.3c0,0.5,0,1,0.1,1.4c0,0.1,0,0.2,0,0.4c0,0.2,0,0.3,0.1,0.5c0,0.1,0.1,0.1,0.2,0.2
									c0.1,0.1,0.2,0.1,0.3,0.1c0.1,0,0.1,0,0.2,0l0,0c0.3,0,0.5,0.1,0.7,0.3c0.3,0.3,0.5,0.8,0.7,1.4c0.2,0.6,0.2,1.2,0.2,1.7
									c0,0.1,0,0.2,0,0.3c0,0.1-0.1,0.3-0.1,0.5c0,0.1,0,0.2,0,0.2c0,0,0,0.1,0,0.1c-1,0.3-2,0.7-3,1.2
									C438.2,236.5,437,237.1,435.8,237.6z"/>
							</defs>
							<use xlink:href="#XMLID_11_"  style="overflow:visible;fill:#D08B73;"/>
							<clipPath id="XMLID_82_">
								<use xlink:href="#XMLID_11_"  style="overflow:visible;"/>
							</clipPath>
							<path class="st49" d="M425.9,232.1c0,0,4.3-2.5,5.9-5c1.5-2.5,1.5-2.5,1.5-2.5l-5.3,9.3L425.9,232.1z"/>
						</g>
						<path class="st38" d="M437.1,253.3c0.1,0.1,0.1,0.2,0.2,0.3C437.2,253.5,437.1,253.4,437.1,253.3
							C437.1,253.3,437.1,253.3,437.1,253.3z"/>
						<g>
							<defs>
								<path id="XMLID_60_" d="M449.2,298.2c0.2-0.7,0.3-1.4,0.3-2.1l0-0.2c0-1.5-0.7-2.8-1.1-4.4c-0.6-3.1,1.4,4-0.1-22v0
									c0-4.9,4.5-8.5-0.3-22.4c-0.9-2.7-2-5.3-3.3-7.9c-0.6-1.2-1.3-2.5-2-3.6c-0.1-0.2,0-0.6-0.1-0.7c0-0.1-0.2,0.2-0.2,0.1
									c-1,0.3-2.7-0.6-3.6-0.1c-1.2,0.4-2.8,0.8-3.9,1.3c-3.5,1.7-5.9,5.6-9.2,7.8c-1.4,4.3-6.4,7.7-4.5,17.8
									c0.7,3.4,1.5,6.9,1.8,10.4c0.1,0.9,0.2,1.9,0.2,2.9c0,0.5,0,1-0.1,1.5c-0.1,1.1-0.5,2-0.7,2.9c-0.2,0.7-0.3,1.5-0.4,2.2
									c0,0.3-0.4,3.3-0.4,3.6c1.6,0.3,3.5-2.2,5-1.8C435.3,285.7,442.8,292,449.2,298.2z M437.1,253.3
									C437.1,253.3,437.1,253.3,437.1,253.3c0.1,0,0.2,0.1,0.2,0.3C437.2,253.5,437.1,253.4,437.1,253.3z"/>
							</defs>
							<use xlink:href="#XMLID_60_"  style="overflow:visible;fill:#FAAE26;"/>
							<clipPath id="XMLID_83_">
								<use xlink:href="#XMLID_60_"  style="overflow:visible;"/>
							</clipPath>
							<path class="st50" d="M433.3,253.4c0,0-5,13.8-5.7,20.7c-0.7,7-0.4,8.6-0.4,8.6l7.8-3.6L433.3,253.4z"/>
						</g>
						<path class="st51" d="M390.8,371.4L390.8,371.4L390.8,371.4z"/>
						<path class="st51" d="M428.7,234.3L428.7,234.3L428.7,234.3z"/>
						<g>
							<defs>
								<path id="XMLID_61_" d="M442.6,234.8c3.2,5.4,3.8,7,5.2,10.8c1.4,3.8,2.6,7.8,2.8,11.9c0.1,1.7-0.1,3.4-0.4,5
									c-0.4,1.9-1.1,3.6-1.4,5.5c-0.3,1.6,0,3.3,0,4.9c0.1,2,0.3,4,0.5,6c0.2,2,0.2,4.1,0.2,6.1c0,1.6-0.1,3.2-0.6,4.7
									c-0.6,2.1,0.9,3.9,0.9,6c0,1.4-0.3,2.9-0.8,4.3c-1.4,4.5-4.9-2.3-15.8-2.3c-7.7,0-6-5.9-9.8-5.7l11.1-10L442.6,234.8z"/>
							</defs>
							<use xlink:href="#XMLID_61_"  style="overflow:visible;fill:#FAAE26;"/>
							<clipPath id="XMLID_84_">
								<use xlink:href="#XMLID_61_"  style="overflow:visible;"/>
							</clipPath>
							<path class="st52" d="M445.3,255.7c0,0-0.6,28.7-1.3,30.8c-0.6,2.1-20.1,5.5-20.1,5.5l16.7-12L445.3,255.7z"/>
						</g>
						<path class="st37" d="M388.1,348.5c-0.2,0.8-0.4,1.6-0.8,2.4c-1,2.2-2.5,4.2-3.8,6.2c-1.4,2.2-2.7,4.4-4.2,6.6
							c-0.7,1.1-1.6,2-2.9,2.1c-0.6,0.1-1.3,0.1-1.9,0c-0.4-0.1-0.8-0.3-1.1-0.3c-0.3,0-0.6,0.2-0.9,0.3c-1,0.6-2,1.3-3,1.8
							c-0.9,0.5-1.9,0.8-2.8,1.2c-0.3,0.1-0.7,0.3-0.8,0.6c-0.1,0.5,0.4,1,0.8,1.2c1.2,0.6,2.9,0.4,4.2,0.4c2.7,0,5.5,0.3,8.2-0.1
							c0.9-0.1,1.8-0.3,2.4-1c1.1-1.3,1.5-3.3,2.1-4.9c0.5-1.3,1.2-2.7,2.2-3.7c0.7-0.7,1.7-1.3,2.6-1.6c0.3-0.1,0.5-0.2,0.7,0.1
							c0.3,0.6,0,1.6,0,2.2c0,1.3,0.1,7.6,0.1,8.1c0,0.2-0.1,0.7,0,0.8c0.1,0.2,0,0.1,0.3,0.1c0.2,0,1,0.1,1.2,0
							c0.2-0.2,0.1-1.4,0.1-1.8c0-1.3,0.1-2.5,0.2-3.8c0.2-2.4,0.3-4.9,1-7.2c0.5-1.9,1.1-3.6,1-5.6c-0.1-1.1-0.2-2.2-0.7-3.2
							c-0.8-1.4-2.3-2.4-3.4-3.4L388.1,348.5z"/>
						<path class="st29" d="M439.1,230.3c-2.6,0.6-5.1,1.5-7.5,2.6c-1.5,0.7-3.3,1.5-4.3,2.8c-1.1,1.3-1.2,3.3-1.6,4.8
							c-0.1,0.4-1.3,3.2-0.3,3.3c0.9,0.2,2.1-1.3,2.6-1.8c2-1.9,4-3.6,6.4-4.9c1.7-0.9,3.7-1.7,5.7-1.8c0.8,0,2.2,0.2,2.6-0.7
							c0.4-1-0.1-2.5-0.4-3.4c-0.3-0.9-0.8-1.3-1.8-1.2C440,230.1,439.6,230.2,439.1,230.3z"/>
						<path class="st37" d="M435.4,221.1c0.3,1,0.7,2.5,0.9,4.5c0.7,5.9-0.9,7.6,0.4,10c1.8,3.2,5.6,1.8,7.4,5.2
							c1.3,2.5-0.4,3.9,0.8,6.7c1.2,2.7,4.5,5.2,7.4,4.7c3.9-0.7,6.5-6.6,5.4-10.6c-1.2-4.4-6.3-4.5-7.4-9.5
							c-0.7-2.9,0.9-3.4,0.1-6.7c-0.9-3.8-3.3-4.2-4.1-7.9c-0.6-2.7,0.6-2.9,0.3-6.5c-0.1-1.7-0.5-6.7-4.3-9.3
							c-0.7-0.5-2.8-1.8-6.3-1.5c-0.6-0.3-4.6-2.7-9.1-0.9c-4,1.5-5.5,5-5.9,6c-0.5,1.2-1.3,3.7-0.6,4.1c0.2,0.1,0.3,0,0.6,0.1
							c1.1,0.2,1.6,1.8,2.4,3c0,0,1,1.5,3.2,2.5c2.6,1.3,5.5,0.3,6.7-0.2L435.4,221.1z"/>
						<path class="st38" d="M431.8,221.2c0.1,0.9,1.1,1.5,2,1.3c1.1-0.2,1.8-1.4,2.2-2.4c0.6-1.2,1.1-2.6,0.9-3.9
							c-0.2-1.8-2-2.7-3.5-1.5L431.8,221.2z"/>
						<path class="st33" d="M433.9,216.2c-0.2,0.9,0.9,0.7,0.8,1.5c-0.2,0.8-1,0.3-1.2,0.9c-0.2,0.6,1.6,1.2,2.1-1
							C436,215.4,434.1,215.5,433.9,216.2z"/>
						<path class="st32" d="M432.6,253.1c-0.3,1-0.6,2.5-0.9,4.2c-0.2,1.2-0.7,4.3-0.8,9.7c-0.1,3-0.1,6.9,0.2,11.4
							c-3,1.8-5.6,3.2-7.7,4.1c-4.1,2-6.2,2.7-7.4,3.2c-2.5,0.9-4.9,1.4-7.5,1.9c-0.9,0.2-0.9,0.7-0.7,1.5c0.4,1.8,1.3,3.4,1.5,5.3
							c0.1,0.8,0,1.7,1,1.7c1.7,0.1,3.7-0.8,5.3-1.3c2.8-0.9,5.6-1.8,8.3-2.8c2.6-0.9,5.2-1.9,7.8-2.9c2.6-1,5.2-1.9,7.7-3.1
							c2.7-1.3,3.4-4.1,3.9-6.9c0.4-2.2,0.6-4.5,0.8-6.7c0.4-3.9,0.7-7.9,1.1-11.8c0.2-2.2,0.5-4.5,0.5-6.7c0-2.8-0.4-5.5-1-8.2
							L432.6,253.1z"/>
						<path class="st38" d="M407.7,288.3c-8-0.4-3.1-4.5-12.6,1.2c-0.4,0.2-4.6,3.7-0.9,3.1c6.2-1.1,7.4,0.7,11.2,1.4
							c1.2,0.2,2.5,0.1,3.7-0.1L407.7,288.3z"/>
					</g>
				</g>
				<g>
					<g>
						<g>
							<defs>
								<path id="XMLID_72_" d="M513.2,353c0,0,0.5,5.6,0.6,7c0.2,1.4,1.5,2.9,1.5,5.5c0,2.6-14.8,5-14.8,5h-10.1l2.4-6.3
									c0,0,7.8-3.2,9-4.6c1.2-1.4,2.1-7.9,2.1-7.9L513.2,353z"/>
							</defs>
							<use xlink:href="#XMLID_72_"  style="overflow:visible;fill:#D08B73;"/>
							<clipPath id="XMLID_85_">
								<use xlink:href="#XMLID_72_"  style="overflow:visible;"/>
							</clipPath>
							<path class="st53" d="M500.9,355.5c0,0,7.2,1.7,8.9,1.6c1.7-0.1,7.8,0,7.8,0l-2.4-6.5l-20.4-0.8L500.9,355.5z"/>
						</g>
						<path class="st37" d="M515.6,361.9c-0.3-1.4-2-2-3.1-1.1c-1.6,1.2-3.5,2.6-4.3,3c-1.6,0.8-8.3,0.3-10.9,0.3s-4.3,0.2-4.3,0.2
							s-7.8,2.9-9.5,3c-1.7,0.1-2.4,2.1-1.1,3.2c1.3,1.1,32.6,1,32.6,1s2.6-1.8,2.1-4.2C516.6,366,516,363.7,515.6,361.9z"/>
					</g>
					<g>
						<defs>
							<path id="XMLID_71_" d="M516.1,246.9c0,0,4.1,9.2,3.7,12.7c-0.5,3.5-3.4,9.2-3.7,15.7c-0.3,6.6-3.2,17.7-3.2,19.7
								s0.5,12.1,0.5,12.1s4.4,5.6,5,16.4c0.7,10.8,1.4,30.7,1.4,30.7s-4.8,1.4-6.9,1.4c-2.1,0-10.1-2.3-10.1-2.3s0.7-19.5,0-22.4
								c-0.7-3-2.7-9.8-3-11.9c-0.2-2.1-3.2-3.9-3.2-6.2c0-2.3-2.3-18.6-3.4-19.5c-1.1-0.9-4.8-19.7-4.6-21.5
								c0.2-1.8,0.7,1.1-0.1-4.4c-0.8-5.5,0-8.2,0-8.2l0.3-2.6c0,0,7.6-11.8,10.5-12C502.2,244.2,516.1,246.9,516.1,246.9z"/>
						</defs>
						<use xlink:href="#XMLID_71_"  style="overflow:visible;fill:#434E84;"/>
						<clipPath id="XMLID_86_">
							<use xlink:href="#XMLID_71_"  style="overflow:visible;"/>
						</clipPath>
						<path class="st54" d="M490.8,258.7c0,0,5.6,9.3,13.7,10.1"/>
						<path class="st54" d="M505.2,255.7c0,0-1.7,29.4-1.3,35.8c0.4,6.4,6.6,28.7,6.9,30.7c0.3,2,4.4,35,4.4,35"/>
						<polyline class="st54" points="521.2,252.3 515.7,253.9 501.6,255.7 482.2,261 						"/>
					</g>
					<path class="st30" d="M507.8,181.7c0,0-14.8,8.9-16.8,13.1c-2,4.3-3.2,12.8-2.1,15.3c1.1,2.4,0.3,18,0.3,18l-0.5,29.2
						c0,0,11-4,17.6-5.2c6.6-1.2,12.5-2.4,12.5-2.4s-4.1-11-4.4-19.8c-0.3-8.9,2.1-25,0.6-31.8C513.5,191.3,507.8,181.7,507.8,181.7
						z"/>
					<g>
						<path class="st37" d="M503.7,178.5c10.5-11.5-0.3-23.2-4.8-28.5c-3.3-3.8-18.8,4.1-19.4,4.8c-1,1.2-1.4,3.4,0,4.2
							c1.4,0.7,2.8,0.9,4.2,1.7c1.7,1.4,3.5,2.7,5.3,4.1c-0.4,1.3,1.9,2.9,2.8,5.1c0.9,2.2,4.8,1.2,4.8-2.4
							C496.4,166.3,502.5,179,503.7,178.5z"/>
						<path class="st38" d="M481.4,159.7c-0.4,1.6-0.9,3.3-1,4.9c-0.1,1.5,0.5,1.5,1,3c0.5,1.5-1.4,3.6-1.3,5c0,0.2,0.1,0.3,0.2,0.5
							c0.6,0.9,2.4,0.7,2.8,0.7c1.1,2.5,2.3,5,3.4,7.5c0.2,0.5,0.6,1,1.2,1.4c1.7,0.9,4.1-0.8,4.9-1.4c2.6-1.9,3.6-4.7,3.9-5.7
							c0.9-3.4,0-6.2-0.4-7.3c-1.1,0.4-2.1,0.9-3.2,1.3c-0.2-0.6-1.2-3.2-2.1-4.7c-0.3-0.6-0.6-0.8-0.8-0.9c-0.8-0.4-1.7,0.1-2.3-1
							c-0.8-1.4-1.5-3.9-3-3.9C483,159.2,482.7,159.6,481.4,159.7z"/>
						<g>
							<defs>
								<path id="XMLID_70_" d="M509.3,183.4c-0.9-1-1.8-2-2.5-3c-0.7-0.8-1.1-1.4-1.4-2.2c-0.3-0.7-0.3-1.4-0.4-1.9
									c-0.2-0.2-0.6-0.5-0.9-1c-0.6-0.9-0.7-1.7-0.8-2c-0.2-0.9-0.9-2.1-3.1-3.5c0-0.4,0.5-3.8-1.6-5.6c-0.2-0.2-0.9-0.7-1.9-0.9
									c-3.4-0.9-4.4,2.7-2,5.1c2.9,2.9,2.3,6.5,0.8,8.8c-0.9,1.4-1.4,2.5-1.8,3c-0.1,0.2-0.4,0.5-0.8,0.8c-0.5,0.4-1.6,0.8-4.4,2
									c2.2-0.9,4.8,1.3,5.9,3.7c1.1,2.4-0.1,4.5,0.8,5.2C496.1,192.7,499.6,191.5,509.3,183.4z"/>
							</defs>
							<use xlink:href="#XMLID_70_"  style="overflow:visible;fill:#D08B73;"/>
							<clipPath id="XMLID_87_">
								<use xlink:href="#XMLID_70_"  style="overflow:visible;"/>
							</clipPath>
							<polygon class="st55" points="489,182.1 496.8,173.4 492.9,185.9 487.2,182.5 							"/>
						</g>
					</g>
					<path class="st31" d="M499.9,198.7l11,24.1c-2.4,0.3-12.1-13.7-11-16.4C500.8,203.9,499.9,198.7,499.9,198.7z"/>
					<g>
						<defs>
							<path id="XMLID_69_" d="M517,203l6.6,21.5c0,0,2.1,3.3,1.4,4.9c-0.7,1.6-6.4,8.6-6.4,8.6s-14.1,15-15.3,15.9
								c-1.2,0.9-1.2,5.6-1.5,6.6s-3.8,3.7-4.9,4.1c-1.1,0.4-5.5-5-5.6-5.7c-0.1-0.7,0.6-2.7,0.4-3.3c-0.2-0.6-2.7,0.5-3.1-0.6
								c-0.4-1.1,1.1-2.9,2-2.9c0.9,0,5.8,0.3,6.6-0.3c0.8-0.6,15.4-24.1,15-26c-0.5-1.8-2.7-3-3.7-5c-0.9-2.1-6-16.5-6-16.5
								L517,203z"/>
						</defs>
						<use xlink:href="#XMLID_69_"  style="overflow:visible;fill:#D08B73;"/>
						<clipPath id="XMLID_88_">
							<use xlink:href="#XMLID_69_"  style="overflow:visible;"/>
						</clipPath>
						<path class="st56" d="M505.3,212c0,0,5.1-4.1,6.6-4.5c1.5-0.5,7,1.4,7,1.4l-1.6-5c0,0-5.5-1.2-7.4,0c-2,1.2-6.1,4.9-6.1,4.9
							L505.3,212z"/>
					</g>
					<path class="st30" d="M507.8,181.2c0,0,7.9,6.7,9.5,11.9c1.5,5.2,1.5,14,1.5,14s-3.4-2.6-5-2.1c-1.6,0.5-6.5,3-7.3,3.8
						c-0.8,0.8-1.8,1.3-1.8,1.3l-7.1-9.3c0,0-5-6.5-4.2-7.8C494.1,191.6,496.8,186.1,507.8,181.2z"/>
					<g class="st57">
						<path class="st10" d="M498,167.4c-0.1-0.1,0.3-0.3,0.3-0.6c0-0.3-0.3-0.9-0.9-1.2c-0.5-0.3-1.2-0.2-1.5,0.1
							c-0.3,0.3-0.7,0.5-0.8,0.4c0-0.1,0.1-0.3,0.4-0.8c0.4-0.5,1.3-0.8,2.2-0.4c0.8,0.4,1.3,1.3,1,2c-0.1,0.3-0.4,0.5-0.5,0.5
							C498.1,167.4,498,167.4,498,167.4z"/>
					</g>
				</g>
				<g>
					<g>
						<path class="st37" d="M129.2,366.7c-0.1-1.4-1.2-2.4-1.9-3.4c-1.4-2-2.5-4-3.1-6.4c-0.5-1.9-0.8-3.7-0.9-5.6
							c0-1.1,0.1-2.3,0.1-3.4c0-0.3,0-0.8-0.2-1c-0.2-0.3-0.6-0.2-0.7-0.4c-0.1-0.1,0,0,0,0c0.9-1,1.8-2.1,2.6-3.1
							c0.4,0.2,0.7,0.4,1.2,0.5c0.9,0.4,1.9,0.8,3,0.8c1.9-0.1,3.3-2.2,4.3-3.4c5.6-6.4,10.2-13,13.8-20.6c1.9-4,2.6-7.8,3.6-12
							c0.5-1.9,1-3.6,1.5-5.5c0.3-1,0.5-1.9,0.5-2.9c0.1-1.3-0.4-2.4-0.8-3.6c-13.8-10-27.6-17.1-44.4-21.2c-7,0.4-18.7,2.5-23.7,6
							c-5,3.4-4.5,6.3-5.3,10.1c-0.8,3.8-0.1,5.7,0.9,8.8c0.7,2.3,2,4.4,3.8,5.9c1.5,1.2,3.4,1.4,5.2,1.5c3.5,0.1,7-0.6,10.4-1.2
							c7.4-1.4,14.7-2.8,22.2-3.4c1.8-0.1,3.4,0.1,5.1,0s3.1-0.4,4.7-0.5c1.2-0.1,2.4-0.3,3.5,0.3c0.4,0.2,0.8,0.5,0.8,0.9
							c0.1,0.3,0,0.5,0,0.7c-0.1,0.8-0.5,1.4-0.8,2.2c-0.7,1.6-1.2,3-1.9,4.6c-1.5,3.1-3.3,5.9-5.5,8.6c-2.2,2.7-4.4,5.4-7.1,7.9
							c-2.4,2.1-5.2,4.4-7.1,7c-0.5,0.7,0,1.4-0.3,2.1c0,0,0,0,0,0c-0.6,0.6-1.3,1.3-1.9,1.9c-0.1-0.1-0.1-0.2-0.2-0.3
							c-0.5-0.6-0.8-0.8-1.7-0.7c-1.7,0.3-3.2,1.1-4.8,2c-1.6,0.9-3.5,1.8-4.6,3.4c-0.4,0.6-0.6,1.2-0.3,2c0.5,1.2,1.7,2.2,2.6,3.1
							c2.4,2.4,4.7,4.6,7,7c3.6,3.7,7.1,7.4,11,10.8c1.5,1.3,3.1,2.5,4.9,3.3c0.8,0.4,1.7,0.7,2.6,0.5
							C128.6,369.3,129.3,368,129.2,366.7z"/>
						<path class="st33" d="M85.5,251.6c0.5,2.4,1.6,4.7,2.7,6.9c0.6,1.1,1.3,2,2.3,2.8c1.6,1.3,3.7,2,5.6,2.7
							c2.9,1,5.8,1.8,8.7,2.7c4.7,1.4,7,1.9,7.7,2c2.9,0.6,7.2,1,12.7,0.3c0.6,0.8,1.7,1.9,3.3,2.9c2,1.2,3.7,1.5,4.3,1.6
							c1,0.2,1.8,0.2,3.4,0.1c1-0.1,1.9-0.2,2.9-0.1c1.5,0.1,2.8,0.8,4.2,1c1.3,0.2,2.8-0.3,2.8-1.8c0-0.3-0.1-0.5-0.9-1.7
							c-0.7-0.9-1.3-1.6-1.7-2.1c-1.9-0.4-3.4-0.8-4.4-1.1c-5.2-1.5-8.2-2.4-13.4-3.5l0,0c-0.3-0.1-0.8-0.2-1.5-0.3
							c-6.2-1.4-8.2-3.5-15.8-7.5c-5.1-2.6-7.3-3.3-9.9-6.3c-0.9-1.1-1.5-2-1.9-2.7L85.5,251.6z"/>
						<path class="st37" d="M86.3,225.9c-0.8-0.1-0.6-0.2-3-1c-2.2-0.7-3.3-1-3.7-1.4c-0.4-0.3-0.8-0.9-1.1-2
							c-0.3,0-2.7,0.1-4.2-1.7c-1.4-1.7-1.5-4.3-0.1-6.3c-0.3-0.6-1.6-3.3-0.7-6.5c1-3.8,4.2-5.5,4.7-5.7c0-0.2-0.5-3.8,2.2-6.1
							c2-1.7,4.8-2,7.2-0.9c1.4-2.3,4-3.5,6.5-3.1c3.1,0.5,4.5,3.2,4.6,3.5c0.8,0.3,3.3,1.3,4.6,3.7c1.7,3.2,0.6,7.7-2.8,10.8
							c-0.6,1.4-1.4,3.3-2.7,5.5c-2.1,3.6-3.9,5.8-4.4,6.3C90.8,223.7,88.7,226.1,86.3,225.9z"/>
						<path class="st38" d="M152.5,355.2c-0.3-1.3-0.5-2.6-0.8-3.9l-9.6-1.8l-4.1,5.1l0.9,7.3l15.4-0.2L152.5,355.2z"/>
						<path class="st27" d="M71.1,292.5c-0.6,3-0.5,5.6,0.7,8.4c0.8,2.1,2,4.5,3.8,5.9c1.5,1.2,3.6,1.6,5.4,1.9
							c3.6,0.6,7.2,0.7,10.8,0.6c7.9-0.1,15.7-0.6,23.6-0.2c1.9,0.1,3.7,0.3,5.6,0.1c1.8-0.1,3.5-0.5,5.2-0.7c1.3-0.1,2.7-0.3,4.1,0
							c0.5,0.1,1,0.2,1.2,0.7c0.1,0.2,0.1,0.5,0.1,0.8c0.1,0.9,0.2,1.9,0.2,2.8c0.2,2.1,0.4,4.1,0.6,6.2c0.4,4,1,7.9,1.5,11.9
							c0.5,3.8,1.1,7.7,1.4,11.6c0.3,3.4,0.2,7,1.1,10.3c0.3,0.9,0.7,1.8,1.7,1.8c1.2,0,2.5-0.6,3.7-0.9c2-0.5,4-0.9,6-1.5
							c1.7-0.4,3.3-0.9,5-1.5c0.9-0.3,1.8-0.7,2.5-1.4c1.2-1.2,0.5-3.6,0.3-5.1c-1-7.9-2.1-15.8-3.4-23.7c-0.7-4.2-1.5-8.3-2-12.5
							c-0.2-1.9-0.3-3.8-0.5-5.7c-0.1-1-0.2-2-0.6-2.9c-0.5-1.2-1.2-2.4-2-3.4l-46.6-16.7c0,0-19.2,0-24.1,3.6
							C71.8,286.5,71.1,292.5,71.1,292.5z"/>
						<path class="st37" d="M138.1,357.3c-0.7-0.2-1.2,0-1.6,0.7c-0.9,1.4-1.1,3.3-1.4,5c-0.3,1.9-0.6,4-0.3,5.9
							c0.1,0.8,0.4,1.4,1.1,1.7c1.2,0.5,2.8,0.4,4.1,0.4c3.3,0,6.7,0,10,0.1c5.1,0,10.2,0.3,15.3-0.2c1.9-0.2,3.9-0.4,5.7-1.2
							c0.8-0.3,1.7-0.8,2.1-1.6c0.7-1.2,0.4-2.9-0.6-3.9c-1-0.9-2.5-1-3.7-1.2c-2.4-0.4-4.7-1.1-6.9-2.1c-1.8-0.8-3.5-1.8-5.1-3.1
							c-0.9-0.8-1.7-1.6-2.6-2.4c-0.3-0.2-0.6-0.5-0.9-0.6c-1-0.3-1.4,1.2-1.7,1.8c-0.4,0.7-1,1.3-1.8,1.7c-2.8,1.5-5.7,1-8.5,0
							C140.3,358.1,139.2,357.6,138.1,357.3z"/>
						<g>
							<defs>
								<path id="XMLID_65_" d="M80,227.3c-0.9,1.2-1.4,2.6-2,3.9c-0.7,1.7-1.3,3.4-1.9,5.1c-1.2,3.5-2.2,7-2.9,10.6
									c-1.5,7.7-1.8,15.6-2.3,23.5c-0.2,3.7-0.5,7.4-0.8,11.1c-0.2,2.8,0,5.7,1.1,8.4c0.4,0.9,1.1,2.2,2.3,1.8
									c0.6-0.2,1.1-0.7,1.5-1.2c1-1,1.9-2.2,3-3c2.6-1.9,6.1-2.7,9.2-3.6c3.6-1,7.3-1.5,10.9-2.4c0.8-0.2,1.5-0.4,2.3-0.7
									c0.6-6,1.2-12,2-17.9c0.8-6.1,0.6-12.4-1.2-18.4c-0.9-3-2.2-6-3.9-8.7c-1.8-2.8-4.3-5.3-6.3-8l-9.8-2.1L80,227.3z"/>
							</defs>
							<use xlink:href="#XMLID_65_"  style="overflow:visible;fill:#12A189;"/>
							<clipPath id="XMLID_89_">
								<use xlink:href="#XMLID_65_"  style="overflow:visible;"/>
							</clipPath>
							<path class="st58" d="M79.2,244.3c0,3.6,0.1,3.6,0.3,7.3c0.2,3.9,0.1,7.9,1.2,11.7c1,3.5,3.4,7.6,7.5,7.7
								c1,0,4.9-0.4,5.1-1.4c0.1-0.3-0.5-1.2-0.7-1.5c-0.8-1.9-5.6-13-7.2-16.7c-0.1-0.2-0.2-0.5-0.3-0.7L79.2,244.3z"/>
						</g>
						<g>
							<defs>
								<path id="XMLID_66_" d="M89.4,268.6c0.3,2.4,1.1,4.9,2.1,7.1c0.5,1.1,1.1,2.2,2,3c1.5,1.4,3.5,2.3,5.3,3.2
									c6.5,2.9,4.2,2.1,8.4,3.5c8.3,2.8,18.2,4.8,20.9,5.4c3,3.2,5.4,3.8,6.4,4c0.4,0.1,1.7,0.4,3.3,0.4c1,0,1.9,0,2.9,0.1
									c1.4,0.2,2.7,1.1,4.1,1.4c1.3,0.3,2.8-0.1,3-1.6c0.1-0.7-0.3-1.3-0.8-1.8c-2.2-2.3-4.9-3.4-5.2-3.5
									c-3.4-1.1-7.2-2.4-11.5-3.6c-7.8-5.2-13.5-8.3-17.8-10.4c-2.2-1-6.8-2.9-9.9-7.6c-0.6-0.9-1.2-1.9-1.7-2.9L89.4,268.6z"/>
							</defs>
							<use xlink:href="#XMLID_66_"  style="overflow:visible;fill:#D08B73;"/>
							<clipPath id="XMLID_90_">
								<use xlink:href="#XMLID_66_"  style="overflow:visible;"/>
							</clipPath>
							<path class="st59" d="M87.9,271.7c0,0,5.7-2.8,7.6-2.9c2-0.1,9.2-0.8,9.2-0.8L101,263l-12.7,4.4L87.9,271.7z"/>
						</g>
						<g>
							<defs>
								<path id="XMLID_67_" d="M94.1,229.3c0.4-1,1.1-2,1.9-2.7c1.1-1,2.5-1.2,3.9-1.7c0.9-0.3,1.7-0.5,1.8-1.6
									c0-0.1,1.2-6.9,1.3-7c0.3-0.4,1.1-0.3,1.6-0.5c2.6-0.9-0.8-4.6-1.4-5.5c-0.5-0.8-0.1-1.4-0.1-2.3c0-0.6-0.3-1.1-0.5-1.6
									c-0.2-0.6-0.3-1.2-0.3-1.9c0-0.4-0.1-0.9-0.1-1.3c-0.7,0.4-0.5-0.1-1.3-0.1c-0.9,0-1.2,0.8-1.4,1.6
									c-0.5,1.3-0.8,2.3-1.8,3.3c-0.9,0.8-1.6,1.5-1.9,2.7c-0.1,0.4,0.3,4.8-1.3,3.7c-0.8-0.5-0.7-2.4-0.9-3.2
									c-0.2-1.1-0.7-1.6-1.5-2.3c-1-0.9-1.2-2.7-2.9-2.3c-2.4,0.6-1.2,3.5-0.8,5c0.3,1,0.6,2.2,1.4,2.9c0.6,0.5,1.3,0.4,2,0.1
									c0,0-0.1,0.1-0.1,0.2c-0.4,0.9,0.1,1.7,0.1,2.4c0,1.2-1.3,2.2-2,2.7c-1.7,1.2-3.5,1.1-4.1,1c-0.3,0.4-0.8,1-1.7,1.5
									c-1.1,0.6-2,0.7-2.5,0.7L94.1,229.3z"/>
							</defs>
							<use xlink:href="#XMLID_67_"  style="overflow:visible;fill:#D08B73;"/>
							<clipPath id="XMLID_91_">
								<use xlink:href="#XMLID_67_"  style="overflow:visible;"/>
							</clipPath>
							<path class="st60" d="M100.8,224.7c0.4,0.5-6.2,0.4-9.1-3.5c1,2.9,6.5,7.8,6.5,7.8L100.8,224.7z"/>
						</g>
						<path class="st31" d="M77.9,228c-0.9-0.3,0.8-2.7,1.1-3.1c0.7-1,1.6-1.7,2.9-1.8c1.5-0.2,3.2,0.3,4.6,0.9c2.5,1.2,4.8,3,7,4.7
							c1.7,1.3,3.6,2.8,4.8,4.6c0.3,0.4,0.5,0.9,0.6,1.4c0.1,0.4,0.1,0.7,0.2,1.1c0.1,0.4,0.3,1.1,0.2,1.6c-0.1,0.5-0.4,0.2-0.6-0.1
							c-0.9-1-1.7-2.2-2.5-3.3c-1.6-2-3.5-3.6-5.8-4.9c-1.7-1-3.5-1.7-5.4-1.8c-2.2-0.2-4.2,0.6-6.3,0.8
							C78.3,228,78.1,228.1,77.9,228z"/>
						<path class="st61" d="M79.1,243.3c1.7,6,3.1,12,4.8,18c0.6,2,1.2,4.2,2.5,5.9c0.8,1.1,2.2,1.5,2.2,1.5
							c0.4,0.2,0.7,0.3,1.1,0.4c1.2,0.2,2-0.4,3.3-1c2.3-1,2.4-0.3,4.9-1.4c1.3-0.6,1.6-1,2.7-1.1c0.6-0.1,1.1-0.1,1.3-0.5
							c0.3-0.5-0.1-1.3-0.2-1.5c-0.2-0.4,0.3,0.1-1.3-7.7c-1.2-5.9-2-12-4.1-17.7c-0.3-0.7-0.6-1.4-0.9-2.1L79.1,243.3z"/>
						<path class="st33" d="M91,211.6c-0.2-1-1.1-0.4-1.3-1.3s0.7-0.7,0.5-1.5c-0.1-0.8-1.8-0.6-1.2,2
							C89.7,213.4,91.2,212.5,91,211.6z"/>
					</g>
					<g>
						<path class="st45" d="M116.3,316.6H76c-1.1,0-2-0.9-2-2v-4.4c0-1.1,0.9-2,2-2h40.2c1.1,0,2,0.9,2,2v4.4
							C118.3,315.7,117.4,316.6,116.3,316.6z"/>
						<path class="st45" d="M63.4,281.4c0-7.2,0.2-14.3-0.1-21.5c-0.2-4.7-0.1-9.5,0.5-14.2c0.3-2.1,1.7-11.5,5.8-9.7
							c0.8,0.3,1.1,1.5,1.3,2c-0.2,14.5-0.4,29-0.5,43.4c0,1.9-1.3,3.4-2.8,3.4h-1.3C64.6,284.8,63.4,283.3,63.4,281.4z"/>
						<path class="st46" d="M63.2,257v45.5c0,3.7,1.5,7.2,4,9.8c2.6,2.6,6.1,4,9.8,4h34"/>
						<rect x="91.6" y="316.6" class="st47" width="3.4" height="49.4"/>
						<rect x="88.9" y="339.2" class="st47" width="9" height="16.9"/>
						<path class="st47" d="M123.5,367.7c-4-2.7-15.1-9.3-30.8-9.1c-14.9,0.2-25.5,6.4-29.5,9.1c0-0.9,0-1.9,0-2.8
							c4.3-2.7,14.8-8.6,29.5-8.8c15.5-0.2,26.6,6.1,30.8,8.8C123.5,365.8,123.5,366.7,123.5,367.7z"/>
						<path class="st47" d="M67,367.7c0-2.1-1.7-3.9-3.9-3.9c-2.1,0-3.9,1.7-3.9,3.9c0,2.1,1.7,3.9,3.9,3.9
							C65.3,371.5,67,369.8,67,367.7z"/>
						<path class="st47" d="M127.4,367.7c0-2.1-1.7-3.9-3.9-3.9c-2.1,0-3.9,1.7-3.9,3.9c0,2.1,1.7,3.9,3.9,3.9
							C125.6,371.5,127.4,369.8,127.4,367.7z"/>
						<path class="st47" d="M97,367.7c0-2-1.6-3.6-3.6-3.6c-2,0-3.6,1.6-3.6,3.6s1.6,3.6,3.6,3.6C95.4,371.3,97,369.7,97,367.7z"/>
					</g>
				</g>
				<g>
					<g>
						<path class="st45" d="M203.9,310.4h40.2c1.1,0,2-0.9,2-2V304c0-1.1-0.9-2-2-2h-40.2c-1.1,0-2,0.9-2,2v4.4
							C201.9,309.5,202.8,310.4,203.9,310.4z"/>
						<path class="st62" d="M246.2,309.8c-14.8,0-29.5,0-44.3,0"/>
						
							<rect x="222.3" y="310.4" transform="matrix(-1 -1.224647e-16 1.224647e-16 -1 448.0621 676.4009)" class="st63" width="3.4" height="55.6"/>
						
							<rect x="219.6" y="339.2" transform="matrix(-1 -1.224647e-16 1.224647e-16 -1 448.0618 695.2709)" class="st47" width="9" height="16.9"/>
						<path class="st47" d="M193.9,367.7c4-2.7,15.1-9.3,30.8-9.1c14.9,0.2,25.5,6.4,29.5,9.1c0-0.9,0-1.9,0-2.8
							c-4.3-2.7-14.8-8.6-29.5-8.8c-15.5-0.2-26.6,6.1-30.8,8.8C193.9,365.8,193.9,366.7,193.9,367.7z"/>
						<path class="st47" d="M250.3,367.7c0-2.1,1.7-3.9,3.9-3.9c2.1,0,3.9,1.7,3.9,3.9c0,2.1-1.7,3.9-3.9,3.9
							C252.1,371.5,250.3,369.8,250.3,367.7z"/>
						<path class="st47" d="M190,367.7c0-2.1,1.7-3.9,3.9-3.9c2.1,0,3.9,1.7,3.9,3.9c0,2.1-1.7,3.9-3.9,3.9
							C191.7,371.5,190,369.8,190,367.7z"/>
						<path class="st47" d="M220.4,367.7c0-2,1.6-3.6,3.6-3.6c2,0,3.6,1.6,3.6,3.6s-1.6,3.6-3.6,3.6
							C222,371.3,220.4,369.7,220.4,367.7z"/>
					</g>
					<g>
						<path class="st37" d="M248.8,350.3c0,0-3.6,10.4-4.1,15c-0.5,4.6,0.7,6.8,2,6.8c1.4,0,14.9-1.1,14.9-1.1s2.3-3.6,2.3-4.3
							s-2.8-7.3-2.8-9.5c0-2.1-2-7-2-7H248.8z"/>
						<path class="st37" d="M189.3,350.3v8.3c0,0-7.3,6.8-7.3,9.1s3,4.1,5.1,3.8c2.1-0.3,12.9,0.3,13.8-0.7c1-1,1.3-12.9,1.3-12.9
							l-1.6-7.7H189.3z"/>
						<g>
							<defs>
								<path id="XMLID_33_" d="M206.4,276.9c0,0-9.8,4.6-13.4,9.6c-3.6,5.1-4.9,4.6-6.5,6.7c-1.6,2.1-2,3.7-0.8,6.4
									c1.1,2.6,1.8,47.9,1.8,47.9v6.2c0,0,3.8-1.1,5.6-1c1.8,0.2,6.6,1,8.4,1.3c1.8,0.3,1.1-5.5,1.1-5.5l1.5-4.7
									c0,0,1.3-30.8,2.3-33.4c1-2.6,9.1-7.2,9.1-7.2s0-1.3,8.8,0c8.8,1.3,17.3-2.9,19.2-0.7c2,2.3,2.3,13.7,2.3,19.9
									c0,6.2,0.7,10.4,0,14c-0.7,3.6,1.3,13,1.6,14.3c0.3,1.3,0.2,2.8,0.2,2.8s1.7-1.2,5-1.2c3.3,0,8.8-0.3,8.8-0.3
									s-2.3-7.5,0-12.4c2.3-4.9,3.3-23.2,3.3-28.4c0-5.2,2.3-15.3,0-19.2c-2.3-3.9-24.1-15.2-24.1-15.2H206.4z"/>
							</defs>
							<use xlink:href="#XMLID_33_"  style="overflow:visible;fill:#434E84;"/>
							<clipPath id="XMLID_92_">
								<use xlink:href="#XMLID_33_"  style="overflow:visible;"/>
							</clipPath>
							<path class="st64" d="M215.5,303.2c0,0-11.1,6.8-14.5,6.8s3.9,0.7,4.6,7.4C205.9,321.2,215.5,303.2,215.5,303.2z"/>
							<path class="st64" d="M213.6,345.1c0,0-11.1,2.6-14.5,2.6s3.9,0.3,4.6,2.8C204,351.9,213.6,345.1,213.6,345.1z"/>
							<path class="st64" d="M242.1,301.9c0,0,6.5,3.9,9.9,3.9s-6.5,2.3-6.5,6.1C245.5,315.7,242.1,301.9,242.1,301.9z"/>
							<path class="st64" d="M242.1,339.7c0,0,6.5,3.9,9.9,3.9s-6.5,2.3-6.5,6.1C245.5,353.4,242.1,339.7,242.1,339.7z"/>
						</g>
						<g>
							<defs>
								<path id="XMLID_4_" d="M215.7,219.5c-9.7,3.9-21.5,6.7-24.4,18c-0.7,2.8-1.1,5.6-1.8,8.4c-0.5,1.9-2.5,4.9-1.6,6.9
									c1.3,2.7,7.9,3.5,10.4,3.6l17.4,28.2l22.5-5.4l13-24.8l4.1-1.2c0,0,2.4,0.2,2.4-1.1c0-3.2-1.4-6.8-2.1-9.8
									c-1-4.5-1.5-10.2-3.5-14.3c-2.3-4.8-8.4-4.9-13-6c-3.5-0.8-6.9-1.7-10.4-2.5H215.7z"/>
							</defs>
							<use xlink:href="#XMLID_4_"  style="overflow:visible;fill:#4485F4;"/>
							<clipPath id="XMLID_93_">
								<use xlink:href="#XMLID_4_"  style="overflow:visible;"/>
							</clipPath>
							<path class="st65" d="M204.2,255.6c0,0,1,0.4,1.4-1c1-3.6,1.9-11.6,1.8-13.7c-0.2-2.8,1.2,11.9,0,16.3c-1.1,4.4-3.8,7-3.8,7
								L204.2,255.6z"/>
							<path class="st65" d="M242.3,255.7c-0.4-0.1-0.8-0.5-0.9-0.9c-0.5-2.7-2-12-1.9-14.3c0.2-2.8-1.2,11.9,0,16.3
								c1.1,4.4,3.8,7,3.8,7l-0.3-7.9L242.3,255.7z"/>
							<ellipse class="st66" cx="222.5" cy="224.6" rx="12.1" ry="10.8"/>
						</g>
						<g>
							<defs>
								<path id="XMLID_47_" d="M214,219.9c-0.2,0.1,0,6.2,0,6.7c0,1-0.1,1.7,0.3,2.5c1.1,2,3,3.6,5.3,3.8c3.8,0.4,7.4-0.7,10.4-2.8
									c0.3-0.2,2.3-2.6,2.3-2.9v-11.7C232.3,215.5,214.1,219.9,214,219.9z"/>
							</defs>
							<use xlink:href="#XMLID_47_"  style="overflow:visible;fill:#D08B73;"/>
							<clipPath id="XMLID_94_">
								<use xlink:href="#XMLID_47_"  style="overflow:visible;"/>
							</clipPath>
							<path class="st67" d="M212.5,225.6c3.7,2.4,6.7,3.4,10.6,3.1c3.9-0.4,11.6-7.8,11.6-7.8l-1.5-5.4l-20.7,2.9V225.6z"/>
						</g>
						<path class="st44" d="M209.5,196.2c0,0-0.3,14.8,0,19.2c0.3,4.4,5.2,9.5,8.3,9.9c3.1,0.5,6.7,2.1,8.5,0
							c1.8-2.1,6.4-4.9,7.2-8.5c0.8-3.6-0.3-13.7,0-14.8c0.3-1.1-0.8-9.5-2.6-11.1c-1.8-1.6-7-2.1-9.3-2.1
							C219.3,188.9,210.9,190.1,209.5,196.2z"/>
						<path class="st38" d="M212.9,201c0,0-1.6,7.2-1.5,9.5c0.2,2.3,0.2,6.7,2.1,6.5c2-0.2,4.1-4.9,7.8-4.9c3.7,0,5.4,3.9,7.8,3.7
							c2.4-0.2,2.9-2.9,3.1-7.5c0.2-4.6-3.6-12.1-5.9-12.1c-2.3,0-1.5,2.3-4.6,2.3c-3.1,0-3.3-2.3-5.4-2.3S212.9,201,212.9,201z"/>
						<g>
							<defs>
								<path id="XMLID_24_" d="M243.1,255.9c0,0,2.4-3.6,5.3-3.9c2.9-0.2,8.1,0.3,8.1,0.3l-3.1,19.5c0,0,1,2.2,0.2,3.3
									c-0.7,1.1-4.4,2.4-4.4,2.4l-19.9,11.6h-1.7l-1-2.3l-2.7-0.5l-2.1,2.8h-2.4v-7.1l3.8-2.3l2.8,1.8c0,0,13.2-8.2,14.9-10.4
									c1.7-2.3,1.7-2.3,1.7-2.3L243.1,255.9z"/>
							</defs>
							<use xlink:href="#XMLID_24_"  style="overflow:visible;fill:#D08B73;"/>
							<clipPath id="XMLID_95_">
								<use xlink:href="#XMLID_24_"  style="overflow:visible;"/>
							</clipPath>
							<path class="st68" d="M240,260.6c0,0,4.2-4.7,8.5-5.1c4.2-0.3,10.9-0.2,10.9-0.2l0.7-5.1l-13.5-1.6l-8.6,8L240,260.6z"/>
						</g>
						<g>
							<defs>
								<path id="XMLID_16_" d="M204.2,255.6l0.5,13.1l14.7,13.5v7.1h2.4l2.1-2.8l2.7,0.5l1,2.3c0,0,3.1,0.7,3.3,1.6
									c0.2,0.9-1.7,7.1-2.7,7.3c-1,0.2-7.8-0.6-7.8-0.6l-6-4c0,0,0.2-7.3,0-8.4c-0.2-1.1-17-7.9-18.6-9.9c-0.7-0.8-1-2.4-1.8-5.4
									c-1.8-6.3-3.2-12.9-3.6-16.4c1.3-0.3,3.5,0,5.2-0.1C199.4,253.1,202.1,254.8,204.2,255.6z"/>
							</defs>
							<use xlink:href="#XMLID_16_"  style="overflow:visible;fill:#BC6C56;"/>
							<clipPath id="XMLID_96_">
								<use xlink:href="#XMLID_16_"  style="overflow:visible;"/>
							</clipPath>
							<path class="st69" d="M189.9,252.6v3.6c0,0,6.3-0.8,7.7-0.7c1.4,0.2,7.5,2.3,7.5,2.3l1.5-3.3
								C206.5,254.5,191.6,252,189.9,252.6z"/>
						</g>
					</g>
				</g>
				<g>
					<path class="st21" d="M398.1,273.7H131.9c-2,0-3.6,1.6-3.6,3.6v2.4c0,2,1.6,3.6,3.6,3.6h266.2c2,0,3.6-1.6,3.6-3.6v-2.4
						C401.7,275.3,400.1,273.7,398.1,273.7z"/>
					<path class="st70" d="M398.1,281.2H131.9c-2,0-3.6-1.6-3.6-3.6v2.1c0,2,1.6,3.6,3.6,3.6h266.2c2,0,3.6-1.6,3.6-3.6v-2.1
						C401.7,279.5,400.1,281.2,398.1,281.2z"/>
					<path class="st71" d="M355.5,283.2l1.1,1.9c1.1,2,3.3,3.2,5.6,3.2h12.6l-0.5-5.1H355.5z"/>
					<polygon class="st37" points="374.7,288.4 383.1,371.7 386.8,371.7 386.8,283.2 374.2,283.2 					"/>
					<path class="st71" d="M155.3,288.4h12.6c2.3,0,4.4-1.2,5.6-3.2l1.1-1.9h-18.7L155.3,288.4z"/>
					<polygon class="st37" points="143.2,283.2 143.2,371.7 146.9,371.7 155.8,283.2 					"/>
				</g>
				<g>
					<polygon class="st71" points="200.9,271 171.5,271 182.4,235.6 211.8,235.6 					"/>
					<polygon class="st37" points="203.3,271 174,271 184.9,235.6 214.2,235.6 					"/>
					<rect x="143.2" y="269.9" class="st71" width="53.9" height="3.7"/>
					<rect x="170.1" y="269.9" class="st37" width="31" height="3.7"/>
					<path class="st22" d="M197.4,254c0.4-2-0.1-3.8-1.3-4.2c-1.1-0.4-2.4,0.9-2.8,2.9c-0.4,2,0.1,3.8,1.3,4.2
						C195.7,257.2,197,255.9,197.4,254z"/>
				</g>
				<g>
					<rect x="237.7" y="235.6" class="st71" width="44.8" height="35.4"/>
					<rect x="239.2" y="235.6" class="st37" width="47" height="35.4"/>
					<rect x="239.3" y="271" class="st37" width="45.4" height="2.7"/>
					<path class="st22" d="M265.6,253.3c0-2-1.6-3.5-3.5-3.5c-2,0-3.5,1.6-3.5,3.5c0,2,1.6,3.5,3.5,3.5
						C264,256.8,265.6,255.3,265.6,253.3z"/>
				</g>
				<g>
					<polygon class="st71" points="338.5,271 367.9,271 357,235.6 327.7,235.6 					"/>
					<polygon class="st37" points="336.1,271 365.5,271 354.6,235.6 325.2,235.6 					"/>
					
						<rect x="342.4" y="269.9" transform="matrix(-1 -1.224647e-16 1.224647e-16 -1 738.6277 543.6197)" class="st71" width="53.9" height="3.7"/>
					
						<rect x="338.3" y="269.9" transform="matrix(-1 -1.224647e-16 1.224647e-16 -1 707.6155 543.6197)" class="st37" width="31" height="3.7"/>
					<path class="st22" d="M342,254c-0.4-2,0.1-3.8,1.3-4.2c1.1-0.4,2.4,0.9,2.8,2.9c0.4,2-0.1,3.8-1.3,4.2S342.5,255.9,342,254z"/>
				</g>
			</g>
			<line class="st72" x1="2.1" y1="372.6" x2="578.1" y2="372.6"/>
		</g>
	</g>
</g>
<g id="DESIGNED_BY_FREEPIK" class="st73">
	<g id="XMLID_1_" class="st74">
		<g id="XMLID_31_">
			<g id="XMLID_50_">
				<path id="XMLID_58_" class="st75" d="M300.8,398.8c-0.4,0.4-0.8,0.9-1.1,1.5l-0.5-0.2c-0.1-0.3-0.3-0.5-0.7-0.5
					c-0.3,0-0.6,0.3-0.5,0.7c0,0.3,0.3,0.6,0.7,0.5c0.1,0,0.1,0,0.2-0.1l0.5,0.2c-0.3,0.6-0.4,1.1-0.5,1.7l0.7,0.1
					c0.2-1.3,0.8-2.5,1.8-3.5L300.8,398.8z"/>
				<path id="XMLID_57_" class="st75" d="M306.3,396.5c-0.2,0-0.3,0-0.5,0l-0.1-0.6c0.2-0.1,0.3-0.4,0.3-0.6c0-0.4-0.4-0.7-0.8-0.6
					c-0.4,0-0.7,0.4-0.6,0.8c0,0.3,0.2,0.5,0.4,0.6l0.1,0.6c-0.7,0.1-1.4,0.3-2.1,0.6l0.3,0.7c0.9-0.4,1.9-0.7,3-0.7
					c0.5,0,1,0.1,1.5,0.2l0.2-0.7C307.4,396.5,306.8,396.5,306.3,396.5z"/>
				<path id="XMLID_56_" class="st75" d="M312.9,399c0.3,0,0.6-0.3,0.5-0.7c0-0.3-0.3-0.6-0.7-0.5c-0.3,0-0.5,0.3-0.5,0.6l-0.4,0.4
					c-0.4-0.4-0.9-0.8-1.4-1.1l-0.4,0.6c1.1,0.7,2,1.7,2.6,2.9l0.7-0.3c-0.3-0.6-0.6-1.1-0.9-1.5l0.4-0.4
					C312.7,399,312.8,399,312.9,399z"/>
				<path id="XMLID_55_" class="st75" d="M305.7,406.7c-0.4,0-0.8,0-1.2,0c-0.9,0-1.7-0.1-2.5-0.2c-0.4-0.1-0.8-0.2-1.3-0.3
					c1,1.9,3.1,3.1,5.4,3.1c2.9,0,5.3-1.9,5.9-4.5c-0.7,0.4-1.5,0.8-2.5,1.1C308.5,406.3,307.1,406.6,305.7,406.7z"/>
				<path id="XMLID_51_" class="st75" d="M306.3,398c-3.4,0-6.1,2.7-6.1,5.9c0,0.4,0,0.8,0.1,1.3c0.7,0.5,2.7,0.9,5.3,0.7
					c2.9-0.2,5.3-1,6.7-2.2c0-0.2,0-0.4,0-0.6C311.9,400.2,309.3,398,306.3,398z M304.1,404.5c-1,0-1.8-0.8-1.8-1.8
					c0-1,0.8-1.9,1.8-1.9c1,0,1.8,0.8,1.8,1.9C306,403.7,305.1,404.5,304.1,404.5z M308.9,403.6c-0.8,0-1.4-0.6-1.4-1.4
					s0.6-1.4,1.4-1.4s1.4,0.6,1.4,1.4S309.6,403.6,308.9,403.6z"/>
			</g>
			<path id="XMLID_48_" class="st75" d="M322.3,399.8c-0.3-0.1-0.8-0.3-1.4-0.2c-0.6,0.1-0.8,0.3-0.8,1v0.9h2.2v1.7H320v5.5h-1.9
				v-5.5h-1.3v-1.7h1.3v-0.9c0-1.7,0.9-2.8,2.6-2.8c0.6,0,1.2,0.1,1.6,0.3V399.8z"/>
			<path id="XMLID_46_" class="st75" d="M327,403.2c-0.2,0-0.4,0-0.5,0c-0.9,0-1.5,0.5-1.5,1.6v3.9H323v-7.2h1.9v0.8
				c0.5-0.7,1.1-1,2-1c0.4,0,0.8,0.1,1.1,0.3L327,403.2z"/>
			<path id="XMLID_43_" class="st75" d="M334.6,405.1c0,0.2,0,0.5,0,0.7h-5.1c0.2,1,0.9,1.5,1.8,1.5c0.6,0,1.3-0.3,1.8-0.7l1.1,1.2
				c-0.8,0.7-1.9,1.1-3.1,1.1c-2.2,0-3.7-1.5-3.7-3.8c0-2.3,1.5-3.8,3.6-3.8C333.2,401.3,334.6,402.8,334.6,405.1z M329.5,404.4h3.2
				c-0.2-0.9-0.7-1.4-1.6-1.4C330.2,403,329.7,403.5,329.5,404.4z"/>
			<path id="XMLID_40_" class="st75" d="M342.3,405.1c0,0.2,0,0.5,0,0.7h-5.1c0.2,1,0.9,1.5,1.8,1.5c0.6,0,1.3-0.3,1.8-0.7l1.1,1.2
				c-0.8,0.7-1.9,1.1-3.1,1.1c-2.2,0-3.7-1.5-3.7-3.8c0-2.3,1.5-3.8,3.6-3.8C340.9,401.3,342.3,402.8,342.3,405.1z M337.2,404.4h3.2
				c-0.2-0.9-0.7-1.4-1.6-1.4C337.9,403,337.4,403.5,337.2,404.4z"/>
			<path id="XMLID_37_" class="st75" d="M350.6,405.1c0,2.2-1.5,3.8-3.5,3.8c-1,0-1.6-0.4-2.1-0.9v3.7h-1.9v-10.1h1.9v0.8
				c0.5-0.6,1.2-1,2.1-1C349.2,401.3,350.6,402.9,350.6,405.1z M345,405.1c0,1.1,0.7,2,1.8,2c1.1,0,1.8-0.9,1.8-2c0-1.1-0.7-2-1.8-2
				C345.7,403.1,345,403.9,345,405.1z"/>
			<path id="XMLID_34_" class="st75" d="M353.7,399.1c0,0.7-0.5,1.2-1.2,1.2c-0.7,0-1.2-0.5-1.2-1.2c0-0.7,0.5-1.2,1.2-1.2
				C353.2,397.9,353.7,398.4,353.7,399.1z M353.5,408.7h-1.9v-7.2h1.9V408.7z"/>
			<polygon id="XMLID_32_" class="st75" points="356.7,404 359.4,401.5 361.8,401.5 358.3,404.9 361.8,408.7 359.4,408.7 
				356.7,405.8 356.7,408.7 354.8,408.7 354.8,398 356.7,398 			"/>
		</g>
		<g id="XMLID_2_">
			<path id="XMLID_28_" class="st75" d="M225.1,408.6v-1.1c-0.5,0.7-1.4,1.2-2.4,1.2c-1.8,0-3.1-1.4-3.1-3.7c0-2.3,1.3-3.7,3.1-3.7
				c1,0,1.8,0.5,2.4,1.2v-3.8h1.1v9.8H225.1z M225.1,406.7v-3.2c-0.4-0.6-1.2-1.1-2.1-1.1c-1.4,0-2.3,1.2-2.3,2.7
				c0,1.6,0.8,2.7,2.3,2.7C223.8,407.8,224.7,407.3,225.1,406.7z"/>
			<path id="XMLID_25_" class="st75" d="M227.6,405c0-2.1,1.5-3.7,3.5-3.7c2.1,0,3.4,1.7,3.4,3.8v0.3h-5.7c0.1,1.3,1,2.4,2.5,2.4
				c0.8,0,1.6-0.3,2.2-0.9l0.5,0.7c-0.7,0.7-1.7,1.1-2.8,1.1C229.1,408.8,227.6,407.3,227.6,405z M231.1,402.2
				c-1.5,0-2.3,1.3-2.3,2.4h4.6C233.4,403.5,232.7,402.2,231.1,402.2z"/>
			<path id="XMLID_23_" class="st75" d="M235.3,407.6l0.6-0.8c0.5,0.5,1.4,1,2.3,1c1.1,0,1.7-0.5,1.7-1.2c0-1.7-4.4-0.7-4.4-3.3
				c0-1.1,1-2,2.6-2c1.2,0,2.1,0.5,2.6,1l-0.5,0.8c-0.4-0.5-1.2-0.9-2.1-0.9c-1,0-1.6,0.5-1.6,1.1c0,1.6,4.4,0.5,4.4,3.3
				c0,1.2-1,2.1-2.8,2.1C237,408.8,236,408.4,235.3,407.6z"/>
			<path id="XMLID_20_" class="st75" d="M242.2,399.8c0-0.4,0.3-0.7,0.7-0.7c0.4,0,0.7,0.3,0.7,0.7c0,0.4-0.3,0.7-0.7,0.7
				C242.5,400.5,242.2,400.2,242.2,399.8z M242.3,408.6v-7.1h1.1v7.1H242.3z"/>
			<path id="XMLID_17_" class="st75" d="M245.3,410.4l0.6-0.8c0.6,0.7,1.3,1,2.3,1c1.2,0,2.3-0.6,2.3-2.1v-1
				c-0.5,0.7-1.4,1.3-2.4,1.3c-1.8,0-3.1-1.4-3.1-3.7c0-2.3,1.3-3.7,3.1-3.7c1,0,1.8,0.5,2.4,1.2v-1.1h1.1v6.9
				c0,2.3-1.6,3.1-3.4,3.1C246.9,411.5,246.1,411.2,245.3,410.4z M250.4,406.6v-3.1c-0.4-0.6-1.2-1.1-2.1-1.1
				c-1.4,0-2.3,1.1-2.3,2.7c0,1.6,0.8,2.7,2.3,2.7C249.2,407.7,250,407.2,250.4,406.6z"/>
			<path id="XMLID_15_" class="st75" d="M258.1,408.6V404c0-1.2-0.6-1.6-1.6-1.6c-0.9,0-1.7,0.5-2.1,1.1v5.2h-1.1v-7.1h1.1v1
				c0.5-0.6,1.5-1.2,2.5-1.2c1.5,0,2.3,0.7,2.3,2.3v5H258.1z"/>
			<path id="XMLID_12_" class="st75" d="M260.6,405c0-2.1,1.5-3.7,3.5-3.7c2.1,0,3.4,1.7,3.4,3.8v0.3h-5.7c0.1,1.3,1,2.4,2.5,2.4
				c0.8,0,1.6-0.3,2.2-0.9l0.5,0.7c-0.7,0.7-1.7,1.1-2.8,1.1C262.1,408.8,260.6,407.3,260.6,405z M264.1,402.2
				c-1.5,0-2.3,1.3-2.3,2.4h4.6C266.4,403.5,265.7,402.2,264.1,402.2z"/>
			<path id="XMLID_8_" class="st75" d="M274,408.6v-1.1c-0.5,0.7-1.4,1.2-2.4,1.2c-1.8,0-3.1-1.4-3.1-3.7c0-2.3,1.3-3.7,3.1-3.7
				c1,0,1.8,0.5,2.4,1.2v-3.8h1.1v9.8H274z M274,406.7v-3.2c-0.4-0.6-1.2-1.1-2.1-1.1c-1.4,0-2.3,1.2-2.3,2.7c0,1.6,0.8,2.7,2.3,2.7
				C272.8,407.8,273.6,407.3,274,406.7z"/>
			<path id="XMLID_5_" class="st75" d="M280.4,408.6v-9.8h1.1v3.8c0.6-0.8,1.4-1.2,2.4-1.2c1.8,0,3.1,1.5,3.1,3.7
				c0,2.3-1.3,3.7-3.1,3.7c-1,0-1.9-0.5-2.4-1.2v1.1H280.4z M283.6,407.8c1.4,0,2.3-1.2,2.3-2.7c0-1.6-0.8-2.7-2.3-2.7
				c-0.9,0-1.7,0.5-2.1,1.1v3.2C281.9,407.3,282.7,407.8,283.6,407.8z"/>
			<path id="XMLID_3_" class="st75" d="M288.2,410.4c0.2,0.1,0.4,0.1,0.6,0.1c0.5,0,0.8-0.2,1.1-0.7l0.5-1.1l-3-7.1h1.2l2.4,5.8
				l2.3-5.8h1.2l-3.5,8.5c-0.4,1-1.1,1.4-2.1,1.4c-0.2,0-0.6,0-0.8-0.1L288.2,410.4z"/>
		</g>
	</g>
</g>
</svg>
