<?xml version="1.0" encoding="utf-8"?>
<!-- Generator: Adobe Illustrator 23.0.0, SVG Export Plug-In . SVG Version: 6.00 Build 0)  -->
<svg version="1.1" id="Capa_1" xmlns="http://www.w3.org/2000/svg" xmlns:xlink="http://www.w3.org/1999/xlink" x="0px" y="0px"
	 width="80.59px" height="91.58px" viewBox="0 0 80.59 91.58" enable-background="new 0 0 80.59 91.58" xml:space="preserve">
<g>
	<g>
		<path fill="#D8A73A" d="M66.01,6.99c-6.89,0-12.48,5.59-12.48,12.48c0,6.89,5.59,12.48,12.48,12.48c6.89,0,12.48-5.59,12.48-12.48
			C78.49,12.58,72.9,6.99,66.01,6.99z M66.01,29.45c-5.51,0-9.98-4.47-9.98-9.98c0-5.51,4.47-9.98,9.98-9.98
			c5.51,0,9.98,4.47,9.98,9.98C76,24.98,71.53,29.45,66.01,29.45z"/>
		<g>
			<path fill="#172F33" d="M45.7,1.82L2.33,40.95c-2.89,2.61-3.12,7.06-0.51,9.95l13.05,14.46c2.61,2.89,7.06,3.12,9.95,0.51
				l43.37-39.14c2.89-2.61,3.12-7.06,0.51-9.95L55.65,2.33C53.04-0.56,48.59-0.79,45.7,1.82z M60.41,14.82
				c0.14,2.1-1.45,3.92-3.55,4.06c-2.11,0.14-3.92-1.45-4.06-3.55c-0.14-2.1,1.45-3.92,3.55-4.06
				C58.45,11.13,60.26,12.72,60.41,14.82z"/>
			<path fill="#FFFFFF" d="M53.39,23.73c2.6,2.9,2.36,7.35-0.54,9.95L25.46,58.25c-2.9,2.6-7.35,2.36-9.95-0.54L9.76,51.3
				c-2.6-2.9-2.36-7.35,0.54-9.95l27.39-24.57c2.9-2.6,7.35-2.36,9.95,0.54L53.39,23.73z"/>
			<g>
				<g>
					<polygon fill="#E6B54A" points="14.84,41.73 17.02,42.6 18.98,41.3 18.82,43.65 20.66,45.1 18.38,45.68 17.56,47.88 
						16.31,45.89 13.97,45.8 15.47,43.99 					"/>
					<path fill="#FFFFFF" d="M18.84,44.29l-0.69-0.55l0.09-1.34l-1.12,0.74l-1.25-0.5l0.33,1.18C17,44.26,17.97,44.49,18.84,44.29z"
						/>
					<path fill="#D8D9DD" d="M18.63,45.15c-1.01,0.23-1.92,0.15-2.77-0.48c-0.21-0.16-0.38-0.34-0.51-0.53l-1.39,1.66l2.35,0.1
						l1.25,1.99l0.82-2.2l2.28-0.57L20,44.58C19.58,44.84,19.1,45.04,18.63,45.15z"/>
				</g>
				<g>
					<polygon fill="#E6B54A" points="20.52,36.63 22.71,37.5 24.66,36.2 24.5,38.55 26.35,40 24.07,40.58 23.25,42.78 22,40.8 
						19.65,40.7 21.16,38.89 					"/>
					<path fill="#FFFFFF" d="M24.52,39.19l-0.69-0.55l0.09-1.34l-1.12,0.74l-1.25-0.5l0.33,1.18
						C22.68,39.16,23.65,39.39,24.52,39.19z"/>
					<path fill="#D8D9DD" d="M24.32,40.05c-1.01,0.23-1.92,0.15-2.76-0.49c-0.21-0.16-0.38-0.34-0.51-0.53l-1.39,1.66L22,40.8
						l1.25,1.99l0.82-2.21L26.35,40l-0.67-0.53C25.26,39.74,24.79,39.95,24.32,40.05z"/>
				</g>
				<g>
					<polygon fill="#E6B54A" points="26.21,31.53 28.39,32.41 30.35,31.1 30.19,33.45 32.03,34.91 29.75,35.48 28.93,37.69 
						27.68,35.7 25.34,35.6 26.84,33.8 					"/>
					<path fill="#FFFFFF" d="M30.21,34.09l-0.69-0.55l0.09-1.34l-1.12,0.74l-1.25-0.5l0.33,1.18
						C28.36,34.07,29.34,34.29,30.21,34.09z"/>
					<path fill="#D8D9DD" d="M30,34.95c-1.01,0.23-1.92,0.15-2.76-0.49c-0.21-0.16-0.38-0.34-0.51-0.53l-1.39,1.66l2.34,0.1
						l1.25,1.99l0.82-2.2l2.28-0.58l-0.67-0.53C30.94,34.65,30.47,34.85,30,34.95z"/>
				</g>
				<g>
					<polygon fill="#E6B54A" points="31.89,26.43 34.07,27.31 36.03,26.01 35.87,28.35 37.71,29.81 35.43,30.38 34.62,32.59 
						33.37,30.6 31.02,30.5 32.52,28.7 					"/>
					<path fill="#FFFFFF" d="M35.89,28.99l-0.69-0.55l0.09-1.34l-1.12,0.74l-1.25-0.5l0.33,1.18
						C34.05,28.97,35.02,29.19,35.89,28.99z"/>
					<path fill="#D8D9DD" d="M35.69,29.86c-1.02,0.23-1.93,0.15-2.77-0.49c-0.21-0.16-0.38-0.34-0.51-0.53l-1.39,1.66l2.35,0.1
						l1.25,1.99l0.82-2.21l2.28-0.57l-0.67-0.53C36.63,29.55,36.15,29.75,35.69,29.86z"/>
				</g>
				<g>
					<polygon fill="#E6B54A" points="37.57,21.34 39.76,22.21 41.71,20.91 41.55,23.25 43.4,24.71 41.12,25.29 40.3,27.49 
						39.05,25.5 36.7,25.4 38.21,23.6 					"/>
					<path fill="#FFFFFF" d="M41.57,23.9l-0.69-0.55l0.09-1.34l-1.12,0.74l-1.25-0.5l0.33,1.18C39.73,23.87,40.71,24.09,41.57,23.9z
						"/>
					<path fill="#D8D9DD" d="M41.37,24.76c-1.02,0.23-1.92,0.15-2.76-0.49c-0.21-0.16-0.38-0.34-0.51-0.53L36.7,25.4l2.35,0.1
						l1.25,1.99l0.82-2.2l2.28-0.57l-0.67-0.53C42.31,24.45,41.84,24.65,41.37,24.76z"/>
				</g>
			</g>
		</g>
		<g>
			<path fill="#D8A73A" d="M61.71,56.5v35.08l3.82-1.52c0,0,3.88-2.21,3.02-2.84c-2.36-1.74,0.12-3.43,0.12-3.43v-2.67v-4.79
				c-3.07-1.53-3.14-3.48-3.14-3.48l3.14-3.05v-2.61l1.65-1.96l-2.36-5.66c-2.36,0.44,2.36-3.05,2.36-3.05H61.71z"/>
			<polygon fill="#D8D9DD" points="64.99,56.5 63.23,56.5 63.23,90.97 64.99,90.27 			"/>
			<path fill="#D8A73A" d="M66.01,29.31c-8.04,0-14.57,6.53-14.57,14.57c0,8.05,6.52,14.57,14.57,14.57
				c8.05,0,14.57-6.53,14.57-14.57C80.59,35.83,74.06,29.31,66.01,29.31z M70.81,42.78h-9.58c-1,0-1.81-0.81-1.81-1.81
				c0-1,0.81-1.81,1.81-1.81h9.58c1,0,1.81,0.81,1.81,1.81C72.62,41.97,71.81,42.78,70.81,42.78z"/>
			<path fill="#FFFFFF" d="M64.72,29.37c-1.56,1.32-2.95,2.79-3.96,4.49c-1.2,2.02-1.51,4.18-1.09,6.19c0.31-0.54,0.89-0.9,1.56-0.9
				h9.58c1,0,1.81,0.81,1.81,1.81c0,1-0.81,1.81-1.81,1.81h-9.58c-0.2,0-0.38-0.04-0.56-0.1c0.74,1.3,1.81,2.47,3.16,3.43
				c3.36,2.37,8.48,3.54,13.55,1.94c1.92-0.61,2.5-3.2,3.18-5.14c-0.5-7.59-6.82-13.6-14.54-13.6
				C65.58,29.31,65.15,29.33,64.72,29.37z"/>
			<path fill="#D8D9DD" d="M78.17,51.02c-4.79,2.95-11.64,0.74-15.79-2.45c-4.42-3.39-7.48-8.99-4.96-14.48
				c0.53-1.14,1.19-2.19,1.94-3.17c-4.7,2.42-7.91,7.31-7.91,12.96c0,8.05,6.52,14.57,14.57,14.57c5.7,0,10.64-3.28,13.03-8.05
				C78.77,50.62,78.48,50.83,78.17,51.02z"/>
		</g>
		<path fill="#D8A73A" d="M57.85,13.75c1.8-2.57,4.79-4.26,8.17-4.26c5.51,0,9.98,4.47,9.98,9.98c0,2.13-0.67,4.1-1.81,5.72h2.91
			c0.89-1.72,1.4-3.66,1.4-5.72c0-6.89-5.59-12.48-12.48-12.48c-4.38,0-8.22,2.26-10.45,5.68h2.28V13.75z"/>
	</g>
</g>
</svg>
