<?xml version="1.0" encoding="utf-8"?>
<!-- Generator: Adobe Illustrator 23.0.0, SVG Export Plug-In . SVG Version: 6.00 Build 0)  -->
<svg version="1.1" xmlns="http://www.w3.org/2000/svg" xmlns:xlink="http://www.w3.org/1999/xlink" x="0px" y="0px"
	 viewBox="0 0 500 500" style="enable-background:new 0 0 500 500;" xml:space="preserve">
<style type="text/css">
	.st0{fill:#E5B864;}
	.st1{fill:none;stroke:#F9E9F2;stroke-width:1.8718;stroke-miterlimit:10;}
	.st2{fill:none;stroke:#3B41B0;stroke-width:1.8718;stroke-miterlimit:10;}
	.st3{fill:#6790F9;}
	.st4{fill:#3B41B0;}
	.st5{fill:#496EF0;}
	.st6{fill:#E4B355;}
	.st7{fill:#EFC985;}
	.st8{fill:#5986E6;}
	.st9{fill:none;stroke:#496EF0;stroke-width:0.9359;stroke-miterlimit:10;}
	.st10{fill:#EEE8E1;}
	.st11{fill:none;stroke:#3B41B0;stroke-width:1.7057;stroke-miterlimit:10;}
	.st12{fill:#FFFFFF;}
	.st13{clip-path:url(#SVGID_2_);}
	.st14{fill:#EEBDBE;}
	.st15{fill:#D79A9D;}
	.st16{clip-path:url(#XMLID_6_);fill:#D79A9D;}
	.st17{clip-path:url(#XMLID_7_);fill:#D79A9D;}
	.st18{clip-path:url(#XMLID_8_);fill:#D79A9D;}
	.st19{fill:#1C1C1C;}
	.st20{fill:none;stroke:#FFFFFF;stroke-width:1.0471;stroke-miterlimit:10;}
	.st21{clip-path:url(#XMLID_9_);fill:none;stroke:#FFFFFF;stroke-width:10.4713;stroke-miterlimit:10;}
</style>
<g id="OBJECTS">
	<g>
		<circle class="st0" cx="249.56" cy="240.87" r="202.66"/>
		<g>
			<g>
				<polygon class="st1" points="418.93,193.36 418.93,199.55 415.42,199.55 415.42,243.11 461.16,243.11 461.16,329.11 
					355.87,329.11 355.87,199.55 351.19,199.55 351.19,193.36 				"/>
				<polygon class="st1" points="206.14,269.78 251.18,269.78 251.18,209.2 306.44,209.2 306.44,329.11 211.09,329.11 
					211.09,275.97 206.14,275.97 				"/>
			</g>
			<g>
				<g>
					<g>
						<line class="st2" x1="303.38" y1="114.98" x2="303.38" y2="151.03"/>
						<line class="st2" x1="366.61" y1="114.98" x2="366.61" y2="151.03"/>
						<rect x="293.05" y="112.91" class="st3" width="84.27" height="23.58"/>
						<rect x="293.05" y="112.91" class="st2" width="84.27" height="23.58"/>
					</g>
				</g>
				<g>
					<rect x="276.33" y="147.27" class="st3" width="117.7" height="182.2"/>
					<rect x="274.38" y="152.62" class="st4" width="121.61" height="6.15"/>
					<rect x="276.33" y="214.96" class="st5" width="117.7" height="2.48"/>
					<rect x="276.33" y="269.87" class="st5" width="117.7" height="2.48"/>
				</g>
				<g>
					<g>
						<g>
							<rect x="294.28" y="171.12" class="st6" width="17.1" height="22.34"/>
							<g>
								<polygon class="st7" points="295.11,192.91 293.74,189.36 304.06,171.12 307,171.89 								"/>
								<polygon class="st7" points="296.81,198.27 295.18,197.17 310.43,170.22 312.06,171.32 								"/>
							</g>
							<path class="st4" d="M312.28,194.54h-18.89v-24.32h18.89V194.54z M295.18,192.39h15.3v-20.03h-15.3V192.39z"/>
							<rect x="291.37" y="193.46" class="st4" width="22.91" height="5.93"/>
							<rect x="291.37" y="199.4" class="st8" width="22.91" height="4.74"/>
							<rect x="294.28" y="181.47" class="st4" width="17.1" height="2.15"/>
						</g>
						<g>
							<rect x="326.63" y="171.12" class="st6" width="17.1" height="22.34"/>
							<g>
								<polygon class="st7" points="327.46,192.91 326.09,189.36 336.41,171.12 339.36,171.89 								"/>
								<polygon class="st7" points="329.16,198.27 327.53,197.17 342.78,170.22 344.41,171.32 								"/>
							</g>
							<path class="st4" d="M344.63,194.54h-18.89v-24.32h18.89V194.54z M327.53,192.39h15.3v-20.03h-15.3V192.39z"/>
							<rect x="323.73" y="193.46" class="st4" width="22.91" height="5.93"/>
							<rect x="323.73" y="199.4" class="st8" width="22.91" height="4.74"/>
							<rect x="326.63" y="181.47" class="st4" width="17.1" height="2.15"/>
						</g>
						<g>
							<rect x="358.99" y="171.12" class="st6" width="17.1" height="22.34"/>
							<g>
								<polygon class="st7" points="359.81,192.91 358.44,189.36 368.77,171.12 371.71,171.89 								"/>
								<polygon class="st7" points="361.51,198.27 359.88,197.17 375.14,170.22 376.77,171.32 								"/>
							</g>
							<path class="st4" d="M376.98,194.54h-18.89v-24.32h18.89V194.54z M359.88,192.39h15.3v-20.03h-15.3V192.39z"/>
							<rect x="356.08" y="193.46" class="st4" width="22.91" height="5.93"/>
							<rect x="356.08" y="199.4" class="st8" width="22.91" height="4.74"/>
							<rect x="358.99" y="181.47" class="st4" width="17.1" height="2.15"/>
						</g>
					</g>
					<g>
						<g>
							<rect x="294.28" y="227.6" class="st6" width="17.1" height="22.34"/>
							<g>
								<polygon class="st7" points="295.11,249.39 293.74,245.84 304.06,227.6 307,228.37 								"/>
								<polygon class="st7" points="296.81,254.74 295.18,253.65 310.43,226.69 312.06,227.79 								"/>
							</g>
							<path class="st4" d="M312.28,251.02h-18.89v-24.32h18.89V251.02z M295.18,248.87h15.3v-20.03h-15.3V248.87z"/>
							<rect x="291.37" y="249.94" class="st4" width="22.91" height="5.93"/>
							<rect x="291.37" y="255.87" class="st8" width="22.91" height="4.74"/>
							<rect x="294.28" y="237.94" class="st4" width="17.1" height="2.15"/>
						</g>
						<g>
							<rect x="326.63" y="227.6" class="st6" width="17.1" height="22.34"/>
							<g>
								<polygon class="st7" points="327.46,249.39 326.09,245.84 336.41,227.6 339.36,228.37 								"/>
								<polygon class="st7" points="329.16,254.74 327.53,253.65 342.78,226.69 344.41,227.79 								"/>
							</g>
							<path class="st4" d="M344.63,251.02h-18.89v-24.32h18.89V251.02z M327.53,248.87h15.3v-20.03h-15.3V248.87z"/>
							<rect x="323.73" y="249.94" class="st4" width="22.91" height="5.93"/>
							<rect x="323.73" y="255.87" class="st8" width="22.91" height="4.74"/>
							<rect x="326.63" y="237.94" class="st4" width="17.1" height="2.15"/>
						</g>
						<g>
							<rect x="358.99" y="227.6" class="st6" width="17.1" height="22.34"/>
							<g>
								<polygon class="st7" points="359.81,249.39 358.44,245.84 368.77,227.6 371.71,228.37 								"/>
								<polygon class="st7" points="361.51,254.74 359.88,253.65 375.14,226.69 376.77,227.79 								"/>
							</g>
							<path class="st4" d="M376.98,251.02h-18.89v-24.32h18.89V251.02z M359.88,248.87h15.3v-20.03h-15.3V248.87z"/>
							<rect x="356.08" y="249.94" class="st4" width="22.91" height="5.93"/>
							<rect x="356.08" y="255.87" class="st8" width="22.91" height="4.74"/>
							<rect x="358.99" y="237.94" class="st4" width="17.1" height="2.15"/>
						</g>
					</g>
					<g>
						<g>
							<g>
								<rect x="294.28" y="284.08" class="st6" width="17.1" height="22.34"/>
								<g>
									<polygon class="st7" points="295.11,305.87 293.74,302.31 304.06,284.08 307,284.85 									"/>
									<polygon class="st7" points="296.81,311.22 295.18,310.12 310.43,283.17 312.06,284.27 									"/>
								</g>
								<path class="st4" d="M312.28,307.49h-18.89v-24.32h18.89V307.49z M295.18,305.35h15.3v-20.03h-15.3V305.35z"/>
								<rect x="291.37" y="306.42" class="st4" width="22.91" height="5.93"/>
								<rect x="291.37" y="312.35" class="st8" width="22.91" height="4.74"/>
								<rect x="294.28" y="294.42" class="st4" width="17.1" height="2.15"/>
							</g>
						</g>
						<g>
							<g>
								<rect x="333.27" y="282.72" class="st4" width="41.89" height="39.57"/>
								<g>
									<rect x="337.5" y="286.9" class="st6" width="12.42" height="15.61"/>
								</g>
								<g>
									<rect x="358.54" y="286.9" class="st6" width="12.42" height="15.61"/>
								</g>
							</g>
							<rect x="329.31" y="277.68" class="st5" width="50.52" height="5.04"/>
							<line class="st9" x1="354.14" y1="282.72" x2="354.14" y2="322.29"/>
							<g>
								<rect x="330.5" y="321.8" class="st10" width="47.43" height="3.61"/>
								<rect x="327.53" y="325.41" class="st10" width="53.36" height="3.12"/>
								<rect x="330.5" y="324.22" class="st4" width="47.43" height="1.19"/>
							</g>
						</g>
					</g>
				</g>
			</g>
		</g>
		<g>
			<g>
				<circle class="st3" cx="420.05" cy="289.6" r="16.37"/>
				<g>
					<line class="st11" x1="419.28" y1="284.34" x2="419.28" y2="329.63"/>
					<line class="st11" x1="412.92" y1="285.19" x2="419.28" y2="292.33"/>
					<path class="st11" d="M427.19,289.6c-0.46,0.46-7.91,8.2-7.91,8.2"/>
				</g>
			</g>
			<line class="st2" x1="457.85" y1="329.47" x2="205.75" y2="329.47"/>
		</g>
		<g>
			<path class="st12" d="M406.09,156.88c0,0,2.01-6.62,8.02-6.79c6.02-0.17,5.93,2.53,10.18,2.45c6.35-0.12,4.01-7.89,13.88-9.58
				c9.87-1.7,14.04,13.93,14.04,13.93H406.09z"/>
			<path class="st12" d="M199.61,91.78c0,0,3.26-9.53,13.03-9.78c9.77-0.24,9.03,2.81,16.54,2.54c6.8-0.25,7.89-10.45,22.55-12.8
				c16.02-2.57,22.8,20.05,22.8,20.05H199.61z"/>
		</g>
	</g>
	<g>
		<defs>
			<rect id="SVGID_1_" x="2.05" y="95.67" width="265.23" height="403.61"/>
		</defs>
		<clipPath id="SVGID_2_">
			<use xlink:href="#SVGID_1_"  style="overflow:visible;"/>
		</clipPath>
		<g class="st13">
			<g>
				<path class="st14" d="M29.11,280.05c0,0-38.4,48.87,15.91,111.75c0,0,56.04,59.04,118.59-2.99L29.11,280.05z"/>
				<polygon class="st14" points="32.89,351.43 -31.01,412.95 -31.01,511.24 31.67,509.24 105,410.6 				"/>
				<polygon class="st15" points="81.84,391.15 146.51,391.15 99.2,332.83 				"/>
			</g>
			<g>
				<g>
					<defs>
						<path id="XMLID_2_" d="M199.39,227.51l-24.12-23.02l51.96-54.45c6.36-6.66,16.91-6.91,23.57-0.55v0
							c6.66,6.36,6.91,16.91,0.55,23.57L199.39,227.51z"/>
					</defs>
					<use xlink:href="#XMLID_2_"  style="overflow:visible;fill:#EEBDBE;"/>
					<clipPath id="XMLID_6_">
						<use xlink:href="#XMLID_2_"  style="overflow:visible;"/>
					</clipPath>
					<polygon class="st16" points="235.75,221.26 215.91,218.88 215.91,137.49 240.02,137.49 					"/>
				</g>
				<g>
					<defs>
						<path id="XMLID_3_" d="M205.58,269.83l-24.12-23.02l51.96-54.45c6.36-6.66,16.91-6.91,23.57-0.55v0
							c6.66,6.36,6.91,16.91,0.55,23.57L205.58,269.83z"/>
					</defs>
					<use xlink:href="#XMLID_3_"  style="overflow:visible;fill:#EEBDBE;"/>
					<clipPath id="XMLID_7_">
						<use xlink:href="#XMLID_3_"  style="overflow:visible;"/>
					</clipPath>
					<polygon class="st17" points="237.98,182.75 235.71,258.52 215.91,196.89 					"/>
				</g>
				<g>
					<defs>
						<path id="XMLID_4_" d="M202.84,320.88l-24.12-23.02l51.96-54.45c6.36-6.66,16.91-6.91,23.57-0.55l0,0
							c6.66,6.36,6.91,16.91,0.55,23.57L202.84,320.88z"/>
					</defs>
					<use xlink:href="#XMLID_4_"  style="overflow:visible;fill:#EEBDBE;"/>
					<clipPath id="XMLID_8_">
						<use xlink:href="#XMLID_4_"  style="overflow:visible;"/>
					</clipPath>
					<polygon class="st18" points="237.01,224.03 233.81,315.5 219.07,238.2 					"/>
				</g>
			</g>
			<g>
				<g>
					<path class="st19" d="M217.23,399.63H107.85c-9.1,0-16.47-7.37-16.47-16.47v-256.6c0-9.1,7.37-16.47,16.47-16.47h109.38
						c9.1,0,16.47,7.37,16.47,16.47v256.6C233.69,392.26,226.32,399.63,217.23,399.63z"/>
					<path class="st20" d="M168.07,381.17c0,3.6-2.92,6.52-6.52,6.52c-3.6,0-6.52-2.92-6.52-6.52s2.92-6.52,6.52-6.52
						C165.15,374.65,168.07,377.57,168.07,381.17z"/>
				</g>
				<g>
					<g>
						<defs>
							<path id="XMLID_5_" d="M214.12,366.81H110.96c-7.1,0-12.86-5.76-12.86-12.86v-223.3c0-7.1,5.76-12.86,12.86-12.86h103.16
								c7.1,0,12.86,5.76,12.86,12.86v223.3C226.97,361.05,221.22,366.81,214.12,366.81z"/>
						</defs>
						<use xlink:href="#XMLID_5_"  style="overflow:visible;fill:#4C4C4C;"/>
						<clipPath id="XMLID_9_">
							<use xlink:href="#XMLID_5_"  style="overflow:visible;"/>
						</clipPath>
						<line class="st21" x1="256.03" y1="167.32" x2="64.64" y2="311.82"/>
						<line class="st21" x1="225.68" y1="120.94" x2="34.3" y2="265.44"/>
						<path class="st21" d="M84.18,102.54l115.13,169.27c3.9,5.74,2.88,13.49-2.37,18.02l-36.95,31.9
							c-16.85,14.55-19.18,30.39-5.27,47.77l59.64,83.96"/>
					</g>
					<g>
						
							<ellipse transform="matrix(0.9279 -0.3729 0.3729 0.9279 -75.5822 77.5245)" class="st12" cx="162.58" cy="234.11" rx="13.37" ry="13.37"/>
						<g>
							<path class="st0" d="M187.79,236.06c0-13.93-11.29-25.21-25.21-25.21c-13.93,0-25.21,11.29-25.21,25.21
								c0,4.12,1.01,7.99,2.76,11.43l-0.03,0l0.2,0.37c0.09,0.17,0.19,0.34,0.29,0.52l21.99,39.77l22.03-39.84
								c0.07-0.13,0.15-0.27,0.22-0.4l0.1-0.18h-0.01C186.75,244.23,187.79,240.27,187.79,236.06z M162.58,244.18
								c-5.56,0-10.07-4.51-10.07-10.07c0-5.56,4.51-10.07,10.07-10.07c5.56,0,10.07,4.51,10.07,10.07
								C172.65,239.67,168.14,244.18,162.58,244.18z"/>
						</g>
					</g>
				</g>
			</g>
			<path class="st14" d="M116.43,188.08c9.17,9.58,17.75,32.66-23.93,85.03c0,0,33.56,68.27-11.97,119.71l-36.27-93.06l-15.16-19.71
				l78.39-91.76C109.82,185.58,113.96,185.5,116.43,188.08z"/>
		</g>
	</g>
</g>
<g id="DESIGNED_BY_FREEPIK">
</g>
</svg>
